<svg width="40" height="40" viewBox="0 0 40 40" fill="none" xmlns="http://www.w3.org/2000/svg">
<path d="M20.0001 20.5289C20.7227 20.5289 21.4292 20.3146 22.03 19.9131C22.6309 19.5116 23.0992 18.941 23.3758 18.2733C23.6523 17.6057 23.7247 16.871 23.5837 16.1622C23.4427 15.4534 23.0947 14.8024 22.5837 14.2914C22.0727 13.7804 21.4217 13.4324 20.7129 13.2914C20.0041 13.1504 19.2694 13.2228 18.6018 13.4993C17.9341 13.7759 17.3635 14.2442 16.962 14.8451C16.5605 15.446 16.3462 16.1524 16.3462 16.8751C16.3473 17.8438 16.7326 18.7725 17.4176 19.4575C18.1026 20.1425 19.0313 20.5278 20.0001 20.5289ZM20.0001 14.4712C20.4755 14.4712 20.9403 14.6122 21.3356 14.8763C21.7309 15.1405 22.039 15.5159 22.2209 15.9551C22.4029 16.3944 22.4505 16.8777 22.3577 17.344C22.265 17.8103 22.036 18.2387 21.6999 18.5749C21.3637 18.911 20.9353 19.14 20.469 19.2327C20.0027 19.3255 19.5194 19.2779 19.0801 19.0959C18.6409 18.914 18.2655 18.6059 18.0013 18.2106C17.7372 17.8153 17.5962 17.3505 17.5962 16.8751C17.597 16.2377 17.8505 15.6268 18.3011 15.1761C18.7518 14.7255 19.3627 14.472 20.0001 14.4712Z" fill="#01BC8C"/>
<path d="M14.8126 13.3884C14.7317 13.5087 14.695 13.6533 14.709 13.7976C14.723 13.942 14.7867 14.0769 14.8892 14.1794L15.0998 14.3903C14.9725 14.6406 14.8645 14.9004 14.7769 15.1673H14.4815C14.3365 15.1672 14.196 15.2176 14.0841 15.3098C13.9722 15.402 13.8958 15.5303 13.8681 15.6726C13.7106 16.4665 13.7106 17.2836 13.8681 18.0774C13.8958 18.2198 13.9722 18.348 14.0841 18.4402C14.196 18.5324 14.3365 18.5828 14.4815 18.5828H14.7772C14.8646 18.8497 14.9725 19.1094 15.0998 19.3598L14.8892 19.5707C14.7867 19.6732 14.723 19.8081 14.709 19.9524C14.695 20.0967 14.7317 20.2414 14.8126 20.3617C15.2642 21.0333 15.8418 21.6108 16.5134 22.0624C16.6336 22.1434 16.7783 22.18 16.9226 22.166C17.0669 22.152 17.2019 22.0883 17.3044 21.9858L17.5153 21.7752C17.7656 21.9025 18.0254 22.0103 18.2922 22.0978V22.3935C18.2922 22.5385 18.3426 22.679 18.4348 22.7909C18.527 22.9029 18.6553 22.9792 18.7976 23.0069C19.5915 23.1644 20.4085 23.1644 21.2024 23.0069C21.3447 22.9792 21.473 22.9029 21.5652 22.7909C21.6574 22.679 21.7078 22.5385 21.7078 22.3935V22.0978C21.9747 22.0104 22.2344 21.9025 22.4847 21.7752L22.6956 21.9858C22.7981 22.0883 22.9331 22.152 23.0774 22.166C23.2217 22.18 23.3664 22.1434 23.4866 22.0624C24.1582 21.6108 24.7358 21.0333 25.1874 20.3617C25.2683 20.2414 25.305 20.0967 25.291 19.9524C25.277 19.8081 25.2133 19.6732 25.1108 19.5707L24.9002 19.3598C25.0275 19.1094 25.1354 18.8497 25.2228 18.5828H25.5185C25.6635 18.5828 25.804 18.5324 25.9159 18.4402C26.0278 18.348 26.1042 18.2198 26.1319 18.0774C26.2894 17.2836 26.2894 16.4665 26.1319 15.6726C26.1042 15.5303 26.0278 15.402 25.9159 15.3098C25.804 15.2176 25.6635 15.1672 25.5185 15.1673H25.2231C25.1354 14.9004 25.0275 14.6407 24.9002 14.3903L25.1108 14.1794C25.2133 14.0769 25.277 13.942 25.291 13.7976C25.305 13.6533 25.2683 13.5087 25.1874 13.3884C24.7358 12.7168 24.1582 12.1392 23.4866 11.6877C23.3663 11.6068 23.2217 11.5703 23.0774 11.5843C22.9331 11.5982 22.7982 11.6619 22.6956 11.7642L22.4847 11.9748C22.2344 11.8476 21.9746 11.7397 21.7078 11.6523V11.3565C21.7078 11.2115 21.6574 11.071 21.5652 10.9591C21.473 10.8472 21.3447 10.7708 21.2024 10.7431C20.4085 10.5863 19.5915 10.5863 18.7976 10.7431C18.6553 10.7708 18.527 10.8472 18.4348 10.9591C18.3426 11.071 18.2922 11.2115 18.2922 11.3565V11.6523C18.0253 11.7397 17.7656 11.8475 17.5153 11.9748L17.3044 11.7642C17.2018 11.6619 17.0669 11.5982 16.9226 11.5843C16.7783 11.5703 16.6337 11.6068 16.5134 11.6877C15.8418 12.1392 15.2642 12.7168 14.8126 13.3884ZM15.9537 15.5905C16.0268 15.3611 16.1194 15.1383 16.2305 14.9247C16.3334 14.7314 16.3802 14.5131 16.3654 14.2946C16.3506 14.0761 16.2749 13.8661 16.1469 13.6884C16.3476 13.4458 16.5708 13.2227 16.8134 13.0219C16.9911 13.1499 17.2012 13.2255 17.4197 13.2403C17.6382 13.2551 17.8566 13.2084 18.0499 13.1055C18.2635 12.9945 18.4862 12.902 18.7155 12.829C18.9243 12.765 19.111 12.644 19.2547 12.4795C19.3983 12.3151 19.4932 12.1137 19.5285 11.8982C19.8421 11.8671 20.1579 11.8671 20.4715 11.8982C20.5068 12.1137 20.6016 12.315 20.7452 12.4794C20.8888 12.6439 21.0755 12.765 21.2842 12.829C21.5137 12.902 21.7366 12.9945 21.9504 13.1055C22.1436 13.2086 22.3619 13.2554 22.5805 13.2407C22.799 13.2259 23.009 13.1501 23.1866 13.0219C23.4292 13.2227 23.6524 13.4458 23.8531 13.6884C23.7251 13.8661 23.6494 14.0762 23.6346 14.2947C23.6198 14.5133 23.6665 14.7316 23.7695 14.925C23.8803 15.1384 23.9728 15.3609 24.046 15.59C24.1099 15.7988 24.2309 15.9857 24.3954 16.1295C24.5598 16.2733 24.7612 16.3682 24.9768 16.4036C24.9924 16.5619 25 16.7194 25 16.875C25 17.0307 24.9924 17.1882 24.9768 17.3465C24.7613 17.3818 24.56 17.4766 24.3956 17.6202C24.2311 17.7638 24.11 17.9505 24.046 18.1592C23.9731 18.3888 23.8806 18.6116 23.7695 18.8254C23.6666 19.0187 23.6198 19.237 23.6346 19.4555C23.6494 19.674 23.7251 19.884 23.8531 20.0617C23.6524 20.3042 23.4292 20.5274 23.1866 20.7282C23.0089 20.6002 22.7988 20.5246 22.5803 20.5098C22.3618 20.4951 22.1435 20.5417 21.9501 20.6445C21.7365 20.7556 21.5138 20.8481 21.2845 20.921C21.0757 20.985 20.889 21.1061 20.7453 21.2705C20.6017 21.435 20.5068 21.6363 20.4715 21.8518C20.1579 21.8829 19.8421 21.8829 19.5285 21.8518C19.4932 21.6364 19.3984 21.4351 19.2548 21.2706C19.1112 21.1062 18.9245 20.9851 18.7158 20.921C18.4863 20.8481 18.2634 20.7556 18.0496 20.6445C17.8563 20.5415 17.6381 20.4947 17.4195 20.5095C17.201 20.5243 16.991 20.6 16.8134 20.7282C16.5708 20.5274 16.3476 20.3042 16.1469 20.0617C16.2749 19.8839 16.3506 19.6739 16.3654 19.4553C16.3802 19.2368 16.3335 19.0185 16.2305 18.8251C16.1195 18.6116 16.027 18.3891 15.954 18.1598C15.8901 17.951 15.769 17.7642 15.6046 17.6205C15.4401 17.4768 15.2387 17.3819 15.0232 17.3465C15.0076 17.1882 15 17.0307 15 16.875C15 16.7194 15.0076 16.5619 15.0232 16.4035C15.2386 16.3682 15.4399 16.2733 15.6043 16.1297C15.7687 15.986 15.8897 15.7993 15.9537 15.5905Z" fill="#01BC8C"/>
<path d="M20 5.625C20.4945 5.625 20.9778 5.47838 21.3889 5.20368C21.8 4.92897 22.1205 4.53852 22.3097 4.08171C22.4989 3.62489 22.5484 3.12223 22.452 2.63728C22.3555 2.15232 22.1174 1.70687 21.7678 1.35723C21.4181 1.0076 20.9727 0.769501 20.4877 0.673038C20.0028 0.576575 19.5001 0.626083 19.0433 0.815302C18.5865 1.00452 18.196 1.32495 17.9213 1.73608C17.6466 2.1472 17.5 2.63055 17.5 3.125C17.5008 3.78781 17.7644 4.42325 18.2331 4.89193C18.7017 5.36061 19.3372 5.62424 20 5.625ZM20 1.875C20.2472 1.875 20.4889 1.94831 20.6945 2.08566C20.9 2.22302 21.0602 2.41824 21.1548 2.64665C21.2495 2.87505 21.2742 3.12639 21.226 3.36886C21.1778 3.61134 21.0587 3.83407 20.8839 4.00888C20.7091 4.1837 20.4863 4.30275 20.2439 4.35098C20.0014 4.39921 19.7501 4.37446 19.5216 4.27985C19.2932 4.18524 19.098 4.02503 18.9607 3.81946C18.8233 3.6139 18.75 3.37223 18.75 3.125C18.7503 2.79358 18.8821 2.47583 19.1165 2.24148C19.3508 2.00713 19.6686 1.87533 20 1.875Z" fill="#01BC8C"/>
<path d="M6.25 19.2446C6.74445 19.2446 7.2278 19.098 7.63893 18.8233C8.05005 18.5486 8.37048 18.1582 8.5597 17.7013C8.74892 17.2445 8.79843 16.7419 8.70196 16.2569C8.6055 15.772 8.3674 15.3265 8.01777 14.9769C7.66814 14.6272 7.22268 14.3891 6.73773 14.2927C6.25277 14.1962 5.75011 14.2457 5.29329 14.4349C4.83648 14.6242 4.44603 14.9446 4.17133 15.3557C3.89662 15.7668 3.75 16.2502 3.75 16.7446C3.75076 17.4074 4.01439 18.0429 4.48307 18.5116C4.95175 18.9802 5.58719 19.2439 6.25 19.2446ZM6.25 15.4946C6.49723 15.4946 6.7389 15.5679 6.94446 15.7053C7.15002 15.8426 7.31024 16.0379 7.40485 16.2663C7.49946 16.4947 7.52421 16.746 7.47598 16.9885C7.42775 17.231 7.3087 17.4537 7.13388 17.6285C6.95907 17.8033 6.73634 17.9224 6.49386 17.9706C6.25139 18.0188 6.00005 17.9941 5.77165 17.8995C5.54324 17.8049 5.34801 17.6447 5.21066 17.4391C5.07331 17.2335 5 16.9919 5 16.7446C5.00033 16.4132 5.13213 16.0955 5.36648 15.8611C5.60083 15.6268 5.91858 15.495 6.25 15.4946Z" fill="#01BC8C"/>
<path d="M31.25 16.7446C31.25 17.2391 31.3966 17.7224 31.6713 18.1336C31.946 18.5447 32.3365 18.8651 32.7933 19.0543C33.2501 19.2435 33.7528 19.2931 34.2377 19.1966C34.7227 19.1001 35.1681 18.862 35.5178 18.5124C35.8674 18.1628 36.1055 17.7173 36.202 17.2324C36.2984 16.7474 36.2489 16.2447 36.0597 15.7879C35.8705 15.3311 35.55 14.9407 35.1389 14.666C34.7278 14.3913 34.2445 14.2446 33.75 14.2446C33.0872 14.2454 32.4517 14.509 31.9831 14.9777C31.5144 15.4464 31.2508 16.0818 31.25 16.7446ZM35 16.7446C35 16.9919 34.9267 17.2335 34.7893 17.4391C34.652 17.6447 34.4568 17.8049 34.2284 17.8995C33.9999 17.9941 33.7486 18.0188 33.5061 17.9706C33.2637 17.9224 33.0409 17.8033 32.8661 17.6285C32.6913 17.4537 32.5722 17.231 32.524 16.9885C32.4758 16.746 32.5005 16.4947 32.5952 16.2663C32.6898 16.0379 32.85 15.8426 33.0555 15.7053C33.2611 15.5679 33.5028 15.4946 33.75 15.4946C34.0814 15.495 34.3992 15.6268 34.6335 15.8611C34.8679 16.0955 34.9997 16.4132 35 16.7446Z" fill="#01BC8C"/>
<path d="M32.6308 13.2949L33.8338 12.955C33.1874 10.6556 31.9763 8.55432 30.3106 6.84243C28.6449 5.13053 26.5776 3.86236 24.2968 3.15332L23.9238 4.34656C26.0062 4.99382 27.8936 6.15157 29.4143 7.71444C30.935 9.27731 32.0407 11.1957 32.6308 13.2949Z" fill="#01BC8C"/>
<path d="M16.4199 4.24402L16.0799 3.04102C13.7223 3.71706 11.5753 4.98171 9.84102 6.71602C8.10671 8.45032 6.84206 10.5973 6.16602 12.9549L7.36902 13.2949C7.9862 11.1425 9.14076 9.1824 10.7241 7.59907C12.3074 6.01574 14.2675 4.86119 16.4199 4.24402Z" fill="#01BC8C"/>
<path d="M30.1426 25.0986L31.1082 25.8927C32.3683 24.3657 33.2966 22.5931 33.834 20.6876L32.631 20.3477C32.1405 22.0869 31.293 23.705 30.1426 25.0986Z" fill="#01BC8C"/>
<path d="M7.47644 20.3477L6.27344 20.6876C6.82677 22.6504 7.79481 24.4716 9.11219 26.0282L10.068 25.2225C8.86524 23.8018 7.98148 22.1394 7.47644 20.3477Z" fill="#01BC8C"/>
<path d="M28.9534 31.3858C29.205 31.0094 29.3497 30.5717 29.372 30.1195C29.3942 29.6673 29.2933 29.2175 29.0799 28.8182C28.8665 28.4189 28.5487 28.085 28.1603 27.8523C27.772 27.6195 27.3278 27.4965 26.875 27.4965C26.4222 27.4965 25.978 27.6195 25.5897 27.8523C25.2013 28.085 24.8835 28.4189 24.6701 28.8182C24.4567 29.2175 24.3558 29.6673 24.378 30.1195C24.4003 30.5717 24.545 31.0094 24.7966 31.3858C24.5926 31.4473 24.397 31.5335 24.2139 31.6424C24.0709 31.252 23.8327 30.9035 23.5211 30.6284C23.2094 30.3532 22.834 30.1602 22.429 30.0667C22.8763 29.5181 23.1219 28.8328 23.125 28.125C23.125 27.2962 22.7958 26.5013 22.2097 25.9153C21.6237 25.3292 20.8288 25 20 25C19.1712 25 18.3763 25.3292 17.7903 25.9153C17.2042 26.5013 16.875 27.2962 16.875 28.125C16.8781 28.8328 17.1237 29.5181 17.571 30.0667C17.166 30.1602 16.7906 30.3532 16.4789 30.6284C16.1673 30.9035 15.9291 31.252 15.7861 31.6424C15.603 31.5335 15.4074 31.4473 15.2034 31.3858C15.455 31.0094 15.5997 30.5717 15.622 30.1195C15.6442 29.6673 15.5433 29.2175 15.3299 28.8182C15.1165 28.4189 14.7987 28.085 14.4103 27.8523C14.022 27.6195 13.5778 27.4965 13.125 27.4965C12.6722 27.4965 12.228 27.6195 11.8397 27.8523C11.4513 28.085 11.1335 28.4189 10.9201 28.8182C10.7067 29.2175 10.6058 29.6673 10.628 30.1195C10.6503 30.5717 10.795 31.0094 11.0466 31.3858C10.5809 31.5116 10.1675 31.7828 9.86682 32.16C9.56613 32.5372 9.39381 33.0006 9.375 33.4827V38.125C9.375 38.2908 9.44085 38.4497 9.55806 38.5669C9.67527 38.6842 9.83424 38.75 10 38.75H15.625C15.625 38.9158 15.6908 39.0747 15.8081 39.1919C15.9253 39.3092 16.0842 39.375 16.25 39.375H23.75C23.9158 39.375 24.0747 39.3092 24.1919 39.1919C24.3092 39.0747 24.375 38.9158 24.375 38.75H30C30.1658 38.75 30.3247 38.6842 30.4419 38.5669C30.5592 38.4497 30.625 38.2908 30.625 38.125V33.4827C30.6062 33.0006 30.4339 32.5372 30.1332 32.16C29.8325 31.7828 29.4191 31.5116 28.9534 31.3858ZM13.125 28.75C13.3722 28.75 13.6139 28.8233 13.8195 28.9607C14.025 29.098 14.1852 29.2932 14.2798 29.5216C14.3745 29.7501 14.3992 30.0014 14.351 30.2439C14.3028 30.4863 14.1837 30.7091 14.0089 30.8839C13.8341 31.0587 13.6113 31.1778 13.3689 31.226C13.1264 31.2742 12.8751 31.2495 12.6466 31.1548C12.4182 31.0602 12.223 30.9 12.0857 30.6945C11.9483 30.4889 11.875 30.2472 11.875 30C11.8753 29.6686 12.0071 29.3508 12.2415 29.1165C12.4758 28.8821 12.7936 28.7503 13.125 28.75ZM15.625 37.5H10.625V33.4827C10.6648 33.1885 10.8175 32.9215 11.0509 32.738C11.2842 32.5546 11.5798 32.4692 11.875 32.5H14.375C14.6702 32.4692 14.9658 32.5546 15.1991 32.738C15.4325 32.9215 15.5852 33.1885 15.625 33.4827V37.5ZM20 26.25C20.2577 26.2505 20.5125 26.3045 20.7484 26.4085C20.9842 26.5125 21.1959 26.6642 21.3701 26.8541C20.4724 26.6149 19.5276 26.6149 18.6299 26.8541C18.8041 26.6642 19.0158 26.5125 19.2516 26.4085C19.4875 26.3045 19.7423 26.2505 20 26.25ZM21.8502 28.3709C21.7927 28.821 21.5732 29.2348 21.2326 29.5347C20.892 29.8346 20.4538 30 20 30C19.5462 30 19.108 29.8346 18.7674 29.5347C18.4268 29.2348 18.2073 28.821 18.1498 28.3709C18.7232 28.0801 19.3571 27.9286 20 27.9286C20.6429 27.9286 21.2768 28.0801 21.8502 28.3709ZM20.5481 34.8181L20 35.3662L19.4519 34.8181L20 32.9001L20.5481 34.8181ZM23.125 38.125H16.875V32.5C16.8753 32.1686 17.0071 31.8508 17.2415 31.6165C17.4758 31.3821 17.7936 31.2503 18.125 31.25H19.1714L18.1491 34.8282C18.1184 34.9354 18.117 35.0488 18.1449 35.1567C18.1729 35.2646 18.2292 35.3631 18.3081 35.4419L19.5581 36.6919C19.6161 36.7499 19.685 36.796 19.7608 36.8274C19.8367 36.8588 19.9179 36.875 20 36.875C20.0821 36.875 20.1633 36.8588 20.2392 36.8274C20.315 36.796 20.3839 36.7499 20.4419 36.6919L21.6919 35.4419C21.7708 35.3631 21.8271 35.2646 21.8551 35.1567C21.883 35.0488 21.8816 34.9354 21.8509 34.8282L20.8286 31.25H21.875C22.2064 31.2503 22.5242 31.3821 22.7585 31.6165C22.9929 31.8508 23.1247 32.1686 23.125 32.5V38.125ZM26.875 28.75C27.1222 28.75 27.3639 28.8233 27.5695 28.9607C27.775 29.098 27.9352 29.2932 28.0299 29.5216C28.1245 29.7501 28.1492 30.0014 28.101 30.2439C28.0527 30.4863 27.9337 30.7091 27.7589 30.8839C27.5841 31.0587 27.3613 31.1778 27.1189 31.226C26.8764 31.2742 26.6251 31.2495 26.3966 31.1548C26.1682 31.0602 25.973 30.9 25.8357 30.6945C25.6983 30.4889 25.625 30.2472 25.625 30C25.6253 29.6686 25.7571 29.3508 25.9915 29.1165C26.2258 28.8821 26.5436 28.7503 26.875 28.75ZM29.375 37.5H24.375V33.4827C24.4148 33.1885 24.5675 32.9215 24.8009 32.738C25.0342 32.5546 25.3298 32.4692 25.625 32.5H28.125C28.4202 32.4692 28.7158 32.5546 28.9491 32.738C29.1825 32.9215 29.3352 33.1885 29.375 33.4827V37.5Z" fill="#01BC8C"/>
</svg>
