<svg width="35" height="35" viewBox="0 0 35 35" fill="none" xmlns="http://www.w3.org/2000/svg">
<path d="M17.5 7.10938C15.4449 7.10938 13.436 7.71876 11.7273 8.86052C10.0185 10.0022 8.68678 11.625 7.90031 13.5237C7.11385 15.4223 6.90812 17.5115 7.30903 19.5271C7.70995 21.5427 8.69957 23.3941 10.1527 24.8473C11.6059 26.3004 13.4573 27.29 15.4729 27.691C17.4885 28.0919 19.5777 27.8861 21.4763 27.0997C23.375 26.3132 24.9978 24.9815 26.1395 23.2727C27.2812 21.564 27.8906 19.555 27.8906 17.5C27.8882 14.745 26.7927 12.1035 24.8446 10.1554C22.8964 8.20734 20.255 7.11184 17.5 7.10938ZM17.5 26.7969C15.6612 26.7969 13.8638 26.2516 12.3349 25.2301C10.8061 24.2085 9.61444 22.7566 8.91083 21.0577C8.20717 19.359 8.02303 17.4897 8.38178 15.6863C8.74048 13.8829 9.62592 12.2263 10.9261 10.9261C12.2263 9.62593 13.8829 8.74048 15.6863 8.38179C17.4897 8.02304 19.359 8.20717 21.0577 8.91078C22.7566 9.61445 24.2085 10.8061 25.2301 12.3349C26.2516 13.8638 26.7969 15.6612 26.7969 17.5C26.7934 19.9646 25.8128 22.3273 24.07 24.07C22.3273 25.8128 19.9646 26.7934 17.5 26.7969Z" fill="#01BC8C"/>
<path d="M33.3594 14.7656H30.893C30.5506 13.0501 29.8742 11.4186 28.9023 9.96406L30.6469 8.21953C30.7467 8.1147 30.8033 7.97601 30.8055 7.83125C30.8044 7.68627 30.7476 7.54726 30.6469 7.44297L27.557 4.35313C27.4513 4.25554 27.3126 4.20136 27.1688 4.20136C27.0249 4.20136 26.8862 4.25554 26.7805 4.35313L25.0359 6.09766C23.5814 5.12579 21.9499 4.44941 20.2344 4.10703V1.64062C20.2344 1.49558 20.1767 1.35649 20.0742 1.25392C19.9717 1.15137 19.8325 1.09375 19.6875 1.09375H15.3125C15.1675 1.09375 15.0283 1.15137 14.9258 1.25392C14.8233 1.35649 14.7656 1.49558 14.7656 1.64062V4.10703C13.0501 4.44941 11.4186 5.12579 9.96406 6.09766L8.21953 4.35313C8.11628 4.25067 7.97672 4.19318 7.83125 4.19318C7.68578 4.19318 7.54622 4.25067 7.44297 4.35313L4.35313 7.44297C4.25067 7.54622 4.19318 7.68578 4.19318 7.83125C4.19318 7.97672 4.25067 8.11628 4.35313 8.21953L6.09766 9.96406C5.12579 11.4186 4.44941 13.0501 4.10703 14.7656H1.64062C1.49558 14.7656 1.35649 14.8233 1.25392 14.9258C1.15137 15.0283 1.09375 15.1675 1.09375 15.3125V19.6875C1.09375 19.8325 1.15137 19.9717 1.25392 20.0742C1.35649 20.1767 1.49558 20.2344 1.64062 20.2344H4.10703C4.44941 21.9499 5.12579 23.5814 6.09766 25.0359L4.35313 26.7805C4.25067 26.8837 4.19318 27.0233 4.19318 27.1688C4.19318 27.3142 4.25067 27.4538 4.35313 27.557L7.44297 30.6469C7.54622 30.7494 7.68578 30.8068 7.83125 30.8068C7.97672 30.8068 8.11628 30.7494 8.21953 30.6469L9.96406 28.9023C11.4186 29.8742 13.0501 30.5506 14.7656 30.893V33.3594C14.7656 33.5044 14.8233 33.6435 14.9258 33.7461C15.0283 33.8486 15.1675 33.9062 15.3125 33.9062H19.6875C19.8325 33.9062 19.9717 33.8486 20.0742 33.7461C20.1767 33.6435 20.2344 33.5044 20.2344 33.3594V30.893C21.9499 30.5506 23.5814 29.8742 25.0359 28.9023L26.7805 30.6469C26.8842 30.7485 27.0236 30.8055 27.1688 30.8055C27.3139 30.8055 27.4533 30.7485 27.557 30.6469L30.6469 27.557C30.7476 27.4527 30.8044 27.3137 30.8055 27.1688C30.8033 27.024 30.7467 26.8853 30.6469 26.7805L28.9023 25.0359C29.8742 23.5814 30.5506 21.9499 30.893 20.2344H33.3594C33.5044 20.2344 33.6435 20.1767 33.7461 20.0742C33.8486 19.9717 33.9062 19.8325 33.9062 19.6875V15.3125C33.9062 15.1675 33.8486 15.0283 33.7461 14.9258C33.6435 14.8233 33.5044 14.7656 33.3594 14.7656ZM32.8125 19.1406H30.4391C30.3097 19.14 30.1843 19.1853 30.0852 19.2684C29.9861 19.3515 29.9196 19.4671 29.8977 19.5945C29.5916 21.4672 28.8559 23.2436 27.7484 24.7844C27.6725 24.8894 27.6363 25.0179 27.6463 25.1472C27.6563 25.2763 27.7119 25.3978 27.8031 25.4898L29.4875 27.1688L27.1688 29.4875L25.4898 27.8031C25.3978 27.7119 25.2763 27.6563 25.1472 27.6463C25.0179 27.6363 24.8894 27.6725 24.7844 27.7484C23.2436 28.8559 21.4672 29.5916 19.5945 29.8977C19.4671 29.9196 19.3515 29.9861 19.2684 30.0852C19.1853 30.1843 19.14 30.3097 19.1406 30.4391V32.8125H15.8594V30.4391C15.86 30.3097 15.8147 30.1843 15.7316 30.0852C15.6485 29.9861 15.5329 29.9196 15.4055 29.8977C13.5328 29.5916 11.7564 28.8559 10.2156 27.7484C10.1106 27.6725 9.98205 27.6363 9.85283 27.6463C9.72366 27.6563 9.60219 27.7119 9.51016 27.8031L7.83125 29.4875L5.5125 27.1688L7.19688 25.4898C7.28809 25.3978 7.34366 25.2763 7.35366 25.1472C7.36373 25.0179 7.32752 24.8894 7.25156 24.7844C6.14409 23.2436 5.40844 21.4672 5.10234 19.5945C5.08035 19.4671 5.0139 19.3515 4.91478 19.2684C4.81566 19.1853 4.69028 19.14 4.56094 19.1406H2.1875V15.8594H4.56094C4.69028 15.86 4.81566 15.8147 4.91478 15.7316C5.0139 15.6485 5.08035 15.5329 5.10234 15.4055C5.40844 13.5328 6.14409 11.7564 7.25156 10.2156C7.32752 10.1106 7.36373 9.98205 7.35366 9.85283C7.34366 9.72366 7.28809 9.60219 7.19688 9.51016L5.5125 7.83125L7.83125 5.5125L9.51016 7.19688C9.60219 7.28809 9.72366 7.34366 9.85283 7.35366C9.98205 7.36373 10.1106 7.32752 10.2156 7.25156C11.7564 6.14409 13.5328 5.40844 15.4055 5.10234C15.5329 5.08035 15.6485 5.0139 15.7316 4.91478C15.8147 4.81566 15.86 4.69028 15.8594 4.56094V2.1875H19.1406V4.56094C19.14 4.69028 19.1853 4.81566 19.2684 4.91478C19.3515 5.0139 19.4671 5.08035 19.5945 5.10234C21.4672 5.40844 23.2436 6.14409 24.7844 7.25156C24.8894 7.32752 25.0179 7.36373 25.1472 7.35366C25.2763 7.34366 25.3978 7.28809 25.4898 7.19688L27.1688 5.5125L29.4875 7.83125L27.8031 9.51016C27.7119 9.60219 27.6563 9.72366 27.6463 9.85283C27.6363 9.98205 27.6725 10.1106 27.7484 10.2156C28.8559 11.7564 29.5916 13.5328 29.8977 15.4055C29.9196 15.5329 29.9861 15.6485 30.0852 15.7316C30.1843 15.8147 30.3097 15.86 30.4391 15.8594H32.8125V19.1406Z" fill="#01BC8C"/>
<path d="M20.207 17.1117L20.3546 16.964C20.9414 17.1203 21.56 17.111 22.1418 16.9373C22.7236 16.7635 23.246 16.432 23.6509 15.9794C24.0558 15.5269 24.3276 14.9711 24.4359 14.3736C24.5442 13.7762 24.485 13.1603 24.2648 12.5945C24.2322 12.5094 24.1788 12.4338 24.1096 12.3746C24.0404 12.3154 23.9574 12.2744 23.8683 12.2554C23.7792 12.2364 23.6867 12.2399 23.5994 12.2657C23.512 12.2915 23.4324 12.3387 23.3679 12.4031L22.2195 13.5515L21.6398 13.3601L21.4484 12.7804L22.5968 11.632C22.6616 11.5672 22.7091 11.4872 22.7349 11.3993C22.7607 11.3113 22.764 11.2184 22.7445 11.1289C22.7259 11.0399 22.685 10.9571 22.6257 10.8883C22.5664 10.8194 22.4906 10.7667 22.4054 10.7351C21.8396 10.5149 21.2237 10.4557 20.6263 10.564C20.0288 10.6723 19.473 10.9441 19.0205 11.349C18.5679 11.7539 18.2364 12.2763 18.0627 12.8581C17.8889 13.4399 17.8796 14.0585 18.0359 14.6453L16.7289 15.9523L14.957 14.1804C15.0281 14.1063 15.0774 14.0139 15.0995 13.9137C15.1218 13.8134 15.116 13.7089 15.0828 13.6117L14.6671 12.4249C14.6243 12.3043 14.5412 12.2019 14.432 12.1351L12.5234 11.0031C12.4195 10.9419 12.2983 10.9167 12.1786 10.9316C12.0589 10.9464 11.9475 11.0004 11.8617 11.0851L11.0851 11.8617C11.0004 11.9475 10.9464 12.0589 10.9316 12.1786C10.9168 12.2982 10.9419 12.4195 11.0031 12.5234L12.1351 14.432C12.202 14.5412 12.3043 14.6243 12.4249 14.6671L13.6117 15.0828C13.6694 15.1042 13.7306 15.1153 13.7921 15.1156C13.9381 15.1139 14.0775 15.055 14.1804 14.9515L15.9523 16.7234L14.6453 18.0359C14.0585 17.8796 13.4399 17.8888 12.8581 18.0626C12.2763 18.2364 11.7539 18.5679 11.349 19.0204C10.9441 19.473 10.6724 20.0288 10.564 20.6262C10.4557 21.2237 10.5149 21.8395 10.7351 22.4054C10.7668 22.4906 10.8194 22.5664 10.8883 22.6257C10.9571 22.685 11.0399 22.7258 11.1289 22.7445C11.2184 22.7635 11.3112 22.7599 11.3991 22.7341C11.4869 22.7084 11.5669 22.6612 11.632 22.5968L12.7804 21.4484L13.3601 21.6398L13.5515 22.2195L12.4031 23.3679C12.3383 23.4327 12.2908 23.5127 12.265 23.6006C12.2392 23.6885 12.2359 23.7815 12.2554 23.871C12.2741 23.96 12.3149 24.0428 12.3743 24.1116C12.4335 24.1805 12.5093 24.2332 12.5945 24.2648C12.975 24.4112 13.379 24.4872 13.7867 24.489C14.2906 24.489 14.7878 24.3731 15.2398 24.1504C15.6918 23.9276 16.0866 23.604 16.3937 23.2044C16.7007 22.8049 16.9119 22.3401 17.0108 21.846C17.1096 21.3518 17.0937 20.8416 16.964 20.3546L17.1117 20.207L20.4312 23.5265C20.8417 23.937 21.3984 24.1676 21.9789 24.1676C22.5594 24.1676 23.1161 23.937 23.5265 23.5265C23.937 23.116 24.1676 22.5593 24.1676 21.9789C24.1676 21.3983 23.937 20.8417 23.5265 20.4312L20.207 17.1117ZM13.6499 13.9398L12.9718 13.6992L12.1624 12.332L12.332 12.1624L13.6992 12.9718L13.9398 13.6499L13.6499 13.9398ZM15.9523 19.8187C15.8792 19.895 15.8291 19.9904 15.8078 20.0939C15.7865 20.1975 15.7949 20.3049 15.832 20.4039C15.9854 20.8015 16.0205 21.2351 15.9332 21.6523C15.8458 22.0695 15.6398 22.4526 15.3398 22.7554C14.9627 23.1319 14.4609 23.3576 13.9289 23.3898L14.5687 22.7554C14.6396 22.6822 14.6892 22.5911 14.7123 22.4919C14.7354 22.3927 14.7312 22.2891 14.6999 22.1921L14.3117 21.0328C14.2852 20.9524 14.2402 20.8793 14.1804 20.8195C14.1206 20.7597 14.0475 20.7147 13.9671 20.6882L12.8078 20.2999C12.7509 20.2829 12.6921 20.2736 12.6328 20.2726C12.4875 20.2722 12.3479 20.3292 12.2445 20.4312L11.6101 21.071C11.6423 20.5391 11.868 20.0372 12.2445 19.6601C12.5473 19.3601 12.9304 19.1541 13.3476 19.0667C13.7648 18.9794 14.1984 19.0146 14.596 19.1679C14.695 19.205 14.8024 19.2134 14.906 19.1921C15.0095 19.1708 15.1049 19.1207 15.1812 19.0476L16.7289 17.4999L17.4999 18.271L15.9523 19.8187ZM19.0476 15.1812C19.1207 15.1049 19.1708 15.0095 19.1921 14.906C19.2134 14.8024 19.205 14.695 19.1679 14.596C19.0146 14.1984 18.9794 13.7648 19.0667 13.3476C19.1541 12.9304 19.3601 12.5473 19.6601 12.2445C20.0373 11.8679 20.5391 11.6423 21.071 11.6101L20.4312 12.2445C20.3604 12.3177 20.3107 12.4087 20.2876 12.508C20.2645 12.6072 20.2688 12.7108 20.2999 12.8078L20.6882 13.9671C20.7147 14.0475 20.7597 14.1205 20.8195 14.1804C20.8794 14.2402 20.9524 14.2852 21.0328 14.3117L22.1921 14.6999C22.2891 14.7312 22.3927 14.7354 22.492 14.7123C22.5912 14.6892 22.6822 14.6396 22.7554 14.5687L23.3898 13.9289C23.3576 14.4608 23.132 14.9627 22.7554 15.3398C22.4526 15.6398 22.0695 15.8458 21.6523 15.9332C21.2351 16.0205 20.8016 15.9853 20.4039 15.832C20.3049 15.7949 20.1975 15.7865 20.0939 15.8078C19.9904 15.8291 19.895 15.8792 19.8187 15.9523L18.271 17.4999L17.4999 16.7234L19.0476 15.1812ZM22.7554 22.7554C22.5462 22.9529 22.2694 23.063 21.9816 23.063C21.6938 23.063 21.417 22.9529 21.2078 22.7554L17.8882 19.4359L18.6593 18.6593L19.4359 17.8882L22.7554 21.2078C22.9587 21.414 23.0726 21.692 23.0726 21.9816C23.0726 22.2712 22.9587 22.5491 22.7554 22.7554Z" fill="#01BC8C"/>
</svg>
