<svg width="35" height="35" viewBox="0 0 35 35" fill="none" xmlns="http://www.w3.org/2000/svg">
<path fill-rule="evenodd" clip-rule="evenodd" d="M18.699 30.9965H15.767C15.5414 30.9965 15.3364 30.8119 15.2954 30.6272L14.3728 26.8933C13.7577 26.6882 13.122 26.401 12.5069 26.0727L9.43144 28.0012C9.22641 28.1243 8.98036 28.0833 8.79583 27.9396L6.72499 25.8675C6.56097 25.7034 6.51996 25.4367 6.64298 25.2726L8.63181 21.9901C8.32426 21.3541 8.05771 20.7181 7.91419 20.1026L4.3671 19.2614C4.14157 19.2204 3.97754 19.0153 3.97754 18.7896V15.7943C3.97754 15.5686 4.14157 15.3634 4.3466 15.3224L8.05771 14.4402C8.26275 13.8248 8.52929 13.2093 8.89835 12.5528L6.95053 9.4754C6.84801 9.29076 6.86852 9.02405 7.01204 8.85992L9.08288 6.76731C9.26741 6.60318 9.51345 6.58267 9.67748 6.68525L12.958 8.67528C13.5526 8.36754 14.1677 8.14187 14.8853 7.97774L15.685 4.40799C15.7465 4.18232 15.931 4.01819 16.1771 4.01819H19.1295C19.3551 4.01819 19.5601 4.18232 19.6011 4.38747L20.5238 8.12135C21.1799 8.34703 21.795 8.59322 22.3896 8.9625L25.4651 7.03402C25.6701 6.91092 25.9162 6.95195 26.1007 7.09556L28.1715 9.16766C28.3356 9.33179 28.3766 9.59849 28.2535 9.76262L26.2647 13.0452C26.5723 13.5991 26.7978 14.2556 26.9823 14.9531L30.5294 15.7738C30.755 15.8353 30.919 16.0199 30.919 16.2456V19.2204C30.919 19.4461 30.755 19.6307 30.5499 19.6923L26.8388 20.595C26.6338 21.231 26.3467 21.8259 25.9777 22.4619L27.905 25.5188C28.028 25.7239 28.0075 25.9906 27.864 26.1548L25.7726 28.2269C25.6086 28.4115 25.3626 28.432 25.1575 28.3089L21.877 26.3189C21.2619 26.6471 20.6058 26.8933 19.9702 27.0369L19.15 30.5862C19.1295 30.8119 18.9245 30.9965 18.699 30.9965ZM16.136 29.9912H18.3094L19.0885 26.5241C19.15 26.3189 19.2936 26.1753 19.4576 26.1548C20.1957 25.9906 20.9543 25.7034 21.6925 25.3341C21.836 25.2521 22.0205 25.2521 22.164 25.3547L25.3626 27.2831L26.8593 25.765L24.973 22.7491C24.8705 22.5645 24.8705 22.3593 24.973 22.2362C25.4446 21.5182 25.7521 20.7796 25.9777 20.0616C26.0392 19.8974 26.1827 19.7538 26.3467 19.7333L29.9553 18.8511V16.6765L26.4903 15.8763C26.2852 15.8353 26.1417 15.6917 26.1212 15.5071C25.9572 14.6864 25.6701 13.9479 25.3011 13.3119C25.219 13.1477 25.219 12.9836 25.3011 12.8195L27.2284 9.61901L25.7316 8.12135L22.7381 9.98829C22.5741 10.1114 22.3691 10.1114 22.205 9.98829C21.5079 9.55746 20.8108 9.22921 20.0317 9.00353C19.8677 8.94199 19.7241 8.79838 19.7036 8.63425L18.822 5.02346H16.6486L15.89 8.49064C15.849 8.67528 15.685 8.81889 15.5209 8.85992C14.7213 9.02405 13.9832 9.31127 13.2861 9.68056C13.122 9.76262 12.958 9.76262 12.794 9.68056L9.59547 7.75207L8.09872 9.24972L9.96453 12.2656C10.0465 12.4297 10.0875 12.6348 9.96453 12.7784C9.51345 13.558 9.1649 14.2556 9.00087 14.9531C8.93936 15.1173 8.79583 15.2609 8.63181 15.2814L5.00271 16.1636V18.2972L8.48828 19.0973C8.69332 19.1589 8.83684 19.3025 8.85734 19.4666C9.02137 20.2052 9.28792 20.9437 9.67748 21.6823C9.78 21.8259 9.78 22.0311 9.65698 22.1747L7.72966 25.3547L9.22641 26.8728L12.2404 25.0469C12.4044 24.9238 12.6095 24.9238 12.753 25.0469C13.4706 25.4777 14.1677 25.7855 14.9468 26.0112C15.1109 26.0727 15.2544 26.2163 15.2954 26.3804L16.136 29.9912Z" fill="#01BC8C"/>
<path fill-rule="evenodd" clip-rule="evenodd" d="M17.5097 22.544C14.8238 22.544 12.6709 20.3694 12.6709 17.7228C12.6709 15.0558 14.8238 12.9016 17.5097 12.9016C20.1546 12.9016 22.3075 15.0558 22.3075 17.7228C22.3075 20.3694 20.1546 22.544 17.5097 22.544ZM17.5097 13.8864C15.3773 13.8864 13.6756 15.5892 13.6756 17.7228C13.6756 19.836 15.3978 21.5388 17.5097 21.5388C19.601 21.5388 21.3233 19.836 21.3233 17.7228C21.3233 15.5892 19.601 13.8864 17.5097 13.8864Z" fill="#01BC8C"/>
<path fill-rule="evenodd" clip-rule="evenodd" d="M17.5096 34.9971C12.4453 34.9971 7.64752 32.8019 4.34647 29.027C1.00442 25.211 -0.533334 20.1846 0.163781 15.1788C0.184285 14.8916 0.450829 14.7069 0.737876 14.7479C1.00442 14.7685 1.18895 15.0352 1.14794 15.3224C0.491836 20.041 1.94758 24.7802 5.08459 28.3705C8.20111 31.9607 12.7324 34.0123 17.5096 34.0123C21.2003 34.0123 24.7063 32.8019 27.5973 30.5657C27.8228 30.4015 28.1304 30.422 28.3149 30.6477C28.479 30.8734 28.4584 31.1811 28.2329 31.3658C25.1164 33.7456 21.4258 34.9971 17.5096 34.9971ZM34.1174 21.6208C34.0764 21.6208 34.0559 21.6208 34.0354 21.6208C33.7688 21.5797 33.5638 21.313 33.6253 21.0258C33.6458 20.8822 33.6868 20.7796 33.6868 20.6975C33.7483 20.3693 33.7688 20.2872 33.7893 19.8359C33.8303 19.5487 34.0764 19.3435 34.3429 19.3845C34.63 19.405 34.8145 19.6307 34.794 19.9179C34.7325 20.4308 34.712 20.5744 34.6505 20.8822C34.63 20.9848 34.63 21.0873 34.589 21.2309C34.5274 21.4566 34.3429 21.6208 34.1174 21.6208ZM34.4864 18.01C34.1994 18.01 33.9739 17.7843 33.9739 17.4971C33.9739 8.40856 26.5721 1.00235 17.4686 1.00235C13.409 1.00235 9.51332 2.47949 6.51983 5.18757C6.3353 5.3517 6.00725 5.3517 5.82271 5.14654C5.63818 4.9619 5.63818 4.63365 5.84322 4.449C9.06225 1.57679 13.1834 -0.00292969 17.5096 -0.00292969C27.1462 -0.00292969 34.999 7.85463 34.999 17.4971C34.999 17.7843 34.7735 18.01 34.4864 18.01Z" fill="#01BC8C"/>
<path fill-rule="evenodd" clip-rule="evenodd" d="M4.59264 9.39335C3.03438 9.39335 1.72217 8.12137 1.72217 6.52113C1.72217 4.96193 2.99338 3.66943 4.59264 3.66943C6.19191 3.66943 7.46311 4.96193 7.46311 6.52113C7.46311 8.12137 6.19191 9.39335 4.59264 9.39335ZM4.59264 4.67471C3.56747 4.67471 2.72683 5.49534 2.72683 6.52113C2.72683 7.54692 3.56747 8.40859 4.59264 8.40859C5.61781 8.40859 6.47895 7.54692 6.47895 6.52113C6.47895 5.49534 5.63831 4.67471 4.59264 4.67471Z" fill="#01BC8C"/>
<path fill-rule="evenodd" clip-rule="evenodd" d="M29.6473 32.248C28.0481 32.248 26.7769 30.9555 26.7769 29.3963C26.7769 27.796 28.0481 26.524 29.6473 26.524C31.2056 26.524 32.4973 27.796 32.4973 29.3963C32.5178 30.9555 31.2466 32.248 29.6473 32.248ZM29.6473 27.5293C28.6222 27.5293 27.761 28.3705 27.761 29.3963C27.761 30.4221 28.6222 31.2427 29.6473 31.2427C30.6725 31.2427 31.4926 30.4221 31.4926 29.3963C31.5131 28.35 30.6725 27.5293 29.6473 27.5293Z" fill="#01BC8C"/>
</svg>
