<svg width="35" height="35" viewBox="0 0 35 35" fill="none" xmlns="http://www.w3.org/2000/svg">
<path d="M33.4141 14.2215L29.5312 13.8359C29.2949 13.0586 28.9835 12.306 28.6016 11.5888L31.0723 8.56789C31.1582 8.463 31.2021 8.32995 31.1954 8.19454C31.1888 8.05913 31.132 7.93106 31.0362 7.83508L27.1677 3.9654C27.0717 3.86939 26.9436 3.81247 26.808 3.8057C26.6725 3.79893 26.5393 3.84279 26.4343 3.92876L23.4139 6.39844C22.6966 6.01678 21.9441 5.70544 21.1668 5.46875L20.7785 1.58594C20.765 1.45105 20.7018 1.326 20.6012 1.23506C20.5007 1.14411 20.3699 1.09376 20.2344 1.09376H14.7656C14.6296 1.09308 14.4981 1.14313 14.397 1.23414C14.2959 1.32515 14.2324 1.45058 14.2188 1.58594L13.8359 5.46875C13.0577 5.70528 12.3043 6.01661 11.5861 6.39844L8.5657 3.92876C8.4607 3.84279 8.32748 3.79893 8.19197 3.8057C8.0564 3.81247 7.92827 3.86939 7.83234 3.9654L3.96539 7.83235C3.86961 7.92832 3.81289 8.0564 3.80622 8.19181C3.79955 8.32721 3.84341 8.46027 3.9293 8.56516L6.39844 11.5861C6.01634 12.3041 5.70495 13.0576 5.46875 13.8359L1.58594 14.2242C1.45151 14.2377 1.32684 14.3005 1.23596 14.4005C1.14509 14.5004 1.09442 14.6305 1.09375 14.7656V20.2344C1.09375 20.3699 1.14411 20.5007 1.23505 20.6012C1.32599 20.7018 1.45105 20.765 1.58594 20.7785L5.46875 21.1668C5.70489 21.9442 6.01628 22.6968 6.39844 23.4139L3.9293 26.4348C3.84341 26.5397 3.79955 26.6728 3.80622 26.8082C3.81289 26.9436 3.86961 27.0717 3.96539 27.1677L7.83234 31.0346C7.92827 31.1306 8.0564 31.1876 8.19197 31.1943C8.32748 31.2011 8.4607 31.1572 8.5657 31.0713L11.2859 28.8455L10.5935 28L8.25781 29.9141L5.08922 26.7422L7.48125 23.8181C7.55136 23.7324 7.59385 23.6274 7.60298 23.517C7.61217 23.4067 7.58767 23.2962 7.53266 23.2001C7.04834 22.3562 6.67395 21.4539 6.41867 20.5149C6.38974 20.408 6.32904 20.3124 6.2446 20.2407C6.16011 20.169 6.05587 20.1246 5.94562 20.1135L2.1875 19.7422V15.2633L5.94562 14.8876C6.05587 14.8765 6.16011 14.8321 6.2446 14.7604C6.32904 14.6888 6.38974 14.5931 6.41867 14.4862C6.67412 13.5474 7.04851 12.645 7.53266 11.801C7.58767 11.7049 7.61217 11.5944 7.60298 11.484C7.59385 11.3737 7.55136 11.2687 7.48125 11.183L5.08922 8.25781L8.25781 5.08868L11.182 7.4818C11.2678 7.55174 11.3728 7.59402 11.4831 7.60299C11.5935 7.61201 11.7039 7.58729 11.7999 7.53211C12.6444 7.04856 13.5469 6.67423 14.4856 6.41813C14.5925 6.38914 14.688 6.32838 14.7596 6.24389C14.8311 6.15945 14.8754 6.05522 14.8865 5.94508L15.2605 2.18751H19.7422L20.1179 5.94508C20.129 6.05522 20.1732 6.15945 20.2448 6.24389C20.3164 6.32838 20.4119 6.38914 20.5188 6.41813C21.4575 6.67423 22.36 7.04856 23.2045 7.53211C23.3004 7.58729 23.4109 7.61201 23.5213 7.60299C23.6316 7.59402 23.7366 7.55174 23.8224 7.4818L26.7422 5.08868L29.9108 8.25781L27.5187 11.1803C27.4486 11.266 27.4061 11.371 27.397 11.4813C27.3878 11.5917 27.4123 11.7022 27.4673 11.7983C27.9515 12.6422 28.3259 13.5446 28.5813 14.4834C28.6103 14.5904 28.671 14.6861 28.7554 14.7577C28.8399 14.8294 28.9441 14.8737 29.0544 14.8848L32.8125 15.2605V19.7422L29.0544 20.1179C28.9441 20.129 28.8399 20.1733 28.7554 20.245C28.671 20.3167 28.6103 20.4123 28.5813 20.5193C28.326 21.4582 27.9517 22.3606 27.4673 23.2045C27.4123 23.3005 27.3878 23.4111 27.397 23.5214C27.4061 23.6318 27.4486 23.7367 27.5187 23.8224L29.9108 26.7422L26.7422 29.9141L24.4021 28L23.7092 28.8471L26.4327 31.0751C26.5377 31.1611 26.6709 31.2049 26.8064 31.1981C26.942 31.1914 27.0701 31.1345 27.166 31.0384L31.033 27.1715C31.1287 27.0756 31.1855 26.9474 31.1922 26.812C31.1988 26.6766 31.1549 26.5436 31.0691 26.4387L28.6016 23.4139C28.9837 22.6968 29.2951 21.9442 29.5312 21.1668L33.4141 20.7785C33.549 20.765 33.674 20.7018 33.7649 20.6012C33.8559 20.5007 33.9062 20.3699 33.9062 20.2344V14.7656C33.9062 14.6301 33.8559 14.4993 33.7649 14.3988C33.674 14.2982 33.549 14.235 33.4141 14.2215Z" fill="#01BC8C"/>
<path d="M18.0469 6.5625H16.9531V7.65625H18.0469V6.5625Z" fill="#01BC8C"/>
<path d="M10.1531 9.37939L9.37939 10.1525L10.1525 10.9262L10.9262 10.1531L10.1531 9.37939Z" fill="#01BC8C"/>
<path d="M7.65625 16.9531H6.5625V18.0469H7.65625V16.9531Z" fill="#01BC8C"/>
<path d="M10.1525 24.074L9.37939 24.8476L10.1531 25.6208L10.9262 24.8471L10.1525 24.074Z" fill="#01BC8C"/>
<path d="M24.8474 24.074L24.0737 24.8471L24.8468 25.6208L25.6205 24.8476L24.8474 24.074Z" fill="#01BC8C"/>
<path d="M28.4375 16.9531H27.3438V18.0469H28.4375V16.9531Z" fill="#01BC8C"/>
<path d="M24.8473 9.37939L24.0742 10.1531L24.8479 10.9262L25.621 10.1525L24.8473 9.37939Z" fill="#01BC8C"/>
<path d="M26.25 17.5001C26.2493 16.3165 26.0086 15.1453 25.5424 14.0574C25.0762 12.9695 24.3942 11.9874 23.5376 11.1706C22.6811 10.3537 21.6678 9.71914 20.559 9.30505C19.4501 8.89101 18.2689 8.70611 17.0866 8.76157C15.198 8.84967 13.3887 9.54748 11.93 10.7503C10.4714 11.9532 9.44177 13.5964 8.99557 15.4337C8.54938 17.271 8.71059 19.2034 9.45506 20.9413C10.1995 22.6793 11.4872 24.1292 13.125 25.0738V26.3507C12.8054 26.462 12.5283 26.6702 12.3322 26.9461C12.1361 27.222 12.0308 27.5522 12.0308 27.8907C12.0308 28.2292 12.1361 28.5594 12.3322 28.8353C12.5283 29.1112 12.8054 29.3194 13.125 29.4307V30.0782C13.1262 31.0932 13.5299 32.0662 14.2475 32.7838C14.9652 33.5015 15.9382 33.9052 16.9531 33.9063H18.0469C19.0618 33.9052 20.0348 33.5015 20.7525 32.7838C21.4702 32.0662 21.8739 31.0932 21.875 30.0782V29.4307C22.1947 29.3194 22.4718 29.1112 22.6679 28.8353C22.8639 28.5594 22.9693 28.2292 22.9693 27.8907C22.9693 27.5522 22.8639 27.222 22.6679 26.9461C22.4718 26.6702 22.1947 26.462 21.875 26.3507V25.0743C23.2061 24.3082 24.3115 23.2046 25.0797 21.8747C25.8478 20.5449 26.2515 19.0359 26.25 17.5001ZM9.8487 17.1829C9.93685 15.2746 10.7318 13.4673 12.079 12.1128C13.4261 10.7582 15.2291 9.95337 17.1369 9.85477C18.8764 9.77088 20.5924 10.2828 22.0017 11.3059C23.411 12.3291 24.4292 13.8022 24.8881 15.4822C25.347 17.1621 25.2192 18.9484 24.5258 20.5458C23.8325 22.1434 22.6149 23.4566 21.0744 24.2688C20.9862 24.315 20.9123 24.3843 20.8607 24.4694C20.809 24.5545 20.7815 24.6521 20.7813 24.7516V26.2501H14.2188V24.7516C14.2188 24.6522 14.1916 24.5546 14.1402 24.4694C14.0889 24.3842 14.0152 24.3146 13.9273 24.2682C12.6514 23.5886 11.5924 22.5638 10.8711 21.3109C10.1499 20.058 9.7956 18.6276 9.8487 17.1829ZM18.0469 32.8126H16.9531C16.2282 32.8117 15.5332 32.5233 15.0206 32.0108C14.508 31.4981 14.2196 30.8031 14.2188 30.0782V29.5313H20.7813V30.0782C20.7804 30.8031 20.492 31.4981 19.9794 32.0108C19.4668 32.5233 18.7718 32.8117 18.0469 32.8126ZM21.3281 28.4376H13.6719C13.5269 28.4376 13.3877 28.3799 13.2852 28.2774C13.1827 28.1749 13.125 28.0357 13.125 27.8907C13.125 27.7457 13.1827 27.6066 13.2852 27.504C13.3877 27.4015 13.5269 27.3438 13.6719 27.3438H21.3281C21.4732 27.3438 21.6123 27.4015 21.7148 27.504C21.8174 27.6066 21.875 27.7457 21.875 27.8907C21.875 28.0357 21.8174 28.1749 21.7148 28.2774C21.6123 28.3799 21.4732 28.4376 21.3281 28.4376Z" fill="#01BC8C"/>
<path d="M15.4002 19.5493L17.5002 17.685L19.5991 19.5498C19.6992 19.6388 19.8285 19.688 19.9625 19.688C20.0964 19.688 20.2257 19.6388 20.3259 19.5498L22.7868 17.3623L22.0605 16.542L19.9611 18.409L17.8616 16.5442C17.7616 16.4553 17.6324 16.4062 17.4985 16.4062C17.3647 16.4062 17.2355 16.4553 17.1354 16.5442L15.0392 18.409L12.9441 16.5447L12.2168 17.3618L14.6777 19.5493C14.7776 19.6371 14.906 19.6855 15.0389 19.6855C15.1719 19.6855 15.3003 19.6371 15.4002 19.5493Z" fill="#01BC8C"/>
</svg>
