<svg width="35" height="35" viewBox="0 0 35 35" fill="none" xmlns="http://www.w3.org/2000/svg">
<g clip-path="url(#clip0_1601_218)">
<path d="M34.1717 15.8623L33.0821 15.0684C32.1372 14.3912 33.1584 13.3109 33.5351 12.6338C33.6997 12.3607 33.7979 12.0527 33.8217 11.7348C33.8456 11.4168 33.7944 11.0977 33.6723 10.8031C33.5502 10.5085 33.3607 10.2467 33.1189 10.0388C32.8771 9.83087 32.5899 9.68265 32.2804 9.60605L30.9666 9.29472C30.7307 9.23749 30.5251 9.09366 30.3904 8.89179C30.2557 8.68992 30.2019 8.44478 30.2396 8.20506L30.4529 6.86944C30.5007 6.55413 30.4737 6.232 30.3741 5.92905C30.2745 5.62609 30.105 5.35079 29.8795 5.12536C29.6539 4.89994 29.3785 4.73069 29.0755 4.63129C28.7724 4.53189 28.4503 4.50512 28.135 4.55313L26.7994 4.76639C25.6428 4.94385 25.6163 3.47747 25.3984 2.72405C25.3209 2.41513 25.1721 2.12871 24.9637 1.88784C24.7554 1.64697 24.4934 1.45837 24.1988 1.33723C23.9043 1.21608 23.5854 1.16577 23.2679 1.19035C22.9504 1.21492 22.6431 1.3137 22.3707 1.47872L21.2188 2.187C21.0117 2.3125 20.7652 2.3559 20.5278 2.30865C20.2904 2.26139 20.0792 2.12691 19.9361 1.93171L19.1468 0.828033C18.9578 0.571232 18.711 0.362471 18.4264 0.218594C18.1418 0.0747182 17.8273 -0.000244141 17.5084 -0.000244141C17.1896 -0.000244141 16.8751 0.0747182 16.5905 0.218594C16.3059 0.362471 16.0591 0.571232 15.8701 0.828033L15.0762 1.9177C14.399 2.86103 13.3171 1.84142 12.6415 1.46471C12.3686 1.29973 12.0608 1.20121 11.7428 1.17711C11.4248 1.15301 11.1056 1.20399 10.8109 1.32594C10.5163 1.44789 10.2544 1.63741 10.0465 1.87918C9.83852 2.12096 9.69033 2.40823 9.61384 2.71782L9.3025 4.0332C9.2456 4.26921 9.10184 4.47511 8.89988 4.60985C8.69792 4.74458 8.45261 4.79825 8.21284 4.76016L6.87722 4.5469C6.56073 4.49748 6.23704 4.52349 5.9325 4.6228C5.62796 4.72212 5.35118 4.89194 5.12467 5.11845C4.89817 5.34495 4.72834 5.62174 4.62903 5.92628C4.52971 6.23082 4.5037 6.55451 4.55312 6.871L4.76639 8.20506C4.9454 9.36321 3.47747 9.38812 2.72405 9.60605C2.41513 9.68351 2.12871 9.83239 1.88784 10.0407C1.64697 10.2491 1.45837 10.5111 1.33723 10.8056C1.21608 11.1001 1.16577 11.419 1.19035 11.7365C1.21492 12.0541 1.31369 12.3614 1.47872 12.6338L2.18544 13.7857C2.31166 13.9925 2.35548 14.2392 2.30818 14.4769C2.26089 14.7145 2.12594 14.9257 1.93015 15.0684L0.840484 15.8623C0.583683 16.0514 0.374922 16.2981 0.231046 16.5827C0.0871693 16.8673 0.012207 17.1818 0.012207 17.5007C0.012207 17.8196 0.0871693 18.134 0.231046 18.4186C0.374922 18.7032 0.583683 18.95 0.840484 19.1391L1.93015 19.9314C2.87504 20.6085 1.85543 21.6904 1.47872 22.3676C1.31374 22.6405 1.21522 22.9483 1.19112 23.2663C1.16701 23.5843 1.21799 23.9035 1.33995 24.1982C1.4619 24.4928 1.65141 24.7547 1.89319 24.9626C2.13497 25.1706 2.42224 25.3188 2.73183 25.3953L4.04721 25.7066C4.28285 25.7642 4.4883 25.9081 4.62292 26.1099C4.75754 26.3116 4.81152 26.5566 4.77417 26.7963L4.56091 28.1319C4.51347 28.4463 4.54039 28.7675 4.63951 29.0696C4.73862 29.3717 4.90717 29.6464 5.13163 29.8716C5.35609 30.0969 5.63022 30.2663 5.93201 30.3665C6.2338 30.4666 6.55487 30.4946 6.86944 30.4482L8.20506 30.2349C9.36477 30.0606 9.38656 31.5207 9.60605 32.2757C9.68235 32.5855 9.83041 32.8729 10.0383 33.1149C10.2461 33.3568 10.508 33.5465 10.8027 33.6686C11.0973 33.7907 11.4166 33.8419 11.7347 33.8178C12.0528 33.7938 12.3607 33.6954 12.6338 33.5304L13.7857 32.8221C13.9926 32.6963 14.2392 32.6526 14.4768 32.6999C14.7143 32.7472 14.9254 32.8819 15.0684 33.0774L15.8623 34.1671C16.0513 34.4239 16.2981 34.6326 16.5827 34.7765C16.8673 34.9204 17.1818 34.9954 17.5007 34.9954C17.8196 34.9954 18.134 34.9204 18.4186 34.7765C18.7032 34.6326 18.95 34.4239 19.1391 34.1671L19.9314 33.0774C20.6101 32.1325 21.6904 33.1537 22.366 33.5304C22.639 33.6954 22.947 33.7938 23.2651 33.8178C23.5832 33.8419 23.9024 33.7907 24.1971 33.6686C24.4918 33.5465 24.7536 33.3568 24.9615 33.1149C25.1694 32.8729 25.3174 32.5855 25.3937 32.2757L25.7051 30.9619C25.7626 30.7263 25.9065 30.5208 26.1083 30.3862C26.3101 30.2516 26.555 30.1976 26.7947 30.2349L28.1303 30.4482C28.4456 30.4956 28.7677 30.4683 29.0705 30.3686C29.3733 30.2689 29.6486 30.0995 29.874 29.874C30.0995 29.6486 30.2689 29.3733 30.3686 29.0705C30.4683 28.7677 30.4956 28.4456 30.4482 28.1303L30.2349 26.7947C30.0559 25.6381 31.5223 25.6117 32.2757 25.3937C32.5853 25.3171 32.8725 25.1689 33.1142 24.961C33.356 24.7531 33.5456 24.4913 33.6676 24.1967C33.7897 23.9021 33.8409 23.583 33.817 23.265C33.7932 22.947 33.695 22.6391 33.5304 22.366L32.8221 21.2141C32.6962 21.0069 32.6525 20.7601 32.6998 20.5223C32.747 20.2845 32.8818 20.0731 33.0774 19.9298L34.1671 19.1375C34.4238 18.9488 34.6327 18.7023 34.7768 18.4181C34.9209 18.1339 34.9962 17.8197 34.9966 17.5011C34.9971 17.1824 34.9227 16.8681 34.7794 16.5834C34.6361 16.2988 34.428 16.0518 34.1717 15.8623ZM33.5491 18.2798L32.4594 19.0721C32.0478 19.3728 31.7642 19.8171 31.6647 20.3171C31.5652 20.817 31.6572 21.336 31.9224 21.7714L32.6306 22.9233C32.709 23.053 32.7557 23.1993 32.7671 23.3504C32.7785 23.5015 32.7542 23.6532 32.6962 23.7932C32.6381 23.9332 32.548 24.0576 32.4331 24.1563C32.3181 24.2551 32.1816 24.3254 32.0344 24.3617L30.7191 24.673C30.2241 24.7934 29.7924 25.0951 29.5093 25.5186C29.2262 25.9421 29.1124 26.4564 29.1904 26.9597C29.2138 27.489 29.687 28.7032 29.1344 29.1266C28.7063 29.6886 27.5201 29.2091 26.9675 29.1842C26.4641 29.1039 25.9489 29.2166 25.5249 29.4997C25.101 29.7828 24.7995 30.2155 24.6808 30.7113L24.3694 32.0267C24.3333 32.174 24.2629 32.3108 24.1641 32.4259C24.0652 32.5411 23.9406 32.6313 23.8004 32.6894C23.6602 32.7474 23.5083 32.7716 23.357 32.7601C23.2057 32.7485 23.0593 32.7015 22.9295 32.6229L21.7776 31.9146C21.3424 31.6499 20.8237 31.5582 20.3241 31.6576C19.8246 31.7571 19.3805 32.0404 19.0799 32.4516L18.2876 33.5413C18.1947 33.6589 18.0765 33.7539 17.9417 33.8192C17.8069 33.8846 17.659 33.9185 17.5092 33.9185C17.3594 33.9185 17.2116 33.8846 17.0768 33.8192C16.942 33.7539 16.8237 33.6589 16.7309 33.5413L15.937 32.4516C15.6361 32.0385 15.1909 31.7536 14.6897 31.6535C14.1885 31.5534 13.668 31.6455 13.2315 31.9115L12.0796 32.6198C11.9503 32.7 11.8038 32.7481 11.6522 32.7603C11.5006 32.7725 11.3483 32.7483 11.2079 32.6898C10.526 32.5077 10.5136 31.2281 10.3268 30.7082C10.2061 30.2132 9.90394 29.7816 9.48017 29.4988C9.05639 29.216 8.54188 29.1026 8.03849 29.1811L6.70443 29.3943C6.55449 29.417 6.40131 29.4042 6.25725 29.3568C6.11318 29.3094 5.98226 29.2289 5.87503 29.1216C5.76779 29.0144 5.68725 28.8835 5.63988 28.7394C5.59251 28.5954 5.57964 28.4422 5.60231 28.2922L5.81558 26.9566C5.89358 26.4533 5.77977 25.9389 5.49669 25.5155C5.21361 25.092 4.78188 24.7902 4.28693 24.6699C3.79036 24.4893 2.48743 24.4613 2.30686 23.7888C1.95194 23.1786 2.84858 22.2648 3.08519 21.7651C3.35027 21.3301 3.44218 20.8112 3.34271 20.3116C3.24323 19.8119 2.95964 19.3678 2.54814 19.0674L1.45848 18.2751C1.3368 18.1851 1.23792 18.0678 1.16979 17.9326C1.10166 17.7974 1.06617 17.6481 1.06617 17.4968C1.06617 17.3454 1.10166 17.1961 1.16979 17.061C1.23792 16.9258 1.3368 16.8085 1.45848 16.7184L2.54814 15.9245C2.9579 15.6238 3.24005 15.1804 3.3389 14.6819C3.43774 14.1833 3.34611 13.6658 3.08208 13.2315C2.85792 12.7521 1.95661 11.8118 2.30375 11.2079C2.48432 10.526 3.76545 10.5136 4.28382 10.3252C4.77989 10.2068 5.21295 9.90549 5.49638 9.4815C5.77981 9.05751 5.8927 8.54214 5.81246 8.03849C5.78911 7.50923 5.31589 6.29659 5.87006 5.87162C6.29814 5.31278 7.48432 5.78912 8.03538 5.81558C8.53894 5.89363 9.05345 5.77988 9.47717 5.49682C9.9009 5.21376 10.203 4.78201 10.3237 4.28694L10.635 2.97311C10.6715 2.82594 10.742 2.68939 10.8409 2.57445C10.9398 2.45952 11.0643 2.36942 11.2044 2.31142C11.3445 2.25341 11.4963 2.22912 11.6475 2.24049C11.7987 2.25187 11.9451 2.2986 12.0749 2.37691L13.2268 3.08364C13.6619 3.34851 14.1804 3.44047 14.68 3.34131C15.1795 3.24214 15.6237 2.95909 15.9245 2.54815C16.2826 2.15587 16.8056 0.963463 17.4968 1.05531C18.1973 0.96035 18.697 2.14497 19.069 2.54815C19.3696 2.95939 19.8138 3.24267 20.3134 3.34185C20.8131 3.44103 21.3318 3.34887 21.7667 3.08364C22.2477 2.85948 23.1864 1.95817 23.7904 2.30531C24.4737 2.48588 24.4846 3.76546 24.673 4.28538C24.7934 4.78033 25.0951 5.21206 25.5186 5.49514C25.9421 5.77822 26.4564 5.89202 26.9597 5.81402C27.489 5.79067 28.7032 5.31589 29.1266 5.87006C29.6886 6.2997 29.2091 7.48588 29.1826 8.03694C29.1024 8.54059 29.2153 9.05596 29.4987 9.47994C29.7822 9.90393 30.2152 10.2053 30.7113 10.3237L32.0267 10.635C32.1738 10.6713 32.3103 10.7416 32.4253 10.8403C32.5402 10.9391 32.6304 11.0635 32.6884 11.2035C32.7464 11.3434 32.7707 11.4951 32.7593 11.6462C32.7479 11.7973 32.7012 11.9436 32.6229 12.0734L31.9115 13.2315C31.6468 13.6667 31.555 14.1854 31.6545 14.685C31.754 15.1846 32.0373 15.6286 32.4485 15.9292L33.5382 16.7231C33.6608 16.8121 33.7608 16.9286 33.83 17.0634C33.8993 17.1981 33.936 17.3472 33.937 17.4987C33.9381 17.6502 33.9035 17.7998 33.8361 17.9355C33.7687 18.0711 33.6704 18.1891 33.5491 18.2798ZM29.3461 17.5014C28.7094 33.2128 6.28725 33.216 5.64901 17.5014C5.66642 15.3893 6.24536 13.3199 7.32643 11.5053C8.40751 9.69075 9.95181 8.19642 11.8009 7.17561C13.6501 6.15479 15.7375 5.64423 17.849 5.69629C19.9606 5.74835 22.0203 6.36117 23.8168 7.47187C23.9314 7.54886 24.0114 7.66742 24.04 7.80243C24.0686 7.93743 24.0435 8.07827 23.97 8.19508C23.8965 8.31188 23.7804 8.39548 23.6463 8.42815C23.5123 8.46081 23.3707 8.43998 23.2518 8.37006C21.6161 7.35974 19.7412 6.80249 17.8193 6.75544C15.8974 6.70839 13.9975 7.17323 12.3144 8.10231C10.6312 9.03139 9.22542 10.3913 8.24101 12.0427C7.25659 13.694 6.72896 15.5774 6.71222 17.4999C7.25393 31.7901 27.7458 31.7901 28.2876 17.4999C28.2876 17.3591 28.3435 17.2241 28.443 17.1245C28.5426 17.025 28.6776 16.9691 28.8184 16.9691C28.9592 16.9691 29.0942 17.025 29.1937 17.1245C29.2933 17.2241 29.3492 17.3591 29.3492 17.4999L29.3461 17.5014ZM11.5581 13.6487C11.4832 13.5765 11.3889 13.5278 11.2868 13.5085C11.1846 13.4892 11.079 13.5001 10.983 13.5399C10.8869 13.5798 10.8046 13.6468 10.7461 13.7327C10.6876 13.8187 10.6555 13.9199 10.6537 14.0239V19.3165C10.6538 19.4573 10.7098 19.5922 10.8094 19.6917L16.3122 25.1929C16.4117 25.2923 16.5466 25.3482 16.6873 25.3482C16.828 25.3482 16.9629 25.2923 17.0625 25.1929L27.0734 15.182C27.1726 15.0824 27.2286 14.9475 27.229 14.8069V9.51421C27.2294 9.40927 27.1985 9.30659 27.1404 9.21921C27.0823 9.13184 26.9995 9.06372 26.9026 9.02351C26.8056 8.9833 26.6989 8.97282 26.596 8.99339C26.4931 9.01397 26.3986 9.06467 26.3246 9.13905L16.6889 18.7748L11.5581 13.6487ZM26.1658 10.7938V14.5874L16.6858 24.0674L11.7138 19.097V15.3034L16.3106 19.9003C16.4101 19.9997 16.5451 20.0555 16.6858 20.0555C16.8264 20.0555 16.9614 19.9997 17.0609 19.9003L26.1658 10.7938Z" fill="#01BC8C"/>
</g>
<defs>
<clipPath id="clip0_1601_218">
<rect width="35" height="35.0016" fill="white"/>
</clipPath>
</defs>
</svg>
