<svg width="40" height="40" fill="none" xmlns="http://www.w3.org/2000/svg"><path d="M20 20.529a3.654 3.654 0 100-7.307 3.654 3.654 0 000 7.307zm0-6.058a2.404 2.404 0 110 4.809 2.404 2.404 0 010-4.809z" fill="#01BC8C"/><path d="M14.813 13.388a.625.625 0 00.076.791l.21.211c-.127.25-.235.51-.322.777h-.295a.624.624 0 00-.614.506 6.179 6.179 0 000 2.404.625.625 0 00.614.506h.295c.088.267.196.526.323.777l-.21.21a.625.625 0 00-.077.792 6.256 6.256 0 001.7 1.7.624.624 0 00.791-.076l.211-.21c.25.127.51.234.777.322v.296a.625.625 0 00.506.613c.794.157 1.61.157 2.404 0a.624.624 0 00.506-.614v-.295c.267-.088.526-.195.777-.323l.21.21a.625.625 0 00.792.077 6.256 6.256 0 001.7-1.7.625.625 0 00-.076-.791l-.21-.211c.127-.25.234-.51.322-.777h.296a.625.625 0 00.613-.506 6.179 6.179 0 000-2.404.625.625 0 00-.614-.506h-.295a5.51 5.51 0 00-.323-.777l.21-.21a.625.625 0 00.077-.792 6.255 6.255 0 00-1.7-1.7.625.625 0 00-.791.076l-.211.21a5.482 5.482 0 00-.777-.322v-.295a.625.625 0 00-.506-.614 6.206 6.206 0 00-2.404 0 .625.625 0 00-.506.614v.295a5.466 5.466 0 00-.777.323l-.21-.21a.626.626 0 00-.792-.077 6.255 6.255 0 00-1.7 1.7zm1.14 2.203a4.27 4.27 0 01.277-.666 1.172 1.172 0 00-.083-1.237c.2-.242.424-.465.666-.666a1.173 1.173 0 001.237.083 4.22 4.22 0 01.665-.276 1.172 1.172 0 00.814-.93c.313-.032.629-.032.942 0a1.171 1.171 0 00.813.93c.23.073.453.165.666.276a1.171 1.171 0 001.237-.083c.242.2.465.424.666.666a1.173 1.173 0 00-.084 1.237c.111.213.204.436.277.665a1.172 1.172 0 00.93.814 4.81 4.81 0 010 .942 1.171 1.171 0 00-.93.813c-.073.23-.165.453-.276.666a1.172 1.172 0 00.083 1.237 5.02 5.02 0 01-.666.666 1.173 1.173 0 00-1.237-.084 4.2 4.2 0 01-.665.277 1.173 1.173 0 00-.814.93 4.634 4.634 0 01-.942 0 1.172 1.172 0 00-.813-.93 4.207 4.207 0 01-.666-.276 1.171 1.171 0 00-1.237.083 5.02 5.02 0 01-.666-.666 1.173 1.173 0 00.084-1.237 4.212 4.212 0 01-.277-.665 1.172 1.172 0 00-.93-.814 4.81 4.81 0 010-.942 1.171 1.171 0 00.93-.813zM20 5.625a2.5 2.5 0 100-5 2.5 2.5 0 000 5zm0-3.75a1.25 1.25 0 110 2.5 1.25 1.25 0 010-2.5zM6.25 19.245a2.5 2.5 0 100-5 2.5 2.5 0 000 5zm0-3.75a1.25 1.25 0 110 2.499 1.25 1.25 0 010-2.5zm25 1.25a2.5 2.5 0 105 0 2.5 2.5 0 00-5 0zm3.75 0a1.25 1.25 0 11-2.5 0 1.25 1.25 0 012.5 0zm-2.37-3.45l1.204-.34a14.324 14.324 0 00-9.537-9.802l-.373 1.194a13.076 13.076 0 018.707 8.948zM16.42 4.244l-.34-1.203a14.46 14.46 0 00-9.914 9.914l1.203.34a13.2 13.2 0 019.05-9.051zm13.723 20.855l.965.794a14.259 14.259 0 002.726-5.205l-1.203-.34a13.01 13.01 0 01-2.488 4.75zM7.476 20.348l-1.203.34a14.254 14.254 0 002.84 5.34l.955-.805a13.005 13.005 0 01-2.592-4.875zm21.477 11.038a2.5 2.5 0 10-4.156 0c-.204.061-.4.148-.583.256a2.5 2.5 0 00-1.785-1.575 3.094 3.094 0 00.696-1.942 3.125 3.125 0 10-6.25 0c.003.708.249 1.393.696 1.942a2.5 2.5 0 00-1.785 1.575 2.618 2.618 0 00-.583-.256 2.5 2.5 0 10-4.156 0 2.264 2.264 0 00-1.672 2.097v4.642a.625.625 0 00.625.625h5.625a.624.624 0 00.625.625h7.5a.624.624 0 00.625-.625H30a.624.624 0 00.625-.625v-4.642a2.263 2.263 0 00-1.672-2.097zM13.125 28.75a1.25 1.25 0 110 2.5 1.25 1.25 0 010-2.5zm2.5 8.75h-5v-4.017a1.142 1.142 0 011.25-.983h2.5a1.142 1.142 0 011.25.983V37.5zM20 26.25a1.864 1.864 0 011.37.604 5.322 5.322 0 00-2.74 0A1.865 1.865 0 0120 26.25zm1.85 2.12a1.866 1.866 0 01-3.7 0 4.09 4.09 0 013.7 0zm-1.302 6.448l-.548.548-.548-.548L20 32.9l.548 1.918zm2.577 3.307h-6.25V32.5a1.25 1.25 0 011.25-1.25h1.046l-1.022 3.578a.625.625 0 00.16.614l1.25 1.25a.625.625 0 00.883 0l1.25-1.25a.625.625 0 00.159-.614l-1.022-3.578h1.046a1.25 1.25 0 011.25 1.25v5.625zm3.75-9.375a1.25 1.25 0 110 2.5 1.25 1.25 0 010-2.5zm2.5 8.75h-5v-4.017a1.142 1.142 0 011.25-.983h2.5a1.142 1.142 0 011.25.983V37.5z" fill="#01BC8C"/></svg>