<svg width="35" height="35" fill="none" xmlns="http://www.w3.org/2000/svg"><g clip-path="url(#clip0_1601_218)"><path d="M34.172 15.862l-1.09-.794c-.945-.677.076-1.757.453-2.434a2.036 2.036 0 00-1.255-3.028l-1.313-.311a.967.967 0 01-.727-1.09l.213-1.336a2.035 2.035 0 00-2.318-2.316l-1.336.213c-1.156.178-1.183-1.289-1.4-2.042a2.034 2.034 0 00-3.028-1.245l-1.152.708a.968.968 0 01-1.283-.255l-.79-1.104a2.034 2.034 0 00-3.276 0l-.794 1.09c-.677.943-1.759-.077-2.434-.453a2.034 2.034 0 00-3.028 1.253l-.312 1.315a.965.965 0 01-1.09.727l-1.335-.213A2.035 2.035 0 004.553 6.87l.213 1.334c.18 1.158-1.289 1.183-2.042 1.401a2.035 2.035 0 00-1.245 3.028l.706 1.152a.965.965 0 01-.255 1.282l-1.09.794a2.035 2.035 0 000 3.277l1.09.792c.945.677-.075 1.76-.451 2.437a2.034 2.034 0 001.253 3.027l1.315.312a.968.968 0 01.727 1.09l-.213 1.335a2.034 2.034 0 002.308 2.316l1.336-.213c1.16-.174 1.182 1.286 1.401 2.04a2.034 2.034 0 003.028 1.255l1.152-.708a.967.967 0 011.282.255l.794 1.09a2.034 2.034 0 003.277 0l.792-1.09c.68-.944 1.76.077 2.435.453a2.034 2.034 0 003.028-1.254l.311-1.314a.968.968 0 011.09-.727l1.335.213a2.038 2.038 0 002.318-2.318l-.213-1.335c-.18-1.157 1.287-1.183 2.04-1.401a2.035 2.035 0 001.255-3.028l-.708-1.152a.968.968 0 01.255-1.284l1.09-.793a2.035 2.035 0 00.005-3.275zm-.623 2.418l-1.09.792a2.033 2.033 0 00-.537 2.7l.709 1.151a.966.966 0 01-.597 1.439l-1.315.311a2.033 2.033 0 00-1.529 2.287c.024.529.497 1.743-.056 2.167-.428.562-1.614.082-2.166.057a2.024 2.024 0 00-2.287 1.527l-.312 1.316a.966.966 0 01-1.44.596l-1.151-.708a2.033 2.033 0 00-2.698.537l-.792 1.09a.992.992 0 01-1.557 0l-.794-1.09a2.037 2.037 0 00-2.705-.54l-1.152.708a.956.956 0 01-.872.07c-.682-.182-.694-1.462-.881-1.982a2.033 2.033 0 00-2.289-1.527l-1.334.213a.967.967 0 01-1.102-1.102l.214-1.335a2.033 2.033 0 00-1.53-2.287c-.496-.18-1.799-.209-1.98-.881-.354-.61.543-1.524.78-2.024a2.031 2.031 0 00-.538-2.698l-1.09-.792a.968.968 0 010-1.557l1.09-.793a2.031 2.031 0 00.534-2.694c-.224-.479-1.125-1.42-.778-2.023.18-.682 1.461-.694 1.98-.883a2.024 2.024 0 001.528-2.287c-.023-.529-.496-1.741.058-2.166.428-.56 1.614-.083 2.165-.056a2.035 2.035 0 002.289-1.53l.311-1.313a.969.969 0 011.44-.596l1.152.707a2.033 2.033 0 002.697-.536c.359-.392.882-1.585 1.573-1.493.7-.095 1.2 1.09 1.572 1.493a2.031 2.031 0 002.698.536c.48-.225 1.42-1.126 2.023-.779.684.18.695 1.46.883 1.98a2.033 2.033 0 002.287 1.529c.529-.023 1.743-.498 2.167.056.562.43.082 1.616.056 2.167a2.024 2.024 0 001.528 2.287l1.316.311a.968.968 0 01.596 1.438l-.711 1.159a2.033 2.033 0 00.537 2.697l1.09.794a.965.965 0 01.01 1.557zm-4.203-.779c-.637 15.712-23.059 15.715-23.697 0a11.907 11.907 0 0118.168-10.03.53.53 0 01-.565.9A10.843 10.843 0 006.712 17.5c.542 14.29 21.034 14.29 21.576 0a.531.531 0 011.061 0l-.003.001zM11.558 13.65a.534.534 0 00-.904.375v5.293c0 .14.056.275.155.375l5.503 5.5a.53.53 0 00.75 0l10.011-10.01a.53.53 0 00.156-.375V9.514a.53.53 0 00-.904-.375l-9.636 9.636-5.13-5.126zm14.608-2.855v3.793l-9.48 9.48-4.972-4.97v-3.794L16.31 19.9a.53.53 0 00.75 0l9.105-9.106z" fill="#01BC8C"/></g><defs><clipPath id="clip0_1601_218"><path fill="#fff" d="M0 0h35v35.002H0z"/></clipPath></defs></svg>