<svg width="35" height="35" fill="none" xmlns="http://www.w3.org/2000/svg"><path d="M17.5 7.11A10.39 10.39 0 1027.89 17.5 10.4 10.4 0 0017.5 7.11zm0 19.687a9.297 9.297 0 119.297-9.297 9.31 9.31 0 01-9.297 9.297z" fill="#01BC8C"/><path d="M33.36 14.766h-2.467a13.344 13.344 0 00-1.99-4.802l1.744-1.744a.576.576 0 00.159-.389.565.565 0 00-.16-.388l-3.089-3.09a.572.572 0 00-.776 0l-1.745 1.745a13.343 13.343 0 00-4.802-1.991V1.641a.547.547 0 00-.547-.547h-4.375a.547.547 0 00-.546.547v2.466a13.344 13.344 0 00-4.802 1.99L8.22 4.354a.551.551 0 00-.777 0l-3.09 3.09a.551.551 0 000 .777l1.745 1.744a13.344 13.344 0 00-1.991 4.802H1.641a.547.547 0 00-.547.546v4.376a.547.547 0 00.547.546h2.466a13.343 13.343 0 001.99 4.802L4.354 26.78a.551.551 0 000 .777l3.09 3.09a.551.551 0 00.777 0l1.744-1.745a13.344 13.344 0 004.802 1.991v2.466a.547.547 0 00.546.547h4.376a.547.547 0 00.546-.547v-2.466a13.343 13.343 0 004.802-1.99l1.744 1.744a.555.555 0 00.777 0l3.09-3.09a.565.565 0 00.159-.388.576.576 0 00-.16-.389l-1.744-1.744a13.343 13.343 0 001.991-4.802h2.466a.547.547 0 00.547-.547v-4.375a.547.547 0 00-.547-.546zm-.547 4.375h-2.374a.547.547 0 00-.541.454 12.289 12.289 0 01-2.15 5.19.547.547 0 00.055.705l1.684 1.679-2.318 2.319-1.68-1.685a.547.547 0 00-.705-.055 12.289 12.289 0 01-5.19 2.15.547.547 0 00-.453.541v2.373h-3.282V30.44a.547.547 0 00-.454-.541 12.289 12.289 0 01-5.19-2.15.547.547 0 00-.705.055l-1.679 1.684-2.319-2.318 1.685-1.68a.547.547 0 00.055-.705 12.289 12.289 0 01-2.15-5.19.547.547 0 00-.541-.453H2.188V15.86H4.56a.547.547 0 00.541-.454 12.289 12.289 0 012.15-5.19.546.546 0 00-.055-.705l-1.683-1.68L7.83 5.512l1.68 1.685a.547.547 0 00.705.055 12.289 12.289 0 015.19-2.15.547.547 0 00.453-.541V2.188h3.282V4.56a.547.547 0 00.454.541 12.289 12.289 0 015.19 2.15.546.546 0 00.705-.055l1.679-1.684 2.319 2.318-1.685 1.68a.547.547 0 00-.055.705 12.289 12.289 0 012.15 5.19.547.547 0 00.541.453h2.373v3.282z" fill="#01BC8C"/><path d="M20.207 17.112l.148-.148a3.289 3.289 0 003.91-4.37.547.547 0 00-.897-.19l-1.148 1.148-.58-.192-.192-.58 1.149-1.148a.547.547 0 00-.192-.897 3.288 3.288 0 00-4.37 3.91l-1.306 1.307-1.772-1.772a.56.56 0 00.126-.568l-.416-1.187a.56.56 0 00-.235-.29l-1.909-1.132a.546.546 0 00-.661.082l-.777.777a.547.547 0 00-.082.661l1.132 1.909a.56.56 0 00.29.235l1.187.416a.527.527 0 00.18.033.557.557 0 00.388-.165l1.772 1.772-1.307 1.313a3.288 3.288 0 00-3.91 4.37.538.538 0 00.664.328.551.551 0 00.233-.137l1.148-1.149.58.192.192.58-1.149 1.148a.547.547 0 00.191.897 3.288 3.288 0 004.37-3.91l.148-.148 3.32 3.32a2.189 2.189 0 103.095-3.096l-3.32-3.32zM13.65 13.94l-.678-.24-.81-1.368.17-.17 1.367.81.24.678-.29.29zm2.302 5.879a.561.561 0 00-.12.585 2.21 2.21 0 01-.492 2.351 2.184 2.184 0 01-1.411.635l.64-.635a.562.562 0 00.13-.563l-.387-1.16a.541.541 0 00-.345-.344l-1.16-.388a.55.55 0 00-.563.131l-.634.64a2.184 2.184 0 01.635-1.41 2.212 2.212 0 012.351-.493.561.561 0 00.585-.12L16.73 17.5l.77.771-1.547 1.548zm3.096-4.638a.561.561 0 00.12-.585 2.211 2.211 0 01.492-2.351 2.184 2.184 0 011.411-.635l-.64.635a.562.562 0 00-.131.563l.388 1.16a.542.542 0 00.345.344l1.16.388a.562.562 0 00.562-.131l.635-.64a2.183 2.183 0 01-1.738 2.004c-.417.087-.85.052-1.248-.101a.561.561 0 00-.585.12L18.27 17.5l-.771-.777 1.548-1.542zm3.707 7.574a1.127 1.127 0 01-1.547 0l-3.32-3.32.771-.776.777-.77 3.32 3.319a1.102 1.102 0 010 1.547z" fill="#01BC8C"/></svg>