<svg width="35" height="35" fill="none" xmlns="http://www.w3.org/2000/svg"><path fill-rule="evenodd" clip-rule="evenodd" d="M18.699 30.997h-2.932a.51.51 0 01-.472-.37l-.922-3.734a12.298 12.298 0 01-1.866-.82L9.43 28c-.205.123-.45.082-.635-.061l-2.071-2.073c-.164-.164-.205-.43-.082-.594l1.989-3.283c-.308-.636-.574-1.272-.718-1.887l-3.547-.842a.483.483 0 01-.39-.471v-2.996c0-.225.165-.43.37-.472l3.71-.882a10.7 10.7 0 01.841-1.887L6.951 9.475a.563.563 0 01.061-.615l2.07-2.093c.185-.164.431-.184.595-.082l3.281 1.99a7.945 7.945 0 011.927-.697l.8-3.57a.505.505 0 01.492-.39h2.953c.225 0 .43.164.471.37l.923 3.733c.656.226 1.271.472 1.866.841l3.075-1.928c.205-.123.451-.082.636.062l2.07 2.072c.165.164.206.43.082.595l-1.988 3.282c.307.554.533 1.21.717 1.908l3.547.82c.226.062.39.247.39.473v2.974c0 .226-.164.41-.37.472l-3.71.903c-.205.636-.492 1.23-.861 1.867l1.927 3.057a.554.554 0 01-.041.636l-2.091 2.072c-.164.184-.41.205-.616.082l-3.28-1.99a7.72 7.72 0 01-1.907.718l-.82 3.55a.464.464 0 01-.451.41zm-2.563-1.006h2.173l.78-3.467c.061-.205.205-.349.369-.37a9.847 9.847 0 002.235-.82.437.437 0 01.471.02l3.199 1.93 1.496-1.519-1.886-3.016c-.102-.184-.102-.39 0-.513a8.598 8.598 0 001.005-2.174c.061-.165.205-.308.369-.329l3.608-.882v-2.174l-3.465-.8c-.205-.042-.348-.185-.369-.37a7.172 7.172 0 00-.82-2.195.523.523 0 010-.492l1.927-3.201-1.496-1.498-2.994 1.867a.43.43 0 01-.533 0 8.64 8.64 0 00-2.173-.984c-.164-.062-.308-.206-.328-.37l-.882-3.61h-2.173L15.89 8.49a.517.517 0 01-.37.369 8.336 8.336 0 00-2.234.82.523.523 0 01-.492 0L9.595 7.753 8.1 9.25l1.866 3.016c.082.164.123.369 0 .512-.452.78-.8 1.478-.964 2.175-.062.164-.205.308-.37.328l-3.628.883v2.133l3.485.8c.205.062.349.205.37.37a8.77 8.77 0 00.82 2.215.401.401 0 01-.021.493l-1.927 3.18 1.496 1.518 3.014-1.826c.164-.123.37-.123.513 0 .718.43 1.415.738 2.194.964a.567.567 0 01.348.37l.841 3.61z" fill="#01BC8C"/><path fill-rule="evenodd" clip-rule="evenodd" d="M17.51 22.544a4.832 4.832 0 01-4.84-4.821 4.819 4.819 0 014.84-4.821c2.645 0 4.797 2.154 4.797 4.82 0 2.647-2.152 4.822-4.797 4.822zm0-8.658a3.816 3.816 0 00-3.834 3.837c0 2.113 1.722 3.816 3.834 3.816a3.82 3.82 0 003.813-3.816 3.825 3.825 0 00-3.813-3.837zm0 21.111a17.496 17.496 0 01-13.164-5.97C1.004 25.211-.534 20.185.164 15.179c.02-.287.287-.472.574-.431.266.02.45.287.41.574-.656 4.719.8 9.458 3.937 13.049a16.433 16.433 0 0012.425 5.641c3.69 0 7.196-1.21 10.087-3.446a.517.517 0 01.718.082.518.518 0 01-.082.718 17.489 17.489 0 01-10.723 3.631zm16.607-13.376h-.082a.502.502 0 01-.41-.595c.02-.144.062-.246.062-.328.061-.329.082-.41.102-.862.041-.287.287-.492.554-.451.287.02.471.246.451.533-.061.513-.082.656-.143.964-.021.103-.021.205-.062.349-.062.226-.246.39-.472.39zm.37-3.611a.508.508 0 01-.513-.513c0-9.088-7.402-16.495-16.505-16.495-4.06 0-7.956 1.477-10.95 4.186a.51.51 0 01-.696-.041.49.49 0 01.02-.698A17.462 17.462 0 0117.51-.003c9.636 0 17.489 7.858 17.489 17.5a.508.508 0 01-.513.513z" fill="#01BC8C"/><path fill-rule="evenodd" clip-rule="evenodd" d="M4.593 9.393a2.88 2.88 0 01-2.87-2.872 2.862 2.862 0 012.87-2.852 2.862 2.862 0 012.87 2.852c0 1.6-1.271 2.872-2.87 2.872zm0-4.718c-1.026 0-1.866.82-1.866 1.846 0 1.026.84 1.888 1.866 1.888A1.909 1.909 0 006.479 6.52c0-1.026-.84-1.846-1.886-1.846zm25.054 27.573a2.862 2.862 0 01-2.87-2.852c0-1.6 1.271-2.872 2.87-2.872a2.862 2.862 0 012.85 2.872c.02 1.56-1.25 2.852-2.85 2.852zm0-4.719c-1.025 0-1.886.841-1.886 1.867s.861 1.847 1.886 1.847c1.026 0 1.846-.82 1.846-1.847a1.83 1.83 0 00-1.846-1.867z" fill="#01BC8C"/></svg>