<svg width="35" height="35" fill="none" xmlns="http://www.w3.org/2000/svg"><path d="M33.414 14.222l-3.883-.386a12.544 12.544 0 00-.93-2.247l2.471-3.021a.547.547 0 00-.036-.733l-3.868-3.87a.547.547 0 00-.734-.036l-3.02 2.47a12.594 12.594 0 00-2.247-.93l-.389-3.883a.546.546 0 00-.544-.492h-5.468a.547.547 0 00-.547.492l-.383 3.883c-.778.236-1.532.548-2.25.93l-3.02-2.47a.547.547 0 00-.734.036L3.965 7.832a.547.547 0 00-.036.733l2.47 3.021a12.542 12.542 0 00-.93 2.25l-3.883.388a.547.547 0 00-.492.542v5.468a.547.547 0 00.492.544l3.883.389c.236.777.547 1.53.93 2.247l-2.47 3.02a.547.547 0 00.036.734l3.867 3.867a.547.547 0 00.734.036l2.72-2.226-.692-.845-2.336 1.914-3.169-3.172 2.392-2.924a.547.547 0 00.052-.618 11.406 11.406 0 01-1.114-2.685.547.547 0 00-.473-.402l-3.758-.37v-4.48l3.758-.375a.547.547 0 00.473-.402c.255-.939.63-1.841 1.114-2.685a.547.547 0 00-.052-.618L5.09 8.258l3.169-3.17 2.924 2.394a.547.547 0 00.618.05 11.493 11.493 0 012.686-1.114.547.547 0 00.4-.473l.375-3.757h4.481l.376 3.757a.547.547 0 00.4.473c.94.256 1.842.63 2.686 1.114a.546.546 0 00.618-.05l2.92-2.393 3.169 3.169-2.392 2.922a.547.547 0 00-.052.618c.485.844.859 1.747 1.114 2.685a.547.547 0 00.473.402l3.759.376v4.481l-3.759.376a.547.547 0 00-.473.401c-.255.94-.63 1.842-1.114 2.686a.546.546 0 00.052.617l2.392 2.92-3.169 3.172L24.402 28l-.693.847 2.724 2.228a.546.546 0 00.733-.037l3.867-3.866a.547.547 0 00.036-.733l-2.467-3.025c.382-.717.693-1.47.93-2.247l3.882-.389a.546.546 0 00.492-.544v-5.468a.547.547 0 00-.492-.544z" fill="#01BC8C"/><path d="M18.047 6.563h-1.094v1.093h1.094V6.563zM10.153 9.38l-.774.772.774.774.773-.773-.773-.774zm-2.497 7.573H6.563v1.094h1.093v-1.094zm2.496 7.121l-.773.774.774.773.773-.774-.774-.773zm14.695 0l-.773.773.773.774.773-.773-.773-.774zm3.591-7.121h-1.094v1.094h1.093v-1.094zM24.847 9.38l-.773.773.774.773.773-.774-.774-.773z" fill="#01BC8C"/><path d="M26.25 17.5a8.754 8.754 0 00-14.32-6.75 8.746 8.746 0 001.195 14.324v1.277a1.631 1.631 0 000 3.08v.647a3.833 3.833 0 003.828 3.828h1.094a3.832 3.832 0 003.828-3.828v-.647a1.63 1.63 0 000-3.08v-1.277A8.73 8.73 0 0026.25 17.5zm-16.401-.317a7.693 7.693 0 017.288-7.328 7.653 7.653 0 013.937 14.414.546.546 0 00-.293.483v1.498H14.22v-1.498a.546.546 0 00-.292-.484 7.708 7.708 0 01-4.078-7.085zm8.198 15.63h-1.094a2.738 2.738 0 01-2.734-2.735v-.547h6.562v.547a2.738 2.738 0 01-2.734 2.735zm3.281-4.375h-7.656a.547.547 0 010-1.094h7.656a.547.547 0 010 1.094z" fill="#01BC8C"/><path d="M15.4 19.55l2.1-1.865 2.1 1.865a.547.547 0 00.726 0l2.46-2.188-.726-.82-2.099 1.867-2.1-1.865a.546.546 0 00-.726 0L15.04 18.41l-2.095-1.864-.727.817 2.46 2.187a.547.547 0 00.723 0z" fill="#01BC8C"/></svg>