<svg width="40" height="40" viewBox="0 0 40 40" fill="none" xmlns="http://www.w3.org/2000/svg">
<path d="M17.317 20.1826L16.4326 21.067L19.2451 23.8795C19.3032 23.9376 19.3721 23.9837 19.448 24.0152C19.5238 24.0466 19.6052 24.0628 19.6873 24.0628C19.7694 24.0628 19.8508 24.0466 19.9266 24.0152C20.0025 23.9837 20.0714 23.9376 20.1295 23.8795L27.317 16.692L26.4326 15.8076L19.6873 22.5537L17.317 20.1826Z" fill="#01BC8C"/>
<path d="M34.9998 35.625C35.0034 36.62 34.6637 37.5857 34.0381 38.3594L35.0123 39.1406C35.8118 38.1432 36.2482 36.9034 36.2498 35.625V11.875H34.9998V35.625Z" fill="#01BC8C"/>
<path d="M35.625 1.25H9.375C8.5462 1.25 7.75134 1.57924 7.16529 2.16529C6.57924 2.75134 6.25 3.5462 6.25 4.375V33.125H1.875C1.70924 33.125 1.55027 33.1908 1.43306 33.3081C1.31585 33.4253 1.25 33.5842 1.25 33.75V35.625C1.25 36.4538 1.57924 37.2487 2.16529 37.8347C2.75134 38.4208 3.5462 38.75 4.375 38.75H30.625C31.4538 38.75 32.2487 38.4208 32.8347 37.8347C33.4208 37.2487 33.75 36.4538 33.75 35.625V7.5H38.125C38.2908 7.5 38.4497 7.43415 38.5669 7.31694C38.6842 7.19973 38.75 7.04076 38.75 6.875V4.375C38.75 3.5462 38.4208 2.75134 37.8347 2.16529C37.2487 1.57924 36.4538 1.25 35.625 1.25ZM2.5 35.625V34.375H27.5V35.625C27.4989 36.3013 27.7183 36.9596 28.125 37.5H4.375C3.87772 37.5 3.40081 37.3025 3.04917 36.9508C2.69754 36.5992 2.5 36.1223 2.5 35.625ZM32.5 4.375V35.625C32.5 36.1223 32.3025 36.5992 31.9508 36.9508C31.5992 37.3025 31.1223 37.5 30.625 37.5C30.1277 37.5 29.6508 37.3025 29.2992 36.9508C28.9475 36.5992 28.75 36.1223 28.75 35.625V33.75C28.75 33.5842 28.6842 33.4253 28.5669 33.3081C28.4497 33.1908 28.2908 33.125 28.125 33.125H7.5V4.375C7.5 3.87772 7.69754 3.40081 8.04917 3.04917C8.40081 2.69754 8.87772 2.5 9.375 2.5H33.125C32.7183 3.04042 32.4989 3.69867 32.5 4.375ZM37.5 6.25H33.75V4.375C33.75 3.87772 33.9475 3.40081 34.2992 3.04917C34.6508 2.69754 35.1277 2.5 35.625 2.5C36.1223 2.5 36.5992 2.69754 36.9508 3.04917C37.3025 3.40081 37.5 3.87772 37.5 4.375V6.25Z" fill="#01BC8C"/>
<path d="M30 6.25H15V7.5H30V6.25Z" fill="#01BC8C"/>
<path d="M30 10H9.375V11.25H30V10Z" fill="#01BC8C"/>
<path d="M30 13.75H9.375V15H30V13.75Z" fill="#01BC8C"/>
<path d="M30 17.5H27.5V18.75H30V17.5Z" fill="#01BC8C"/>
<path d="M13.125 17.5H9.375V18.75H13.125V17.5Z" fill="#01BC8C"/>
<path d="M30 21.25H26.875V22.5H30V21.25Z" fill="#01BC8C"/>
<path d="M13.125 21.25H9.375V22.5H13.125V21.25Z" fill="#01BC8C"/>
<path d="M30 25H26.875V26.25H30V25Z" fill="#01BC8C"/>
<path d="M13.125 25H9.375V26.25H13.125V25Z" fill="#01BC8C"/>
<path d="M30 28.75H9.375V30H30V28.75Z" fill="#01BC8C"/>
<path d="M14.375 16.875V26.875C14.375 27.0408 14.4408 27.1997 14.5581 27.3169C14.6753 27.4342 14.8342 27.5 15 27.5H25C25.1658 27.5 25.3247 27.4342 25.4419 27.3169C25.5592 27.1997 25.625 27.0408 25.625 26.875V20.625H24.375V26.25H15.625V17.5H23.125V16.25H15C14.8342 16.25 14.6753 16.3158 14.5581 16.4331C14.4408 16.5503 14.375 16.7092 14.375 16.875Z" fill="#01BC8C"/>
<path d="M36.25 8.75H35V10.625H36.25V8.75Z" fill="#01BC8C"/>
</svg>
