<svg width="50" height="40" viewBox="0 0 50 40" fill="none" xmlns="http://www.w3.org/2000/svg">
<path fill-rule="evenodd" clip-rule="evenodd" d="M39.6316 33.5357C37.2006 33.5357 35.209 31.5733 35.209 29.0838C35.209 26.6235 37.2006 24.6318 39.6316 24.6318C42.0626 24.6318 44.1128 26.6235 44.1128 29.0838C44.1128 31.5733 42.1212 33.5357 39.6316 33.5357ZM39.6316 26.0963C37.9914 26.0963 36.6441 27.4143 36.6441 29.113C36.6441 30.8411 37.9914 32.1591 39.6316 32.1591C41.3011 32.1591 42.6777 30.8411 42.6777 29.113C42.6777 27.4143 41.3011 26.0963 39.6316 26.0963Z" fill="#01BC8C"/>
<path fill-rule="evenodd" clip-rule="evenodd" d="M41.3891 39.3939H37.9037C37.4936 39.3939 37.1715 39.0717 37.1715 38.6616V36.9629C36.6735 36.7871 36.2342 36.5821 35.7949 36.3771L34.6233 37.5779C34.3304 37.8415 33.8911 37.8415 33.5982 37.5779L31.1086 35.147C30.9915 35.0005 30.9036 34.7955 30.9036 34.649C30.9036 34.4733 30.9915 34.2683 31.1086 34.1511L32.3095 32.9796C32.0459 32.5402 31.8994 32.0423 31.7237 31.603H30.0249C29.6149 31.603 29.2927 31.2808 29.2927 30.8708V27.3854C29.2927 26.9753 29.6149 26.6532 30.0249 26.6532H31.7823C31.8994 26.2138 32.1045 25.7159 32.3388 25.2766L31.1086 24.0464C30.9915 23.9293 30.9036 23.7243 30.9036 23.5778C30.9036 23.4021 30.9915 23.1971 31.1086 23.0799L33.5982 20.6489C33.8911 20.356 34.3304 20.356 34.6233 20.6489L35.8242 21.7912C36.2635 21.5276 36.7321 21.3226 37.2007 21.2054V19.5359C37.2007 19.1552 37.5229 18.833 37.933 18.833H41.4184C41.8284 18.833 42.1506 19.1552 42.1506 19.5359V21.264C42.6485 21.4104 43.0878 21.6155 43.5272 21.8205L44.728 20.6489C44.9916 20.356 45.4309 20.356 45.7238 20.6489L48.1548 23.0799C48.272 23.1971 48.3598 23.4021 48.3598 23.5778C48.3598 23.7243 48.272 23.9293 48.1548 24.0464L46.9833 25.218C47.2176 25.6866 47.4226 26.1552 47.5983 26.6239H49.2678C49.6778 26.6239 50 26.946 50 27.3561V30.8415C50 31.2515 49.6778 31.5737 49.2678 31.5737H47.5983C47.4226 32.0423 47.2176 32.5402 47.0418 32.9503L48.2134 34.1218C48.3305 34.239 48.4184 34.444 48.4184 34.6198C48.4184 34.7662 48.3305 34.9712 48.2134 35.0884L45.7824 37.5194C45.4895 37.8123 45.0502 37.8123 44.7573 37.5194L43.5857 36.3478C43.1757 36.5821 42.6778 36.7578 42.2092 36.9043V38.6323C42.1213 39.0717 41.7991 39.3939 41.3891 39.3939ZM38.6359 37.988H40.6861V36.465C40.6861 36.1428 40.8912 35.8499 41.2133 35.7913C42.0334 35.5863 42.6778 35.2934 43.2636 34.9419C43.5272 34.7369 43.9079 34.7662 44.1422 35.0005L45.2552 36.0549L46.6904 34.6198L45.6067 33.5361C45.3724 33.3018 45.3138 32.9503 45.5188 32.6574C45.9289 32.0423 46.2217 31.3687 46.3682 30.6657C46.4561 30.3436 46.7489 30.1093 47.0711 30.1093H48.5649V28.0297H47.0711C46.7489 28.0297 46.4561 27.7954 46.3682 27.4732C46.2217 26.7703 45.9289 26.126 45.5188 25.4816C45.3724 25.1887 45.4017 24.8372 45.6067 24.5736L46.6904 23.49L45.2552 22.0255L44.1422 23.0799C43.9079 23.3142 43.5272 23.3728 43.2928 23.1971C42.6778 22.8456 42.0041 22.5527 41.2719 22.3477C40.9497 22.2598 40.7447 21.9962 40.7447 21.674V20.151H38.6652V21.674C38.6652 21.9962 38.4602 22.2598 38.138 22.3477C37.4058 22.5234 36.7614 22.787 36.1171 23.1971C35.8242 23.3728 35.4727 23.3142 35.2677 23.0799L34.1547 21.9962L32.6902 23.4314L33.7446 24.5151C34.0082 24.7494 34.0375 25.0716 33.8911 25.3644C33.481 26.0381 33.1882 26.741 33.071 27.3854C32.9831 27.7076 32.6902 27.9419 32.3681 27.9419H30.845V30.0214H32.3681C32.6902 30.0214 32.9831 30.2557 33.071 30.5779C33.2174 31.2808 33.5103 31.9545 33.8911 32.5695C34.0375 32.8624 34.0082 33.2139 33.7446 33.4189L32.6902 34.4733L34.1547 35.9378L35.2677 34.8541C35.502 34.6198 35.8535 34.5612 36.1171 34.7369C36.7614 35.147 37.4058 35.4106 38.138 35.5863C38.4602 35.6742 38.6652 35.9378 38.6652 36.2599V37.988H38.6359Z" fill="#01BC8C"/>
<path fill-rule="evenodd" clip-rule="evenodd" d="M19.4222 31.7788C19.0122 31.7788 18.69 31.4273 18.69 31.0466C18.69 25.5695 20.0373 23.7829 21.2089 22.2013C22.1168 21.0005 22.7905 20.0632 22.7905 17.6322C22.7905 13.2682 19.2172 9.69492 14.8532 9.69492C10.4598 9.69492 6.88657 13.2682 6.88657 17.6322C6.88657 20.0632 7.5895 21.0005 8.46817 22.2013C9.63973 23.7829 10.987 25.5695 10.987 31.0466C10.987 31.4273 10.6648 31.7788 10.2548 31.7788C9.84475 31.7788 9.52257 31.4273 9.52257 31.0466C9.52257 26.0382 8.3803 24.5151 7.29661 23.0507C6.41794 21.8205 5.42212 20.5611 5.42212 17.6322C5.42212 12.4774 9.61044 8.25977 14.7946 8.25977C20.008 8.25977 24.167 12.4481 24.167 17.6322C24.167 20.5611 23.2591 21.8205 22.3218 23.0507C21.2089 24.5151 20.0959 26.0382 20.0959 31.0466C20.1545 31.4273 19.8323 31.7788 19.4222 31.7788Z" fill="#01BC8C"/>
<path fill-rule="evenodd" clip-rule="evenodd" d="M9.37627 19.6824C8.96622 19.6824 8.64404 19.3602 8.64404 18.9501C8.64404 14.8497 11.9537 11.5107 16.0541 11.5107C16.4642 11.5107 16.7864 11.8329 16.7864 12.243C16.7864 12.653 16.4642 12.9752 16.0541 12.9752C12.7445 12.9752 10.0499 15.6405 10.0499 18.9794C10.0499 19.3602 9.72773 19.6824 9.37627 19.6824Z" fill="#01BC8C"/>
<path fill-rule="evenodd" clip-rule="evenodd" d="M21.7948 8.72815C21.6777 8.72815 21.5312 8.66958 21.4141 8.64029C21.0919 8.43527 20.9747 8.02522 21.1505 7.67375L22.3513 5.53566C22.5563 5.21348 22.9664 5.09632 23.3179 5.27206C23.64 5.47708 23.7865 5.88713 23.6107 6.23859L22.3806 8.3474C22.2635 8.58171 22.0291 8.72815 21.7948 8.72815Z" fill="#01BC8C"/>
<path fill-rule="evenodd" clip-rule="evenodd" d="M26.891 13.8247C26.6567 13.8247 26.4224 13.7076 26.3052 13.4733C26.1002 13.1511 26.2174 12.6825 26.5688 12.4774L28.6776 11.2766C28.9998 11.0716 29.4684 11.1887 29.6735 11.5695C29.8492 11.8917 29.732 12.331 29.3806 12.536L27.2718 13.7369C27.1546 13.7954 27.0082 13.8247 26.891 13.8247Z" fill="#01BC8C"/>
<path fill-rule="evenodd" clip-rule="evenodd" d="M7.91167 8.72788C7.67736 8.72788 7.41376 8.58143 7.2966 8.34712L6.09576 6.23832C5.89073 5.91614 6.00789 5.47681 6.35936 5.27178C6.68154 5.06676 7.15016 5.18392 7.32589 5.53538L8.55603 7.67348C8.76105 7.99566 8.6439 8.43499 8.26314 8.64001C8.14598 8.72788 8.02883 8.72788 7.91167 8.72788Z" fill="#01BC8C"/>
<path fill-rule="evenodd" clip-rule="evenodd" d="M2.84479 13.8242C2.72763 13.8242 2.58119 13.7949 2.46403 13.7363L0.355226 12.5355C0.0330472 12.3305 -0.0841086 11.9204 0.0623362 11.5689C0.267359 11.2175 0.677404 11.1003 1.05816 11.2761L3.16697 12.4769C3.48914 12.6819 3.6063 13.092 3.43057 13.4727C3.31341 13.6777 3.0791 13.8242 2.84479 13.8242Z" fill="#01BC8C"/>
<path fill-rule="evenodd" clip-rule="evenodd" d="M20.8576 34.3271C20.4475 34.3271 20.1253 34.0049 20.1253 33.5948C20.1253 33.1848 20.4475 32.8626 20.8576 32.8626C21.1504 32.8626 21.3848 32.6283 21.3848 32.3061C21.3848 31.9547 21.1504 31.7789 20.8576 31.7789H8.84908C8.5269 31.7789 8.32188 32.0132 8.32188 32.3061C8.32188 32.6283 8.55619 32.8626 8.84908 32.8626C9.25912 32.8626 9.5813 33.1848 9.5813 33.5948C9.5813 34.0049 9.25912 34.3271 8.84908 34.3271C7.7361 34.3271 6.88672 33.4191 6.88672 32.3354C6.88672 31.2517 7.79468 30.373 8.84908 30.373H20.8576C21.9412 30.373 22.7906 31.281 22.7906 32.3354C22.8492 33.4191 21.9412 34.3271 20.8576 34.3271Z" fill="#01BC8C"/>
<path fill-rule="evenodd" clip-rule="evenodd" d="M20.8576 36.8749H8.84908C7.7361 36.8749 6.88672 35.9962 6.88672 34.8833C6.88672 33.7996 7.79468 32.9502 8.84908 32.9502H20.8576C21.9412 32.9502 22.7906 33.8289 22.7906 34.8833C22.8492 35.9377 21.9412 36.8749 20.8576 36.8749ZM8.84908 34.3268C8.5269 34.3268 8.32188 34.5611 8.32188 34.854C8.32188 35.1762 8.55619 35.4105 8.84908 35.4105H20.8576C21.1504 35.4105 21.3848 35.1762 21.3848 34.854C21.3848 34.5318 21.1504 34.3268 20.8576 34.3268H8.84908Z" fill="#01BC8C"/>
<path fill-rule="evenodd" clip-rule="evenodd" d="M15.7906 39.3935H13.9454C12.1588 39.3935 10.6943 37.929 10.6943 36.1424C10.6943 35.7323 11.0458 35.4102 11.4266 35.4102C11.8366 35.4102 12.1588 35.7323 12.1588 36.1424C12.1588 37.1675 12.9789 37.9876 14.004 37.9876H15.8199C16.845 37.9876 17.6358 37.1675 17.6358 36.1424C17.6358 35.7323 17.958 35.4102 18.368 35.4102C18.7781 35.4102 19.1003 35.7323 19.1003 36.1424C19.0124 37.929 17.5772 39.3935 15.7906 39.3935Z" fill="#01BC8C"/>
<path fill-rule="evenodd" clip-rule="evenodd" d="M14.8533 31.7789C14.4433 31.7789 14.1211 31.4275 14.1211 31.0467V23.8123C14.1211 23.578 14.2382 23.3144 14.4726 23.1973L17.3136 21.5864C17.6358 21.3813 18.1044 21.4985 18.3094 21.8207C18.4851 22.1429 18.368 22.5822 18.0458 22.7872L15.5855 24.2224V31.076C15.5855 31.4275 15.2634 31.7789 14.8533 31.7789Z" fill="#01BC8C"/>
<path fill-rule="evenodd" clip-rule="evenodd" d="M14.8532 24.5153C14.7361 24.5153 14.5896 24.4567 14.4725 24.4274L11.69 22.7872C11.3678 22.5822 11.2214 22.1429 11.4264 21.8207C11.6314 21.4985 12.1001 21.3813 12.4222 21.5864L15.2047 23.1973C15.5269 23.4023 15.644 23.8416 15.4683 24.1638C15.3218 24.3688 15.0875 24.5153 14.8532 24.5153Z" fill="#01BC8C"/>
<path fill-rule="evenodd" clip-rule="evenodd" d="M39.6318 15.1131C39.2217 15.1131 38.8995 14.7909 38.8995 14.4102V3.57325C38.8995 2.37241 37.933 1.40587 36.7614 1.40587H17.7236C16.5228 1.40587 15.5269 2.37241 15.5269 3.57325V9.05029C15.5269 9.43104 15.2048 9.78251 14.7947 9.78251C14.414 9.78251 14.0625 9.43104 14.0625 9.05029V3.57325C14.0625 1.5816 15.7027 0 17.6943 0H36.7321C38.6945 0 40.3054 1.5816 40.3054 3.57325V14.4395C40.364 14.7909 40.0418 15.1131 39.6318 15.1131Z" fill="#01BC8C"/>
<path fill-rule="evenodd" clip-rule="evenodd" d="M39.6317 15.1129C39.4852 15.1129 39.2802 15.0544 39.1631 14.9372L35.6777 11.4225C35.3848 11.1589 35.3848 10.6903 35.6777 10.4267C35.9413 10.1338 36.4099 10.1338 36.6735 10.4267L39.6317 13.3849L42.5899 10.4267C42.8828 10.1338 43.3221 10.1338 43.615 10.4267C43.9079 10.6903 43.9079 11.1589 43.615 11.4225L40.1296 14.9372C40.0124 15.0544 39.8367 15.1129 39.6317 15.1129Z" fill="#01BC8C"/>
</svg>
