<svg width="45" height="41" viewBox="0 0 45 41" fill="none" xmlns="http://www.w3.org/2000/svg">
<path fill-rule="evenodd" clip-rule="evenodd" d="M22.5028 22.5597C20.3006 22.5597 18.516 20.7752 18.516 18.5793C18.516 16.3771 20.3006 14.5926 22.5028 14.5926C24.6986 14.5926 26.4831 16.3771 26.4831 18.5793C26.4831 20.7752 24.6986 22.5597 22.5028 22.5597ZM22.5028 37.1586C17.5352 37.1586 12.8714 35.2222 9.35927 31.7165C6.03069 28.3879 4.12593 24.0152 3.93608 19.3387H0.765701C0.474608 19.3387 0.208828 19.1805 0.0822654 18.921C-0.0506249 18.6616 -0.0189843 18.3515 0.158203 18.1174L4.031 12.9789C4.17655 12.7891 4.39803 12.6752 4.6385 12.6752C4.87897 12.6752 5.10045 12.7828 5.246 12.9726L9.2074 18.111C9.38458 18.3389 9.41622 18.6553 9.28966 18.9147C9.15677 19.1742 8.89099 19.3387 8.5999 19.3387H5.46748C5.86616 28.3879 13.3523 35.6272 22.5028 35.6272C27.9892 35.6272 33.1783 32.9568 36.3803 28.4828C36.6271 28.1411 37.1017 28.0652 37.4434 28.3056C37.7915 28.5524 37.8674 29.0334 37.6206 29.3751C35.9373 31.7291 33.6972 33.6845 31.1343 35.0324C28.4955 36.4246 25.5086 37.1586 22.5028 37.1586ZM4.67647 17.8136H4.6828H4.68913H7.04951L4.65116 14.7002L2.2971 17.8136H4.67647ZM39.5317 17.8136C39.133 8.76443 31.6469 1.52507 22.5028 1.52507C17.01 1.52507 11.8209 4.19554 8.61888 8.66951C8.37209 9.01122 7.89748 9.09349 7.55576 8.84669C7.20771 8.5999 7.13178 8.12529 7.37857 7.78357C9.06185 5.42319 11.302 3.4678 13.8649 2.11992C16.5037 0.73406 19.4906 0 22.5028 0C27.464 0 32.1278 1.93007 35.6399 5.44217C38.9685 8.77076 40.8796 13.1372 41.0631 17.8136H44.2335C44.5246 17.8136 44.7903 17.9782 44.9232 18.2376C45.0498 18.5034 45.0182 18.8135 44.841 19.0413L40.8796 24.186C40.734 24.3695 40.5125 24.4834 40.2721 24.4834C40.0316 24.4771 39.8101 24.3695 39.6646 24.1797L35.7854 19.0349C35.6146 18.8071 35.5829 18.4971 35.7158 18.2376C35.8424 17.9782 36.1082 17.8136 36.3993 17.8136H39.5317ZM37.9307 19.3387L40.2784 22.4585L42.6831 19.3387H40.3164H37.9307ZM11.4729 41.0061H0.765701C0.341718 41.0061 0 40.6644 0 40.2404C0 39.8165 0.341718 39.4747 0.765701 39.4747H11.4729C11.8968 39.4747 12.2386 39.8165 12.2386 40.2404C12.2386 40.6644 11.8968 41.0061 11.4729 41.0061ZM11.4729 38.2344H0.765701C0.341718 38.2344 0 37.8927 0 37.4687C0 37.0447 0.341718 36.703 0.765701 36.703H11.4729C11.8968 36.703 12.2386 37.0447 12.2386 37.4687C12.2386 37.8927 11.8968 38.2344 11.4729 38.2344ZM7.66334 35.4627H0.765701C0.341718 35.4627 0 35.1147 0 34.697C0 34.273 0.341718 33.9313 0.765701 33.9313H7.66334C8.08732 33.9313 8.42904 34.273 8.42904 34.697C8.42904 35.1147 8.08732 35.4627 7.66334 35.4627ZM24.7619 33.3808H20.2373C19.8703 33.3808 19.5539 33.1213 19.4842 32.7606L18.7249 28.8182C17.5542 28.3879 16.4784 27.7677 15.5165 26.9641L11.726 28.2803C11.3779 28.4005 10.9983 28.255 10.8147 27.9386L8.54927 24.0152C8.36576 23.6988 8.43537 23.3001 8.7138 23.0596L11.745 20.4271C11.6437 19.8196 11.5868 19.1995 11.5868 18.5793C11.5868 17.9592 11.6437 17.3327 11.745 16.7252L8.7138 14.099C8.43537 13.8586 8.36576 13.4536 8.54927 13.1372L10.8147 9.21372C10.9983 8.89732 11.3779 8.7581 11.726 8.87833L15.5165 10.1883C16.4784 9.39091 17.5542 8.76443 18.7249 8.33412L19.4842 4.39803C19.5539 4.03733 19.8703 3.77788 20.2373 3.77788H24.7619C25.1289 3.77788 25.4453 4.03733 25.5149 4.39803L26.2743 8.33412C27.445 8.76443 28.5208 9.39091 29.4827 10.1883L33.2732 8.87833C33.6212 8.7581 34.0009 8.89732 34.1844 9.21372L36.4499 13.1372C36.6334 13.4536 36.5638 13.8586 36.2917 14.099L33.2542 16.7252C33.3618 17.339 33.4124 17.9592 33.4124 18.5793C33.4124 19.1995 33.3618 19.8196 33.2542 20.4271L36.2917 23.0596C36.5638 23.3001 36.6334 23.6988 36.4499 24.0152L34.1844 27.9386C34.0009 28.255 33.6212 28.4005 33.2732 28.2803L29.4827 26.9641C28.5208 27.7677 27.445 28.3879 26.2743 28.8182L25.5149 32.7606C25.4453 33.1213 25.1289 33.3808 24.7619 33.3808ZM20.8638 31.8494H24.1354L24.8568 28.0968C24.9074 27.8247 25.1036 27.5969 25.3694 27.5146C26.6477 27.1033 27.7994 26.4388 28.7992 25.5339C29.008 25.3441 29.2991 25.2871 29.5649 25.3757L33.1783 26.6287L34.8109 23.8L31.919 21.2941C31.7101 21.1169 31.6152 20.8321 31.6722 20.56C31.8114 19.9082 31.881 19.2438 31.881 18.5793C31.881 17.9149 31.8114 17.2441 31.6722 16.5986C31.6152 16.3265 31.7101 16.0418 31.919 15.8582L34.8109 13.3586L33.1783 10.5236L29.5649 11.7766C29.2991 11.8715 29.008 11.8082 28.7992 11.6247C27.7994 10.7198 26.6477 10.049 25.3694 9.64404C25.1036 9.55544 24.9074 9.33396 24.8568 9.05552L24.1354 5.30295H20.8638L20.1424 9.05552C20.0917 9.33396 19.8956 9.55544 19.6298 9.64404C18.3515 10.049 17.1998 10.7198 16.2 11.6247C15.9911 11.8082 15.7 11.8715 15.4343 11.7766L11.8209 10.5236L10.1883 13.3586L13.0802 15.8582C13.289 16.0418 13.3839 16.3265 13.327 16.5986C13.1878 17.2441 13.1182 17.9085 13.1182 18.5793C13.1182 19.2438 13.1878 19.9082 13.327 20.56C13.3839 20.8321 13.289 21.1169 13.0802 21.2941L10.1883 23.8L11.8209 26.6287L15.4343 25.3757C15.7 25.2871 15.9911 25.3441 16.2 25.5339C17.1998 26.4388 18.3515 27.1033 19.6298 27.5146C19.8956 27.5969 20.0917 27.8247 20.1424 28.0968L20.8638 31.8494ZM22.5028 26.3186C18.2313 26.3186 14.7635 22.8445 14.7635 18.5793C14.7635 14.3079 18.2313 10.84 22.5028 10.84C26.7679 10.84 30.2357 14.3079 30.2357 18.5793C30.2357 22.8445 26.7679 26.3186 22.5028 26.3186ZM22.5028 12.3651C19.0729 12.3651 16.2885 15.1558 16.2885 18.5793C16.2885 22.0028 19.0729 24.7872 22.5028 24.7872C25.9263 24.7872 28.7106 22.0028 28.7106 18.5793C28.7106 15.1558 25.9263 12.3651 22.5028 12.3651ZM22.5028 16.124C21.1485 16.124 20.0411 17.2251 20.0411 18.5793C20.0411 19.9335 21.1422 21.0346 22.5028 21.0346C23.857 21.0346 24.9581 19.9335 24.9581 18.5793C24.9581 17.2251 23.857 16.124 22.5028 16.124Z" fill="#01BC8C"/>
</svg>
