<svg width="40" height="38" viewBox="0 0 40 38" fill="none" xmlns="http://www.w3.org/2000/svg">
<path fill-rule="evenodd" clip-rule="evenodd" d="M38.1488 12.726C37.3287 12.726 36.6491 12.2105 36.3913 11.4841H30.041V12.0934H33.017C33.3451 12.0934 33.6262 12.3511 33.6262 12.7026V18.1625C34.2589 18.4437 34.6807 19.0998 34.6807 19.8262C34.6807 20.8573 33.8606 21.6774 32.8295 21.6774C31.8219 21.6774 30.9783 20.8573 30.9783 19.8262C30.9783 18.9592 31.5876 18.2093 32.4077 18.0219V13.3119H29.4786L27.4868 13.5228C27.2291 14.1554 26.8776 14.7413 26.4558 15.2802L27.2759 17.1549C27.3931 17.4361 27.2994 17.7641 27.0182 17.9281L23.8547 19.7559C23.597 19.8965 23.2455 19.8262 23.058 19.5919L21.8629 17.9516C21.2302 18.0453 20.5741 18.0453 19.9414 17.9516C18.7463 19.5216 17.5513 21.8649 17.5513 28.1449C17.5513 28.8713 16.6608 28.7542 16.1453 28.7542C16.1453 29.5977 16.239 32.2457 16.075 33.1127C15.7001 35.3622 13.7317 37.0963 11.3415 37.0963C8.67018 37.0963 6.56122 34.8467 6.56122 32.2925V28.7542C6.04569 28.7542 5.15524 28.8713 5.15524 28.1449C5.15524 15.2802 0 18.842 0 11.4372C0 2.25152 10.3105 -3.02088 17.7387 2.04063C18.0199 1.8766 18.3948 1.85316 18.6057 2.15779L19.8243 3.7981C20.4804 3.70436 21.1834 3.70436 21.8629 3.7981L23.058 2.15779C23.2455 1.90003 23.597 1.82973 23.8547 1.99376L27.0182 3.82153C27.2994 3.96213 27.3931 4.29019 27.2759 4.57138L26.4558 6.44602C26.8776 6.98497 27.2291 7.5708 27.4868 8.22692L29.4552 8.43781H32.5718V3.63407C31.8453 3.39974 31.3298 2.69675 31.3298 1.90003C31.3298 0.86898 32.15 0.0488281 33.181 0.0488281C34.1886 0.0488281 35.0322 0.86898 35.0322 1.90003C35.0322 2.69675 34.4933 3.39974 33.7903 3.63407V9.04707C33.7903 9.37513 33.5091 9.65633 33.181 9.65633H30.041V10.2656H36.3913C36.6491 9.53916 37.3287 9.02364 38.1488 9.02364C39.1564 9.02364 40 9.84379 40 10.8748C40 11.8825 39.1564 12.726 38.1488 12.726ZM16.9186 19.217C16.5436 19.0061 14.7159 18.0219 14.505 17.811C14.3644 17.647 14.2941 17.3892 14.4112 17.1549L15.2314 15.2802C14.8096 14.7413 14.4581 14.1554 14.2004 13.5228L12.1851 13.2884C11.8805 13.265 11.6462 13.0072 11.6462 12.7026V9.04707C11.6462 8.74244 11.8805 8.48468 12.1851 8.43781L14.2004 8.22692L14.7627 7.10214C14.8096 6.91467 15.1142 6.58661 15.2314 6.44602L14.4112 4.57138C14.2707 4.29019 14.3878 3.96213 14.6456 3.82153L16.5436 2.72018C9.91213 -1.23998 1.21851 3.49347 1.21851 11.4372C1.21851 17.9516 6.20973 15.1162 6.37376 27.5356H16.3327C16.3796 23.6692 16.8951 21.2791 17.5747 19.6153L16.9186 19.217ZM17.9496 3.306L15.7235 4.59482C15.8875 4.96974 16.5671 6.28199 16.5202 6.61005C16.4968 7.00841 15.6766 7.61766 15.208 8.97677C15.1377 9.18767 14.9268 9.3517 14.7159 9.37513L12.8412 9.58603V12.1636L14.7159 12.3511C15.4189 12.4448 15.1611 13.4056 16.3796 14.7881C16.5436 14.9756 16.5671 15.2334 16.4733 15.4443L15.7235 17.1549L17.9496 18.4202L19.051 16.9205C19.4728 16.3581 20.1523 17.0377 22.0035 16.6862C22.2378 16.6393 22.4722 16.7331 22.6128 16.9205L23.7141 18.4202L25.9402 17.1549L25.1904 15.4443C24.9092 14.7881 25.8699 14.5069 26.4558 12.7729C26.5495 12.5386 26.737 12.3745 26.9713 12.3511L28.8225 12.1636V9.58603L26.9713 9.37513C26.2683 9.30483 26.5026 8.32065 25.2841 6.93811C25.1435 6.77408 25.0967 6.51631 25.1904 6.30542L25.9402 4.59482L23.7141 3.306L22.6128 4.80571C22.191 5.39153 21.4646 4.68855 19.6602 5.04004C19.4259 5.08691 19.1916 4.99318 19.051 4.80571L17.9496 3.306ZM4.10076 12.0465C3.7727 12.0465 3.49151 11.7653 3.49151 11.4372C3.49151 7.19587 6.81898 3.7278 11.0603 3.5872C11.8336 3.56377 11.8805 4.75885 11.1072 4.78228C7.52197 4.92288 4.71002 7.85199 4.71002 11.4372C4.71002 11.7653 4.42882 12.0465 4.10076 12.0465ZM7.7563 28.7542V30.1367H14.9502V28.7542H7.7563ZM7.77973 32.5737L7.8969 33.2767H14.8096C14.9971 32.644 14.9502 32.0113 14.9502 31.3552H7.7563V32.2925L7.77973 32.5737ZM8.50615 34.4952C9.16227 35.3388 10.1933 35.8778 11.3415 35.8778C12.5132 35.8778 13.5442 35.3388 14.2004 34.4952H8.50615ZM20.8319 15.4911C18.3011 15.4911 16.2156 13.4056 16.2156 10.8748C16.2156 8.32065 18.3011 6.25855 20.8319 6.25855C23.3861 6.25855 25.4482 8.32065 25.4482 10.8748C25.4482 13.4056 23.3861 15.4911 20.8319 15.4911ZM20.8319 7.47707C18.9572 7.47707 17.4341 9.00021 17.4341 10.8748C17.4341 12.7495 18.9572 14.2726 20.8319 14.2726C22.7065 14.2726 24.2296 12.7495 24.2296 10.8748C24.2296 9.00021 22.7065 7.47707 20.8319 7.47707ZM33.181 1.24391C32.8295 1.24391 32.5249 1.54854 32.5249 1.90003C32.5249 2.25152 32.8061 2.53272 33.1576 2.53272H33.181C33.5325 2.53272 33.8137 2.25152 33.8137 1.90003C33.8137 1.54854 33.5325 1.24391 33.181 1.24391ZM32.8295 19.1935C32.478 19.1935 32.1968 19.4747 32.1968 19.8262C32.1968 20.1777 32.478 20.4823 32.8295 20.4823C33.181 20.4823 33.4856 20.1777 33.4856 19.8262C33.4856 19.4747 33.181 19.1935 32.8295 19.1935ZM37.4927 10.8514V10.8748C37.5161 11.2263 37.7973 11.5075 38.1488 11.5075C38.5003 11.5075 38.7815 11.2263 38.7815 10.8748C38.7815 10.5233 38.5003 10.2187 38.1488 10.2187C37.7973 10.2187 37.5161 10.4999 37.4927 10.8514Z" fill="#01BC8C"/>
</svg>
