<svg width="45" height="38" viewBox="0 0 45 38" fill="none" xmlns="http://www.w3.org/2000/svg">
<path fill-rule="evenodd" clip-rule="evenodd" d="M19.465 21.4398C19.2309 21.4398 19.0094 21.3323 18.8575 21.1361L17.2501 19.0478C17.0413 18.7757 17.0413 18.3897 17.2501 18.1176L18.8575 16.0293C19.1106 15.6939 19.5916 15.6306 19.927 15.8837C20.2623 16.1432 20.3256 16.6241 20.0662 16.9595L18.8195 18.5858L20.0662 20.2059C20.3256 20.5413 20.2623 21.0222 19.927 21.2816C19.7877 21.3892 19.6232 21.4398 19.465 21.4398ZM22.5025 37.1654C17.5349 37.1654 12.871 35.2289 9.3589 31.7231C6.03028 28.3945 4.1255 24.0217 3.93566 19.3452H0.765241C0.474145 19.3452 0.208361 19.1807 0.0817979 18.9212C-0.0510937 18.6618 -0.0194529 18.3517 0.157736 18.1239L4.03058 12.9854C4.17613 12.7956 4.39761 12.6817 4.63808 12.6817C4.87855 12.6817 5.10004 12.7892 5.24559 12.9791L9.20702 18.1176C9.38421 18.3454 9.41585 18.6618 9.28929 18.9212C9.1564 19.1807 8.89062 19.3452 8.59952 19.3452H5.46707C5.86575 28.3945 13.352 35.6339 22.5025 35.6339C27.989 35.6339 33.1781 32.9635 36.3802 28.4894C36.627 28.1477 37.1016 28.0654 37.4433 28.3122C37.7914 28.559 37.8673 29.0337 37.6205 29.3817C35.9372 31.7358 33.6971 33.6912 31.1341 35.0391C28.4953 36.4313 25.5084 37.1654 22.5025 37.1654ZM39.5316 17.8201C39.133 8.77085 31.6467 1.53142 22.5025 1.53142C17.0097 1.53142 11.8206 4.20191 8.6185 8.67593C8.37171 9.01765 7.89709 9.09991 7.55537 8.85311C7.20732 8.60632 7.13138 8.1317 7.37818 7.78365C9.06148 5.42957 11.3017 3.47417 13.8646 2.12627C16.5034 0.740396 19.4903 0 22.5025 0C27.4638 0 32.1277 1.93642 35.6398 5.44223C38.9684 8.77085 40.8795 13.1436 41.063 17.8201H44.2335C44.5246 17.8201 44.7903 17.9847 44.9232 18.2441C45.0498 18.5099 45.0182 18.82 44.841 19.0478L40.8795 24.1863C40.734 24.3761 40.5125 24.4837 40.272 24.4837C40.0316 24.4837 39.8101 24.3698 39.6645 24.1799L35.7854 19.0415C35.6145 18.8137 35.5829 18.5036 35.7157 18.2441C35.8423 17.9847 36.1081 17.8201 36.3992 17.8201H39.5316ZM2.29666 17.8201H4.68238H7.04912L4.65074 14.7067L2.29666 17.8201ZM37.9306 19.3452L40.2784 22.465L42.6831 19.3452H40.3163H37.9306ZM24.7617 33.3874H20.237C19.87 33.3874 19.5536 33.1217 19.484 32.7673L18.7246 28.8248C17.5539 28.3945 16.4781 27.7744 15.5162 26.9707L11.7256 28.2869C11.3776 28.4072 10.9979 28.2616 10.8144 27.9452L8.54889 24.0217C8.36538 23.7053 8.43499 23.3003 8.71343 23.0599L11.7446 20.4337C11.6434 19.8262 11.5864 19.206 11.5864 18.5858C11.5864 17.9594 11.6434 17.3392 11.7446 16.7317L8.71343 14.1055C8.43499 13.865 8.36538 13.46 8.54889 13.1436L10.8144 9.22015C10.9979 8.90374 11.3776 8.75819 11.7256 8.87843L15.5225 10.1947C16.4781 9.39101 17.5539 8.77085 18.7246 8.34053L19.484 4.40441C19.5536 4.0437 19.87 3.78425 20.237 3.78425H24.7617C25.1287 3.78425 25.4451 4.0437 25.5147 4.40441L26.2741 8.34053C27.4448 8.77085 28.5206 9.39101 29.4825 10.1947L33.2731 8.87843C33.6211 8.75819 34.0008 8.90374 34.1843 9.22015L36.4498 13.1436C36.6333 13.46 36.5637 13.865 36.2916 14.1055L33.2541 16.7317C33.3617 17.3392 33.4123 17.9657 33.4123 18.5858C33.4123 19.206 33.3617 19.8262 33.2541 20.4337L36.2916 23.0599C36.5637 23.3003 36.6333 23.7053 36.4498 24.0217L34.1843 27.9452C34.0008 28.2616 33.6211 28.4072 33.2731 28.2869L29.4825 26.9707C28.5206 27.7744 27.4448 28.3945 26.2741 28.8248L25.5147 32.7673C25.4451 33.1217 25.1287 33.3874 24.7617 33.3874ZM20.8635 31.856H24.1352L24.8566 28.1034C24.9072 27.825 25.1034 27.6035 25.3692 27.5212C26.6475 27.1099 27.7992 26.4391 28.799 25.5342C29.0079 25.3507 29.299 25.2874 29.5648 25.3823L33.1781 26.6353L34.8108 23.8066L31.9188 21.3006C31.71 21.1171 31.6151 20.8387 31.672 20.5666C31.8113 19.9148 31.8809 19.2503 31.8809 18.5858C31.8809 17.9151 31.8113 17.2506 31.672 16.6051C31.6151 16.3267 31.71 16.0482 31.9188 15.8647L34.8108 13.3588L33.1781 10.5301L29.5648 11.7831C29.299 11.878 29.0079 11.8147 28.799 11.6312C27.7992 10.7263 26.6475 10.0555 25.3692 9.64414C25.1034 9.56187 24.9072 9.34038 24.8566 9.06194L24.1352 5.30934H20.8635L20.1421 9.06194C20.0915 9.34038 19.8953 9.56187 19.6295 9.64414C18.3512 10.0555 17.1995 10.7263 16.1997 11.6312C15.9908 11.8147 15.6997 11.878 15.4339 11.7831L11.8206 10.5301L10.1879 13.3588L13.0799 15.8647C13.2887 16.0482 13.3836 16.3267 13.3267 16.6051C13.1874 17.2506 13.1178 17.9151 13.1178 18.5858C13.1178 19.2503 13.1874 19.9148 13.3267 20.5666C13.3836 20.8387 13.2887 21.1171 13.0799 21.3006L10.1879 23.8066L11.8206 26.6353L15.4339 25.3823C15.6997 25.2874 15.9908 25.3507 16.1997 25.5342C17.1995 26.4454 18.3512 27.1099 19.6295 27.5212C19.8953 27.6035 20.0915 27.825 20.1421 28.1034L20.8635 31.856ZM22.5025 26.515C18.1297 26.515 14.5733 22.9523 14.5733 18.5858C14.5733 14.2131 18.1297 10.6566 22.5025 10.6566C26.869 10.6566 30.4317 14.2131 30.4317 18.5858C30.4317 22.9523 26.869 26.515 22.5025 26.515ZM22.5025 12.1817C18.9714 12.1817 16.0984 15.0547 16.0984 18.5858C16.0984 22.1106 18.9714 24.9836 22.5025 24.9836C26.0273 24.9836 28.9003 22.1106 28.9003 18.5858C28.9003 15.0547 26.0273 12.1817 22.5025 12.1817ZM21.6799 22.0853C21.6102 22.0853 21.5343 22.0727 21.4647 22.0537C21.0597 21.9334 20.8256 21.5095 20.9521 21.1045L22.5848 15.6243C22.705 15.2193 23.1353 14.9914 23.534 15.1117C23.939 15.2319 24.1732 15.6559 24.0529 16.0609L22.4139 21.5411C22.3127 21.8702 22.0089 22.0853 21.6799 22.0853ZM25.5337 21.4398C25.3755 21.4398 25.211 21.3892 25.0718 21.2816C24.7364 21.0222 24.6731 20.5413 24.9325 20.2059L26.1792 18.5858L24.9325 16.9595C24.6731 16.6241 24.7364 16.1432 25.0718 15.8837C25.4071 15.6306 25.8881 15.6939 26.1412 16.0293L27.7486 18.1176C27.9574 18.3897 27.9574 18.7757 27.7486 19.0478L26.1412 21.1424C25.9957 21.3323 25.7679 21.4398 25.5337 21.4398Z" fill="#01BC8C"/>
</svg>
