<svg width="40" height="39" viewBox="0 0 40 39" fill="none" xmlns="http://www.w3.org/2000/svg">
<path fill-rule="evenodd" clip-rule="evenodd" d="M11.7415 32.1046C8.69481 32.1046 6.30432 30.7219 6.30432 28.9407V21.324C6.30432 19.5428 8.69481 18.1835 11.7415 18.1835C14.7882 18.1835 17.1787 19.5663 17.1553 21.3474V28.9407C17.1553 30.7219 14.7648 32.1046 11.7415 32.1046ZM32.5059 32.9952H31.1935V34.8232C31.1935 35.1513 30.9123 35.4325 30.5842 35.4325H28.0531V37.9636C28.0531 38.2917 27.7953 38.5495 27.4437 38.5495H0.60934C0.281234 38.5495 0 38.2917 0 37.9636V3.81717C0 3.46562 0.281234 3.20783 0.60934 3.20783H3.11701V0.676722C3.11701 0.348616 3.39824 0.0673828 3.72635 0.0673828H19.4286C19.5926 0.0673828 19.7567 0.137691 19.8738 0.254872L31.006 11.387C31.1232 11.5042 31.1935 11.6683 31.1935 11.8323V13.6603C33.4199 13.6603 33.0215 13.3557 33.3496 16.3555C34.0293 16.6133 34.6621 16.9883 35.248 17.4336L37.2166 16.5664C37.4978 16.4492 37.8259 16.5664 37.99 16.8242L39.9118 20.1522C40.0758 20.4334 40.0055 20.7615 39.7477 20.949L38.0134 22.238C38.1072 22.9645 38.1072 23.691 38.0134 24.4175L39.7477 25.7065C40.0055 25.8706 40.0758 26.2221 39.9118 26.4799L37.99 29.8313C37.8259 30.0891 37.4978 30.2063 37.2166 30.0656L35.248 29.1985C34.6621 29.6672 34.0293 30.0188 33.3496 30.3L33.1153 32.4561C33.0684 32.7608 32.8106 32.9952 32.5059 32.9952ZM29.9748 32.9952C27.7484 32.9952 28.1468 33.2998 27.8187 30.3C27.1391 30.0188 26.5063 29.6672 25.9204 29.1985L23.9517 30.0656C23.6705 30.2063 23.319 30.0891 23.1783 29.8313L21.2566 26.4799C21.0925 26.2221 21.1628 25.8706 21.4206 25.7065L23.1549 24.4175C23.0612 23.691 23.0612 22.9645 23.1549 22.238L21.4206 20.949C21.1628 20.7615 21.0925 20.4334 21.2566 20.1522L23.1783 16.8242C23.319 16.5664 23.6705 16.4492 23.9517 16.5664L25.9204 17.4336C26.5063 16.9883 27.1391 16.6133 27.8187 16.3555C28.1468 13.3557 27.7484 13.6603 29.9748 13.6603V12.4182H19.4286C19.1005 12.4182 18.8427 12.1604 18.8427 11.8323V1.28606H4.33569V34.2138H29.9748V32.9952ZM29.2014 31.7765H31.9669L32.1778 29.7844C32.2716 29.0813 33.2793 29.3391 34.7324 28.0501C34.9199 27.8861 35.1777 27.8392 35.3886 27.9564L37.2166 28.7532L38.5993 26.3627C36.0917 24.5113 36.8651 25.4487 36.8651 23.316C36.8651 21.1833 36.0917 22.1442 38.5993 20.2928L37.2166 17.9023L35.3886 18.6991C34.7089 19.0038 34.4511 17.996 32.5997 17.3633C32.3653 17.2929 32.2013 17.082 32.1778 16.8477L31.9669 14.879H29.2014L28.9905 16.8477C28.8968 17.5742 27.9124 17.3164 26.436 18.6054C26.2485 18.7694 25.9907 18.7929 25.7798 18.6991L23.9517 17.9023L22.569 20.2928C25.0767 22.1442 24.3033 21.1833 24.3033 23.316C24.3033 25.4487 25.0767 24.5113 22.569 26.3627L23.9517 28.7532L25.7798 27.933C26.4594 27.6517 26.7172 28.6595 28.5687 29.2922C28.803 29.3626 28.9671 29.55 28.9905 29.7844L29.2014 31.7765ZM30.5842 28.4251C27.7718 28.4251 25.4751 26.1518 25.4751 23.316C25.4751 20.5037 27.7718 18.207 30.5842 18.207C33.3965 18.207 35.6932 20.5037 35.6932 23.316C35.6932 26.1518 33.3965 28.4251 30.5842 28.4251ZM30.5842 19.4256C28.428 19.4256 26.6938 21.1833 26.6938 23.316C26.6938 25.4722 28.428 27.2299 30.5842 27.2299C32.7403 27.2299 34.4746 25.4722 34.4746 23.316C34.4746 21.1833 32.7403 19.4256 30.5842 19.4256ZM26.8578 35.4325H3.72635C3.39824 35.4325 3.11701 35.1513 3.11701 34.8232V4.40307H1.21868V37.3543H26.8578V35.4325ZM20.0379 11.223H29.1311L20.0379 2.12976V11.223ZM23.2721 15.4181H6.25745C5.48406 15.4181 5.48406 14.1994 6.25745 14.1994H23.2721C24.0455 14.1994 24.0455 15.4181 23.2721 15.4181ZM16.4053 4.75461H6.77305C5.97622 4.75461 5.97622 3.53593 6.77305 3.53593H16.4053C17.2021 3.53593 17.2021 4.75461 16.4053 4.75461ZM16.4053 8.29347H6.77305C5.97622 8.29347 5.97622 7.09823 6.77305 7.09823H16.4053C17.2021 7.09823 17.2021 8.29347 16.4053 8.29347ZM16.4053 11.8558H6.77305C5.97622 11.8558 5.97622 10.6371 6.77305 10.6371H16.4053C17.2021 10.6371 17.2021 11.8558 16.4053 11.8558ZM7.523 28.9173C7.523 29.8547 9.2104 30.8859 11.7415 30.8859C14.2023 30.8859 15.96 29.8782 15.96 28.9407V28.4017C13.8273 29.9016 9.63226 29.9016 7.523 28.4017V28.9173ZM7.523 26.3862C7.523 27.3236 9.2104 28.3314 11.7415 28.3314C14.2023 28.3314 15.9366 27.3236 15.96 26.4096V25.8706C13.8273 27.3705 9.63226 27.3705 7.523 25.8706V26.3862ZM7.523 23.8551C7.523 24.7691 9.2104 25.8003 11.7415 25.8003C14.2023 25.8003 15.9366 24.7925 15.96 23.8785V23.3395C13.8273 24.8394 9.63226 24.8394 7.523 23.3395V23.8551ZM15.96 21.3474C15.96 20.41 14.2257 19.3788 11.7415 19.3788C9.25728 19.3788 7.523 20.41 7.523 21.324C7.523 22.238 9.25728 23.2692 11.7415 23.2692C14.2023 23.2692 15.9366 22.238 15.96 21.3474Z" fill="#01BC8C"/>
</svg>
