<svg width="38" height="42" viewBox="0 0 38 42" fill="none" xmlns="http://www.w3.org/2000/svg">
<path fill-rule="evenodd" clip-rule="evenodd" d="M28.7037 29.5196H9.29592C8.96973 29.5196 8.7251 29.2749 8.7251 28.9487V12.5581C8.7251 12.2319 8.96973 11.9873 9.29592 11.9873H28.7037C29.0299 11.9873 29.2745 12.2319 29.2745 12.5581V28.9487C29.2745 29.2749 29.0299 29.5196 28.7037 29.5196ZM9.86673 28.3779H28.1329V13.1289H9.86673V28.3779Z" fill="#01BC8C"/>
<path fill-rule="evenodd" clip-rule="evenodd" d="M29.7639 19.326H28.6223C28.2961 19.326 28.0515 19.0814 28.0515 18.7552C28.0515 18.429 28.2961 18.1844 28.6223 18.1844H29.7639C31.3133 18.1844 32.5365 17.2059 32.5365 16.0642V7.7466C32.5365 7.42042 32.7811 7.17578 33.1073 7.17578C33.4335 7.17578 33.6781 7.42042 33.6781 7.7466V16.0642C33.6781 17.8582 31.8841 19.326 29.7639 19.326ZM9.29605 19.326H8.07287C5.95269 19.326 4.24023 17.8582 4.24023 16.0642V7.7466C4.24023 7.42042 4.48487 7.17578 4.81105 7.17578C5.13723 7.17578 5.38187 7.42042 5.38187 7.7466V16.0642C5.38187 17.2059 6.60505 18.1844 8.07287 18.1844H9.29605C9.62223 18.1844 9.86687 18.429 9.86687 18.7552C9.86687 19.0814 9.62223 19.326 9.29605 19.326Z" fill="#01BC8C"/>
<path fill-rule="evenodd" clip-rule="evenodd" d="M2.12038 10.4378C1.95729 10.4378 1.7942 10.3563 1.71265 10.1932C1.46802 9.94857 1.54956 9.62239 1.7942 9.4593L4.4852 7.33912C4.72983 7.09448 5.05601 7.17603 5.30065 7.42066C5.46374 7.6653 5.38219 7.99148 5.13756 8.23612L2.44656 10.3563C2.36501 10.4378 2.28347 10.4378 2.12038 10.4378Z" fill="#01BC8C"/>
<path fill-rule="evenodd" clip-rule="evenodd" d="M7.50229 10.4378C7.42075 10.4378 7.25766 10.4378 7.17611 10.3563L4.48512 8.23612C4.24048 7.99148 4.15893 7.6653 4.40357 7.42066C4.56666 7.17603 4.89284 7.09448 5.13748 7.33912L7.82848 9.4593C8.07311 9.62239 8.15466 9.94857 7.91002 10.1932C7.82848 10.3563 7.66539 10.4378 7.50229 10.4378Z" fill="#01BC8C"/>
<path fill-rule="evenodd" clip-rule="evenodd" d="M30.4164 10.4378C30.2533 10.4378 30.0902 10.3563 29.9271 10.1932C29.764 9.94857 29.8456 9.62239 30.0902 9.4593L32.7812 7.33912C33.0259 7.09448 33.352 7.17603 33.5151 7.42066C33.7598 7.6653 33.6782 7.99148 33.4336 8.23612L30.7426 10.3563C30.661 10.4378 30.5795 10.4378 30.4164 10.4378Z" fill="#01BC8C"/>
<path fill-rule="evenodd" clip-rule="evenodd" d="M35.7983 10.4378C35.7168 10.4378 35.5537 10.4378 35.4721 10.3563L32.7811 8.23612C32.5365 7.99148 32.455 7.6653 32.6181 7.42066C32.8627 7.17603 33.1889 7.09448 33.4335 7.33912L36.1245 9.4593C36.3691 9.62239 36.4507 9.94857 36.2061 10.1932C36.1245 10.3563 35.9614 10.4378 35.7983 10.4378Z" fill="#01BC8C"/>
<path fill-rule="evenodd" clip-rule="evenodd" d="M4.81118 7.99145C2.20173 7.99145 0 6.19745 0 3.99572C0 1.794 2.20173 0 4.81118 0C7.42063 0 9.54081 1.794 9.54081 3.99572C9.54081 6.19745 7.42063 7.99145 4.81118 7.99145ZM4.81118 1.14164C2.77254 1.14164 1.14164 2.44636 1.14164 3.99572C1.14164 5.54509 2.77254 6.84981 4.81118 6.84981C6.76827 6.84981 8.39918 5.54509 8.39918 3.99572C8.39918 2.44636 6.76827 1.14164 4.81118 1.14164Z" fill="#01BC8C"/>
<path fill-rule="evenodd" clip-rule="evenodd" d="M33.1886 7.99145C30.5792 7.99145 28.3774 6.19745 28.3774 3.99572C28.3774 1.794 30.5792 0 33.1886 0C35.8796 0 37.9998 1.794 37.9998 3.99572C37.9998 6.19745 35.7981 7.99145 33.1886 7.99145ZM33.1886 1.14164C31.2315 1.14164 29.5191 2.44636 29.5191 3.99572C29.5191 5.54509 31.2315 6.84981 33.1886 6.84981C35.2273 6.84981 36.8582 5.54509 36.8582 3.99572C36.8582 2.44636 35.2273 1.14164 33.1886 1.14164Z" fill="#01BC8C"/>
<path fill-rule="evenodd" clip-rule="evenodd" d="M24.5448 6.68668H13.4546C13.1284 6.68668 12.8838 6.44205 12.8838 6.11586V1.87551C12.8838 1.54932 13.1284 1.30469 13.4546 1.30469H24.5448C24.871 1.30469 25.1156 1.54932 25.1156 1.87551V6.11586C25.1156 6.44205 24.871 6.68668 24.5448 6.68668ZM14.0254 5.54505H24.0555V2.44632H14.0254V5.54505Z" fill="#01BC8C"/>
<path fill-rule="evenodd" clip-rule="evenodd" d="M28.9484 4.56644H24.5449C24.2187 4.56644 23.9741 4.3218 23.9741 3.99562C23.9741 3.66944 24.2187 3.4248 24.5449 3.4248H28.9484C29.2745 3.4248 29.5192 3.66944 29.5192 3.99562C29.5192 4.3218 29.2745 4.56644 28.9484 4.56644ZM13.4547 4.56644H8.96974C8.64356 4.56644 8.39893 4.3218 8.39893 3.99562C8.39893 3.66944 8.64356 3.4248 8.96974 3.4248H13.4547C13.7809 3.4248 14.0256 3.66944 14.0256 3.99562C14.0256 4.3218 13.7809 4.56644 13.4547 4.56644Z" fill="#01BC8C"/>
<path fill-rule="evenodd" clip-rule="evenodd" d="M19 13.1286C18.6738 13.1286 18.4292 12.884 18.4292 12.5578V6.11574C18.4292 5.78956 18.6738 5.54492 19 5.54492C19.3262 5.54492 19.5708 5.78956 19.5708 6.11574V12.5578C19.5708 12.884 19.3262 13.1286 19 13.1286Z" fill="#01BC8C"/>
<path fill-rule="evenodd" clip-rule="evenodd" d="M32.6175 34.413C32.2913 34.413 32.0467 34.1683 32.0467 33.8421V25.443C32.0467 24.3829 30.8235 23.4043 29.4373 23.4043H28.6218C28.2956 23.4043 28.051 23.1597 28.051 22.8335C28.051 22.5073 28.2956 22.2627 28.6218 22.2627H29.4373C31.4759 22.2627 33.1883 23.7305 33.1883 25.443V33.8421C33.1883 34.1683 32.9437 34.413 32.6175 34.413ZM5.29982 34.413C4.97364 34.413 4.729 34.1683 4.729 33.8421V25.443C4.729 23.7305 6.44146 22.2627 8.48009 22.2627H9.29555C9.62173 22.2627 9.86636 22.5073 9.86636 22.8335C9.86636 23.1597 9.62173 23.4043 9.29555 23.4043H8.48009C7.09382 23.4043 5.87064 24.3013 5.87064 25.443V33.8421C5.87064 34.1683 5.626 34.413 5.29982 34.413Z" fill="#01BC8C"/>
<path fill-rule="evenodd" clip-rule="evenodd" d="M32.6179 34.4125C32.4548 34.4125 32.2918 34.3309 32.2102 34.1678C31.9656 33.9232 32.0471 33.597 32.2918 33.4339L34.9012 31.3137C35.1458 31.0691 35.472 31.1506 35.6351 31.3953C35.8798 31.6399 35.7982 31.9661 35.5536 32.1292L32.9441 34.2494C32.8626 34.4125 32.781 34.4125 32.6179 34.4125Z" fill="#01BC8C"/>
<path fill-rule="evenodd" clip-rule="evenodd" d="M32.618 34.4125C32.4549 34.4125 32.3734 34.4125 32.2918 34.2494L29.6824 32.1292C29.4377 31.9661 29.3562 31.6399 29.6008 31.3953C29.7639 31.1506 30.0901 31.0691 30.3347 31.3137L32.9442 33.4339C33.1888 33.597 33.2704 33.9232 33.0257 34.1678C32.9442 34.3309 32.7811 34.4125 32.618 34.4125Z" fill="#01BC8C"/>
<path fill-rule="evenodd" clip-rule="evenodd" d="M5.30055 34.4125C5.13746 34.4125 4.97437 34.3309 4.89283 34.1678C4.64819 33.9232 4.72974 33.597 4.97437 33.4339L7.58383 31.3137C7.82846 31.0691 8.15464 31.1506 8.31773 31.3953C8.56237 31.6399 8.48082 31.9661 8.23619 32.1292L5.62674 34.2494C5.54519 34.4125 5.46365 34.4125 5.30055 34.4125Z" fill="#01BC8C"/>
<path fill-rule="evenodd" clip-rule="evenodd" d="M5.30014 34.4125C5.13705 34.4125 5.05551 34.4125 4.97396 34.2494L2.36451 32.1292C2.11987 31.9661 2.03833 31.6399 2.28296 31.3953C2.44606 31.1506 2.77224 31.0691 3.01687 31.3137L5.62633 33.4339C5.87096 33.597 5.95251 33.9232 5.70787 34.1678C5.62633 34.3309 5.46323 34.4125 5.30014 34.4125Z" fill="#01BC8C"/>
<path fill-rule="evenodd" clip-rule="evenodd" d="M5.21889 41.7512C3.99571 41.7512 2.85407 41.3435 1.95707 40.6096C1.06007 39.8757 0.570801 38.8156 0.570801 37.7555C0.570801 36.6954 1.06007 35.6353 1.95707 34.9014C2.85407 34.1675 3.99571 33.7598 5.21889 33.7598C7.74679 33.7598 9.86697 35.5538 9.86697 37.7555C9.86697 39.9572 7.74679 41.7512 5.21889 41.7512ZM5.21889 34.9014C3.34334 34.9014 1.71244 36.2061 1.71244 37.7555C1.71244 39.3049 3.34334 40.6096 5.21889 40.6096C7.17598 40.6096 8.72534 39.3049 8.72534 37.7555C8.72534 36.2061 7.17598 34.9014 5.21889 34.9014Z" fill="#01BC8C"/>
<path fill-rule="evenodd" clip-rule="evenodd" d="M32.6994 41.7512C31.4762 41.7512 30.3345 41.3435 29.4375 40.6096C28.5405 39.8757 28.0513 38.8156 28.0513 37.7555C28.0513 36.6954 28.5405 35.6353 29.4375 34.9014C30.3345 34.1675 31.4762 33.7598 32.6994 33.7598C35.2273 33.7598 37.3474 35.5538 37.3474 37.7555C37.3474 39.9572 35.2273 41.7512 32.6994 41.7512ZM32.6994 34.9014C30.8238 34.9014 29.1929 36.2061 29.1929 37.7555C29.1929 39.3049 30.8238 40.6096 32.6994 40.6096C34.6564 40.6096 36.2058 39.3049 36.2058 37.7555C36.2058 36.2061 34.6564 34.9014 32.6994 34.9014Z" fill="#01BC8C"/>
<path fill-rule="evenodd" clip-rule="evenodd" d="M24.3822 40.4464H13.6182C13.292 40.4464 13.0474 40.2018 13.0474 39.8756V35.6353C13.0474 35.3091 13.292 35.0645 13.6182 35.0645H24.3822C24.7084 35.0645 24.953 35.3091 24.953 35.6353V39.8756C24.953 40.2018 24.7084 40.4464 24.3822 40.4464ZM14.189 39.3048H23.8114V36.2061H14.189V39.3048Z" fill="#01BC8C"/>
<path fill-rule="evenodd" clip-rule="evenodd" d="M28.6222 38.3262H24.3818C24.0556 38.3262 23.811 38.0816 23.811 37.7554C23.811 37.4292 24.0556 37.1846 24.3818 37.1846H28.6222C28.9484 37.1846 29.193 37.4292 29.193 37.7554C29.193 38.0816 28.9484 38.3262 28.6222 38.3262ZM13.6178 38.3262H9.29592C8.96973 38.3262 8.7251 38.0816 8.7251 37.7554C8.7251 37.4292 8.96973 37.1846 9.29592 37.1846H13.6178C13.944 37.1846 14.1886 37.4292 14.1886 37.7554C14.1886 38.0816 13.944 38.3262 13.6178 38.3262Z" fill="#01BC8C"/>
<path fill-rule="evenodd" clip-rule="evenodd" d="M20.2234 27.726H17.6955C17.3693 27.726 17.1247 27.4814 17.1247 27.1552V26.5028C16.7169 26.4213 16.3092 26.3397 15.983 26.0951L15.4938 26.5844C15.2491 26.7475 14.923 26.7475 14.6783 26.5844L12.8028 24.8719C12.7212 24.7904 12.6397 24.6273 12.6397 24.4642C12.6397 24.3011 12.7212 24.138 12.8028 24.0565L13.292 23.5672C13.129 23.241 12.9659 22.9148 12.8843 22.5886H12.1504C11.8242 22.5886 11.5796 22.344 11.5796 22.0178V19.5715C11.5796 19.2453 11.8242 19.0006 12.1504 19.0006H12.8843C12.9659 18.6745 13.129 18.3483 13.292 18.0221L12.8028 17.5328C12.7212 17.4513 12.6397 17.2882 12.6397 17.1251C12.6397 16.962 12.7212 16.7989 12.8028 16.7174L14.6783 15.0049C14.923 14.7603 15.2491 14.7603 15.4938 15.0049L15.983 15.4126C16.3092 15.2496 16.7169 15.0865 17.1247 15.0049V14.4341C17.1247 14.1079 17.3693 13.8633 17.6955 13.8633H20.2234C20.5496 13.8633 20.7942 14.1079 20.7942 14.4341V15.0049C21.2019 15.0865 21.6097 15.2496 21.9359 15.4126L22.4251 15.0049C22.6698 14.7603 22.9959 14.7603 23.2406 15.0049L25.0346 16.7174C25.1161 16.7989 25.1977 16.962 25.1977 17.1251C25.1977 17.2882 25.1161 17.4513 25.0346 17.5328L24.6269 17.9406C24.7899 18.2667 24.953 18.6745 25.0346 19.0006H25.7685C26.0947 19.0006 26.3393 19.2453 26.3393 19.5715V22.0178C26.3393 22.344 26.0947 22.5886 25.7685 22.5886H25.0346C24.953 22.9148 24.7899 23.241 24.6269 23.5672L25.0346 24.0565C25.2792 24.3011 25.2792 24.6273 25.0346 24.8719L23.2406 26.5844C22.9959 26.7475 22.6698 26.7475 22.4251 26.5844L21.9359 26.0951C21.6097 26.3397 21.2019 26.4213 20.7942 26.5028V27.1552C20.7942 27.4814 20.5496 27.726 20.2234 27.726ZM18.2663 26.5844H19.6526V26.0951C19.6526 25.8505 19.8157 25.6058 20.0603 25.5243C20.7127 25.3612 21.2835 25.1981 21.6912 24.9535C21.9359 24.7904 22.1805 24.8719 22.4251 25.035L22.8329 25.3612L23.8114 24.4642L23.4852 24.0565C23.3221 23.8118 23.2406 23.5672 23.4037 23.3225C23.7299 22.9148 23.8929 22.4255 24.056 21.8547C24.1376 21.6101 24.3822 21.447 24.6269 21.447H25.1977V20.1423H24.6269C24.3822 20.1423 24.1376 19.9792 24.056 19.7345C23.8929 19.2453 23.7299 18.6745 23.4037 18.1852C23.2406 17.9406 23.3221 17.6144 23.4852 17.4513L23.8114 17.1251L22.8329 16.2281L22.4251 16.5543C22.1805 16.7174 21.9359 16.7989 21.6912 16.6358C21.2835 16.3096 20.7127 16.1466 20.1419 16.065C19.8972 16.065 19.6526 15.8204 19.6526 15.4942V15.0049H18.2663V15.4942C18.2663 15.8204 18.0217 16.065 17.777 16.065C17.2062 16.1466 16.6354 16.3096 16.2277 16.6358C15.983 16.7989 15.7384 16.7174 15.4938 16.5543L15.086 16.2281L14.026 17.1251L14.4337 17.4513C14.5968 17.6144 14.6783 17.9406 14.5152 18.1852C14.189 18.6745 14.026 19.2453 13.8629 19.7345C13.7813 19.9792 13.5367 20.1423 13.292 20.1423H12.7212V21.447H13.292C13.5367 21.447 13.7813 21.6101 13.8629 21.8547C14.026 22.4255 14.2706 22.9148 14.5152 23.3225C14.6783 23.5672 14.5968 23.8934 14.4337 24.0565L14.026 24.4642L15.086 25.4427L15.4938 25.035C15.7384 24.8719 15.983 24.7904 16.2277 24.9535C16.6354 25.2796 17.2062 25.3612 17.8586 25.5243C18.1032 25.6058 18.2663 25.8505 18.2663 26.0951V26.5844Z" fill="#01BC8C"/>
<path fill-rule="evenodd" clip-rule="evenodd" d="M18.9191 25.1975C17.6959 25.1975 16.5543 24.7083 15.6573 23.8928C14.7603 23.0773 14.271 22.0173 14.271 20.7941C14.271 19.6524 14.7603 18.5108 15.6573 17.6954C16.5543 16.8799 17.6959 16.3906 18.9191 16.3906C20.1423 16.3906 21.3654 16.8799 22.1809 17.6954C23.0779 18.5108 23.5672 19.6524 23.5672 20.7941C23.5672 22.0173 23.0779 23.0773 22.1809 23.8928C21.3654 24.7083 20.1423 25.1975 18.9191 25.1975ZM18.9191 17.5323C17.0435 17.5323 15.4126 19.0001 15.4126 20.7941C15.4126 22.5881 17.0435 24.0559 18.9191 24.0559C20.8762 24.0559 22.4255 22.5881 22.4255 20.7941C22.4255 19.0001 20.8762 17.5323 18.9191 17.5323Z" fill="#01BC8C"/>
</svg>
