<svg width="40" height="38" viewBox="0 0 40 38" fill="none" xmlns="http://www.w3.org/2000/svg">
<path d="M39.1663 29.27H36.6653V22.6006C36.6653 22.1421 36.2901 21.7669 35.8316 21.7669C35.3731 21.7669 34.9979 22.1421 34.9979 22.6006V29.27H25.0021C24.5436 29.27 24.1684 29.6452 24.1684 30.1037V31.7711H14.9979V30.1037C14.9979 29.6452 14.6228 29.27 14.1642 29.27H4.99375V4.26795H17.499C17.9575 4.26795 18.3326 3.89279 18.3326 3.43427C18.3326 2.97574 17.9575 2.60059 17.499 2.60059H4.1684C3.70988 2.60059 3.33472 2.97574 3.33472 3.43427V29.27H0.833681C0.375156 29.27 0 29.6452 0 30.1037V36.7732C0 37.2317 0.375156 37.6068 0.833681 37.6068H39.1663C39.6248 37.6068 40 37.2317 40 36.7732V30.1037C40 29.6369 39.6248 29.27 39.1663 29.27ZM38.3326 35.9311H1.66736V30.9291H13.3306V32.5964C13.3306 33.0549 13.7057 33.4301 14.1642 33.4301H25.0021C25.4606 33.4301 25.8358 33.0549 25.8358 32.5964V30.9291H38.3326V35.9311Z" fill="#01BC8C"/>
<path d="M17.4988 6.76074H8.43671C7.97818 6.76074 7.60303 7.1359 7.60303 7.59442V25.8854C7.60303 26.3439 7.96985 26.7191 8.42837 26.7191C9.27873 26.7191 28.6201 26.8108 31.3046 26.7357C31.6547 26.7274 31.9048 26.7191 32.1466 26.4773C32.305 26.3189 32.3884 26.1105 32.3884 25.8854V22.6007C32.3884 22.1422 32.0132 21.767 31.5547 21.767C31.0962 21.767 30.721 22.1422 30.721 22.6007V25.085C27.8114 25.1267 17.0486 25.0934 9.26205 25.06V8.4281H17.4988C17.9573 8.4281 18.3325 8.05295 18.3325 7.59442C18.3325 7.1359 17.9573 6.76074 17.4988 6.76074Z" fill="#01BC8C"/>
<path d="M30.0043 5.60156C27.5199 5.60156 25.5024 7.61907 25.5024 10.1034C25.5024 12.5878 27.5199 14.6053 30.0043 14.6053C32.4887 14.6053 34.5062 12.5878 34.5062 10.1034C34.4979 7.61907 32.4803 5.60156 30.0043 5.60156ZM30.0043 12.9296C28.4453 12.9296 27.1698 11.6541 27.1698 10.0951C27.1698 8.53612 28.437 7.26059 30.0043 7.26059C31.5633 7.26059 32.8388 8.52778 32.8388 10.0951C32.8305 11.6624 31.5633 12.9296 30.0043 12.9296Z" fill="#01BC8C"/>
<path d="M39.1663 8.04459H37.2739C37.1155 7.47768 36.8904 6.92745 36.5986 6.41057L37.9408 5.06835C38.2659 4.74321 38.2659 4.21799 37.9408 3.89286L36.2151 2.16714C35.89 1.842 35.3647 1.842 35.0396 2.16714L33.6974 3.50936C33.1805 3.21758 32.6303 2.99248 32.0634 2.83408V0.93329C32.0634 0.474766 31.6882 0.0996094 31.2297 0.0996094H28.787C28.3285 0.0996094 27.9533 0.474766 27.9533 0.93329V2.82575C27.3864 2.98414 26.8362 3.20924 26.3193 3.50103L24.9771 2.1588C24.6519 1.83367 24.1267 1.83367 23.8016 2.1588L22.0759 3.88452C21.7507 4.20966 21.7507 4.73487 22.0759 5.06001L23.4181 6.40224C23.1263 6.91912 22.9012 7.46935 22.7428 8.03625H20.8337C20.3752 8.03625 20 8.41141 20 8.86993V11.3126C20 11.7711 20.3752 12.1463 20.8337 12.1463H22.7261C22.8845 12.7132 23.1096 13.2634 23.4014 13.7803L22.0592 15.1225C21.7341 15.4477 21.7341 15.9729 22.0592 16.298L23.7849 18.0237C24.11 18.3489 24.6353 18.3489 24.9604 18.0237L26.3026 16.6815C26.8195 16.9733 27.3697 17.1984 27.9366 17.3568V19.2659C27.9366 19.7245 28.3118 20.0996 28.7703 20.0996H31.213C31.6715 20.0996 32.0467 19.7245 32.0467 19.2659V17.3735C32.6136 17.2151 33.1638 16.99 33.6807 16.6982L35.0229 18.0404C35.3481 18.3656 35.8733 18.3656 36.1984 18.0404L37.9241 16.3147C38.2493 15.9896 38.2493 15.4643 37.9241 15.1392L36.5819 13.797C36.8737 13.2801 37.0988 12.7299 37.2572 12.163H39.1497C39.6082 12.163 39.9833 11.7878 39.9833 11.3293V8.8866C40 8.41141 39.6248 8.04459 39.1663 8.04459ZM38.3326 10.4873H36.6069C36.2068 10.4873 35.8566 10.7707 35.7899 11.1709C35.6399 11.9879 35.3231 12.7465 34.8479 13.4385C34.6228 13.772 34.6644 14.2138 34.9479 14.4973L36.1651 15.7144L35.6148 16.2647L34.3977 15.0475C34.1142 14.7641 33.664 14.7224 33.3389 14.9475C32.6553 15.4227 31.8883 15.7395 31.0713 15.8895C30.6795 15.9646 30.3877 16.3064 30.3877 16.7065V18.4322H29.6123V16.7065C29.6123 16.3064 29.3289 15.9562 28.9287 15.8895C28.1117 15.7395 27.3531 15.4227 26.6611 14.9475C26.3276 14.7224 25.8858 14.7557 25.6023 15.0475L24.3852 16.2647L23.8349 15.7144L25.0521 14.4973C25.3356 14.2138 25.3772 13.7636 25.1521 13.4385C24.6769 12.7549 24.3602 11.9879 24.2101 11.1709C24.1351 10.7791 23.7932 10.4873 23.3931 10.4873H21.6674V9.71195H23.3931C23.7932 9.71195 24.1434 9.4285 24.2101 9.02833C24.3602 8.21132 24.6769 7.45267 25.1521 6.76072C25.3772 6.42725 25.3356 5.9854 25.0521 5.70194L23.8349 4.47643L24.3852 3.9262L25.6023 5.14338C25.8858 5.42683 26.336 5.46851 26.6611 5.24342C27.3447 4.76822 28.1117 4.45142 28.9287 4.30136C29.3206 4.22633 29.6123 3.88452 29.6123 3.48435V1.76697H30.3877V3.49269C30.3877 3.89286 30.6711 4.243 31.0713 4.3097C31.8883 4.45976 32.6469 4.77656 33.3389 5.25176C33.6724 5.47685 34.1142 5.43517 34.3977 5.15171L35.6148 3.9262L36.1651 4.47643L34.9479 5.69361C34.6644 5.97706 34.6228 6.42725 34.8479 6.75238C35.3231 7.436 35.6399 8.20299 35.7899 9.01999C35.8649 9.41182 36.2068 9.70361 36.6069 9.70361H38.3326V10.4873Z" fill="#01BC8C"/>
<path d="M14.1641 13.4297H11.6631V15.9307H14.1641V13.4297Z" fill="#01BC8C"/>
<path d="M18.3326 13.4297H15.8315V15.9307H18.3326V13.4297Z" fill="#01BC8C"/>
</svg>
