<svg width="45" height="44" viewBox="0 0 45 44" fill="none" xmlns="http://www.w3.org/2000/svg">
<path fill-rule="evenodd" clip-rule="evenodd" d="M40.8061 5.02482H39.8948V5.93612C39.8948 6.3538 39.5531 6.69554 39.1291 6.69554C38.7114 6.69554 38.3696 6.3538 38.3696 5.93612V5.02482H37.452C37.0343 5.02482 36.6926 4.67675 36.6926 4.25907C36.6926 3.83506 37.0343 3.49333 37.452 3.49333H38.3696V2.58202C38.3696 2.15802 38.7114 1.81628 39.1291 1.81628C39.5531 1.81628 39.8948 2.15802 39.8948 2.58202V3.49333H40.8061C41.2301 3.49333 41.5719 3.83506 41.5719 4.25907C41.5719 4.68308 41.2301 5.02482 40.8061 5.02482ZM16.5996 40.1922C12.9164 38.9582 9.65095 36.547 7.37902 33.3701C7.13221 33.0284 7.21448 32.5474 7.55622 32.3006C7.89796 32.0601 8.37259 32.1361 8.6194 32.4778C10.3597 34.9079 12.7266 36.8508 15.4225 38.0912C15.3656 37.8317 15.4478 37.5533 15.6504 37.3697L17.4287 35.7307L16.9477 35.2813H13.7898C13.3658 35.2813 13.024 34.9396 13.024 34.5156V10.6255C13.024 10.2079 13.3658 9.86612 13.7898 9.86612H31.2121C31.6361 9.86612 31.9779 10.2079 31.9779 10.6255V34.5156C31.9779 34.9396 31.6361 35.2813 31.2121 35.2813H28.0605L27.5796 35.7307L29.3515 37.3697C29.5541 37.5533 29.6363 37.8317 29.5794 38.0912C35.3952 35.4585 39.2556 29.7945 39.5341 23.3395H36.4015C35.775 23.3395 35.4142 22.6117 35.7876 22.1117L39.667 16.973C39.9644 16.5743 40.5783 16.5743 40.882 16.9667L44.8437 22.1054C45.2234 22.6054 44.869 23.3395 44.2361 23.3395H41.0656C40.92 27.0796 39.667 30.6299 37.4204 33.6486C35.1295 36.7242 32.0222 38.9835 28.4086 40.1922L28.2377 40.496C28.0605 40.8061 27.6871 40.9453 27.3454 40.8441L25.0418 40.1226L24.5102 42.4832C24.428 42.8312 24.1179 43.078 23.7635 43.078H21.2447C20.884 43.078 20.5739 42.8312 20.498 42.4832L19.9664 40.1226L17.6565 40.8441C17.3148 40.9453 16.9477 40.8061 16.7705 40.496L16.5996 40.1922ZM17.7894 39.1987L19.8968 38.5405C20.3398 38.4076 20.5992 38.6987 20.96 38.8759C21.1688 38.9772 21.3144 39.167 21.365 39.3948L21.8523 41.5465H23.1496L23.6369 39.3885C23.7382 38.9455 24.1875 38.8126 24.4533 38.6354C24.7128 38.4646 24.8836 38.4772 25.1051 38.5405L27.2188 39.1987L27.8643 38.0785L26.2443 36.5787C25.9088 36.2686 26.0228 35.9205 25.9974 35.4965C25.9848 35.2623 26.0734 35.0408 26.2443 34.8826L27.8643 33.3828L27.2188 32.2563L25.1051 32.9145C24.6685 33.0537 24.4027 32.7626 24.0483 32.5854C23.8394 32.4841 23.6875 32.2943 23.6369 32.0665L23.1496 29.9084H21.8523L21.365 32.0665C21.2637 32.5158 20.884 32.598 20.5549 32.8195C20.3588 32.9461 20.1183 32.9841 19.8968 32.9145L17.7894 32.2563L17.1376 33.3828L18.764 34.8826C19.0994 35.1927 18.9791 35.5408 19.0108 35.9648C19.0234 36.1926 18.9348 36.4205 18.764 36.5787L17.1376 38.0785L17.7894 39.1987ZM40.3188 21.808H42.6857L40.2808 18.6944L37.933 21.808H40.3188ZM3.93632 21.808C4.33502 11.8596 12.5304 3.99328 22.5041 3.99328C28.5098 3.99328 34.1359 6.89805 37.6229 11.7773C37.8697 12.1191 37.7937 12.6 37.4457 12.8405C37.1039 13.0873 36.6293 13.0114 36.3825 12.6633C33.1803 8.18907 27.9909 5.51844 22.5041 5.51844C13.3531 5.51844 5.86651 12.7582 5.46782 21.808H8.60042C9.23327 21.808 9.59399 22.5421 9.20795 23.042L5.24632 28.1808C4.94255 28.5731 4.33502 28.5731 4.03125 28.1744L0.158212 23.0357C-0.221497 22.5358 0.139227 21.808 0.765747 21.808H3.93632ZM2.29724 23.3395L4.65144 26.4531L7.04994 23.3395H2.29724ZM13.2582 1.53149H0.765747C0.341738 1.53149 0 1.18976 0 0.765747C0 0.341738 0.341738 0 0.765747 0H13.2582C13.6822 0 14.0239 0.341738 14.0239 0.765747C14.0239 1.18976 13.6822 1.53149 13.2582 1.53149ZM8.81559 5.27163H0.765747C0.341738 5.27163 0 4.92989 0 4.50588C0 4.08188 0.341738 3.74014 0.765747 3.74014H8.81559C9.23327 3.74014 9.57501 4.08188 9.57501 4.50588C9.57501 4.92989 9.23327 5.27163 8.81559 5.27163ZM29.5667 33.7562H30.4464V11.3913H14.5555V33.7562H15.4415C15.3782 33.5537 15.3972 33.3322 15.5111 33.1486L16.7705 30.9653C16.9477 30.6552 17.3148 30.5096 17.6565 30.6172L19.9664 31.3324L20.498 28.9782C20.5739 28.6301 20.884 28.3833 21.2447 28.3833H23.7635C24.1179 28.3833 24.428 28.6301 24.5102 28.9782L25.0418 31.3324L27.3454 30.6172C27.6871 30.5096 28.0605 30.6552 28.2377 30.9653L29.4971 33.1486C29.6047 33.3322 29.6237 33.5537 29.5667 33.7562ZM28.301 14.8087H16.7009C16.2832 14.8087 15.9351 14.4669 15.9351 14.0492C15.9351 13.6252 16.2832 13.2835 16.7009 13.2835H28.301C28.725 13.2835 29.0668 13.6252 29.0668 14.0492C29.0668 14.4669 28.725 14.8087 28.301 14.8087ZM28.301 18.2197H16.7009C16.2832 18.2197 15.9351 17.878 15.9351 17.4603C15.9351 17.0363 16.2832 16.6946 16.7009 16.6946H28.301C28.725 16.6946 29.0668 17.0363 29.0668 17.4603C29.0668 17.878 28.725 18.2197 28.301 18.2197ZM28.301 21.6308H16.7009C16.2832 21.6308 15.9351 21.289 15.9351 20.865C15.9351 20.4473 16.2832 20.1056 16.7009 20.1056H28.301C28.725 20.1056 29.0668 20.4473 29.0668 20.865C29.0668 21.289 28.725 21.6308 28.301 21.6308ZM28.301 25.0418H16.7009C16.2832 25.0418 15.9351 24.7001 15.9351 24.2761C15.9351 23.8584 16.2832 23.5167 16.7009 23.5167H28.301C28.725 23.5167 29.0668 23.8584 29.0668 24.2761C29.0668 24.7001 28.725 25.0418 28.301 25.0418ZM22.5041 38.3506C21.0549 38.3506 19.8841 37.1735 19.8841 35.7307C19.8841 34.2814 21.0549 33.1107 22.5041 33.1107C23.947 33.1107 25.1241 34.2814 25.1241 35.7307C25.1241 37.1735 23.947 38.3506 22.5041 38.3506ZM22.5041 34.6358C21.9029 34.6358 21.4093 35.1294 21.4093 35.7307C21.4093 36.3319 21.9029 36.8192 22.5041 36.8192C23.1053 36.8192 23.5926 36.3319 23.5926 35.7307C23.5926 35.1294 23.1053 34.6358 22.5041 34.6358ZM39.7429 41.7237C39.3189 41.7237 38.9772 41.382 38.9772 40.958V40.0467H38.0659C37.6482 40.0467 37.3001 39.7049 37.3001 39.2809C37.3001 38.8569 37.6419 38.5152 38.0659 38.5152H38.9772V37.6039C38.9772 37.1799 39.3189 36.8381 39.7429 36.8381C40.1669 36.8381 40.5087 37.1799 40.5087 37.6039V38.5152H41.42C41.844 38.5152 42.1857 38.8569 42.1857 39.2809C42.1857 39.7049 41.844 40.0467 41.42 40.0467H40.5087V40.958C40.5087 41.382 40.1669 41.7237 39.7429 41.7237ZM4.63878 40.3125C4.21477 40.3125 3.87304 39.9707 3.87304 39.5467V38.6354H2.96173C2.53772 38.6354 2.19599 38.2937 2.19599 37.876C2.19599 37.452 2.53772 37.1103 2.96173 37.1103H3.87304V36.199C3.87304 35.775 4.21477 35.4332 4.63878 35.4332C5.05646 35.4332 5.3982 35.775 5.3982 36.199V37.1103H6.3095C6.73351 37.1103 7.07525 37.452 7.07525 37.876C7.07525 38.2937 6.73351 38.6354 6.3095 38.6354H5.3982V39.5467C5.3982 39.9707 5.05646 40.3125 4.63878 40.3125Z" fill="#01BC8C"/>
</svg>
