<svg width="40" height="40" viewBox="0 0 40 40" fill="none" xmlns="http://www.w3.org/2000/svg">
<path d="M16.418 2.67773C13.6993 2.67773 11.0416 3.48393 8.78108 4.99438C6.52054 6.50482 4.75866 8.65168 3.71824 11.1635C2.67783 13.6752 2.40561 16.4391 2.93601 19.1056C3.46641 21.7721 4.7756 24.2214 6.69803 26.1439C8.62047 28.0663 11.0698 29.3755 13.7363 29.9059C16.4028 30.4363 19.1667 30.1641 21.6784 29.1237C24.1902 28.0832 26.3371 26.3214 27.8475 24.0608C29.358 21.8003 30.1642 19.1426 30.1642 16.4239C30.16 12.7795 28.7104 9.28548 26.1334 6.70848C23.5564 4.13148 20.0625 2.68189 16.418 2.67773ZM16.418 28.8609C13.9582 28.8609 11.5537 28.1314 9.50841 26.7649C7.46315 25.3983 5.86907 23.4559 4.92775 21.1833C3.98642 18.9107 3.74013 16.4101 4.22001 13.9975C4.6999 11.585 5.8844 9.36894 7.62375 7.6296C9.36309 5.89026 11.5792 4.70575 13.9917 4.22586C16.4042 3.74598 18.9049 3.99227 21.1775 4.9336C23.45 5.87493 25.3924 7.46901 26.759 9.51426C28.1256 11.5595 28.855 13.9641 28.855 16.4239C28.8512 19.7212 27.5397 22.8824 25.2081 25.2139C22.8765 27.5455 19.7154 28.8571 16.418 28.8609Z" fill="#01BC8C"/>
<path d="M29.5705 26.1454C32.055 22.7874 33.1638 18.6075 32.6705 14.4595C32.1771 10.3115 30.1189 6.50836 26.916 3.82674C23.7132 1.14512 19.6074 -0.212624 15.4373 0.0308105C11.2672 0.274245 7.34728 2.10049 4.47822 5.13656C1.60916 8.17263 0.00738097 12.1895 2.54449e-05 16.3667C-0.00733008 20.5439 1.58029 24.5664 4.43864 27.6125C7.297 30.6587 11.2104 32.4987 15.3797 32.7568C19.5489 33.0149 23.6594 31.6717 26.8717 29.0014L36.6288 38.7546C36.8094 38.942 37.0255 39.0916 37.2645 39.1946C37.5035 39.2976 37.7607 39.352 38.0209 39.3545C38.2812 39.3571 38.5393 39.3078 38.7803 39.2095C39.0213 39.1112 39.2403 38.9659 39.4245 38.7821C39.6087 38.5983 39.7545 38.3796 39.8533 38.1388C39.9521 37.898 40.002 37.64 39.9999 37.3797C39.9979 37.1194 39.9441 36.8622 39.8416 36.623C39.7391 36.3837 39.59 36.1673 39.4029 35.9864L29.5705 26.1454ZM1.36278 16.4236C1.36278 13.446 2.24575 10.5352 3.90005 8.05936C5.55435 5.58352 7.90566 3.65385 10.6567 2.51435C13.4077 1.37485 16.4348 1.0767 19.3552 1.65762C22.2757 2.23853 24.9583 3.67241 27.0638 5.77793C29.1693 7.88345 30.6032 10.566 31.1841 13.4865C31.765 16.4069 31.4669 19.434 30.3274 22.185C29.1879 24.936 27.2582 27.2874 24.7824 28.9417C22.3065 30.596 19.3957 31.4789 16.4181 31.4789C12.4265 31.4746 8.59963 29.887 5.77715 27.0646C2.95468 24.2421 1.36711 20.4152 1.36278 16.4236ZM38.4774 37.8336C38.3558 37.9549 38.191 38.0231 38.0192 38.0231C37.8474 38.0231 37.6826 37.9549 37.561 37.8336L27.8431 28.1223C28.156 27.8168 28.4558 27.4991 28.7425 27.1692L38.4774 36.9119C38.5393 36.9711 38.5886 37.0422 38.6223 37.121C38.6561 37.1997 38.6736 37.2845 38.6737 37.3701C38.6738 37.4566 38.6565 37.5422 38.6227 37.6219C38.589 37.7015 38.5396 37.7735 38.4774 37.8336Z" fill="#01BC8C"/>
<path d="M9.87235 21.0053H12.4907C12.6643 21.0053 12.8308 20.9364 12.9535 20.8136C13.0763 20.6909 13.1452 20.5244 13.1452 20.3508V13.805C13.1452 13.6314 13.0763 13.4649 12.9535 13.3421C12.8308 13.2194 12.6643 13.1504 12.4907 13.1504H9.87235C9.69875 13.1504 9.53225 13.2194 9.4095 13.3421C9.28674 13.4649 9.21777 13.6314 9.21777 13.805V20.3508C9.21777 20.5244 9.28674 20.6909 9.4095 20.8136C9.53225 20.9364 9.69875 21.0053 9.87235 21.0053ZM10.5269 14.4595H11.8361V19.6962H10.5269V14.4595Z" fill="#01BC8C"/>
<path d="M15.1089 21.0059H17.7272C17.9008 21.0059 18.0673 20.9369 18.1901 20.8142C18.3129 20.6914 18.3818 20.5249 18.3818 20.3513V12.4964C18.3818 12.3228 18.3129 12.1563 18.1901 12.0335C18.0673 11.9108 17.9008 11.8418 17.7272 11.8418H15.1089C14.9353 11.8418 14.7688 11.9108 14.6461 12.0335C14.5233 12.1563 14.4543 12.3228 14.4543 12.4964V20.3513C14.4543 20.5249 14.5233 20.6914 14.6461 20.8142C14.7688 20.9369 14.9353 21.0059 15.1089 21.0059ZM15.7635 13.151H17.0727V19.6967H15.7635V13.151Z" fill="#01BC8C"/>
<path d="M22.9638 10.5322H20.3455C20.1719 10.5322 20.0054 10.6012 19.8826 10.7239C19.7599 10.8467 19.6909 11.0132 19.6909 11.1868V20.3509C19.6909 20.5245 19.7599 20.691 19.8826 20.8138C20.0054 20.9365 20.1719 21.0055 20.3455 21.0055H22.9638C23.1374 21.0055 23.3039 20.9365 23.4267 20.8138C23.5494 20.691 23.6184 20.5245 23.6184 20.3509V11.1868C23.6184 11.0132 23.5494 10.8467 23.4267 10.7239C23.3039 10.6012 23.1374 10.5322 22.9638 10.5322ZM22.3092 19.6963H21.0001V11.8414H22.3092V19.6963Z" fill="#01BC8C"/>
<path d="M31.0899 2.67732H32.7826V1.36816H30.8189C30.6453 1.3682 30.4788 1.43719 30.3561 1.55996L28.3923 3.52369L29.3179 4.44926L31.0899 2.67732Z" fill="#01BC8C"/>
<path d="M39.983 1.36816H34.0918V2.67732H39.983V1.36816Z" fill="#01BC8C"/>
<path d="M35.401 3.98633H34.0918V5.29548H35.401V3.98633Z" fill="#01BC8C"/>
<path d="M39.9829 3.98633H36.71V5.29548H39.9829V3.98633Z" fill="#01BC8C"/>
<path d="M39.983 6.60547H34.0918V7.91463H39.983V6.60547Z" fill="#01BC8C"/>
<path d="M9.60143 36.7163H7.90869V38.0254H9.87243C10.046 38.0254 10.2125 37.9564 10.3352 37.8336L12.2989 35.8699L11.3734 34.9443L9.60143 36.7163Z" fill="#01BC8C"/>
<path d="M6.59946 36.7158H0.708252V38.025H6.59946V36.7158Z" fill="#01BC8C"/>
<path d="M6.59944 34.0977H5.29028V35.4068H6.59944V34.0977Z" fill="#01BC8C"/>
<path d="M3.98114 34.0977H0.708252V35.4068H3.98114V34.0977Z" fill="#01BC8C"/>
<path d="M6.59946 31.4785H0.708252V32.7877H6.59946V31.4785Z" fill="#01BC8C"/>
<path d="M23.6185 22.3145H9.21777V23.6236H23.6185V22.3145Z" fill="#01BC8C"/>
</svg>
