<svg width="40" height="38" viewBox="0 0 40 38" fill="none" xmlns="http://www.w3.org/2000/svg">
<path d="M39.1663 29.273H36.6653V22.6035C36.6653 22.145 36.2901 21.7698 35.8316 21.7698C35.3731 21.7698 34.9979 22.145 34.9979 22.6035V29.273H25.0021C24.5436 29.273 24.1684 29.6481 24.1684 30.1066V31.774H14.9979V30.1066C14.9979 29.6481 14.6228 29.273 14.1642 29.273H4.99375V4.27088H17.499C17.9575 4.27088 18.3326 3.89572 18.3326 3.4372C18.3326 2.97867 17.9575 2.60352 17.499 2.60352H4.1684C3.70988 2.60352 3.33472 2.97867 3.33472 3.4372V29.273H0.833681C0.375156 29.273 0 29.6481 0 30.1066V36.7761C0 37.2346 0.375156 37.6098 0.833681 37.6098H39.1663C39.6248 37.6098 40 37.2346 40 36.7761V30.1066C40 29.6398 39.6248 29.273 39.1663 29.273ZM38.3326 35.9341H1.66736V30.932H13.3306V32.5993C13.3306 33.0579 13.7057 33.433 14.1642 33.433H25.0021C25.4606 33.433 25.8358 33.0579 25.8358 32.5993V30.932H38.3326V35.9341Z" fill="#01BC8C"/>
<path d="M17.4988 6.76367H8.43671C7.97818 6.76367 7.60303 7.13883 7.60303 7.59735V25.8883C7.60303 26.3468 7.96985 26.722 8.42837 26.722C9.27873 26.722 28.6201 26.8137 31.3046 26.7387C31.6547 26.7303 31.9048 26.722 32.1466 26.4802C32.305 26.3218 32.3884 26.1134 32.3884 25.8883V22.6036C32.3884 22.1451 32.0132 21.7699 31.5547 21.7699C31.0962 21.7699 30.721 22.1451 30.721 22.6036V25.088C27.8114 25.1297 17.0486 25.0963 9.26205 25.063V8.43103H17.4988C17.9573 8.43103 18.3325 8.05588 18.3325 7.59735C18.3325 7.13883 17.9573 6.76367 17.4988 6.76367Z" fill="#01BC8C"/>
<path d="M30.0043 5.60449C27.5199 5.60449 25.5024 7.622 25.5024 10.1064C25.5024 12.5907 27.5199 14.6082 30.0043 14.6082C32.4887 14.6082 34.5062 12.5907 34.5062 10.1064C34.4979 7.622 32.4803 5.60449 30.0043 5.60449ZM30.0043 12.9325C28.4453 12.9325 27.1698 11.657 27.1698 10.098C27.1698 8.53905 28.437 7.26352 30.0043 7.26352C31.5633 7.26352 32.8388 8.53071 32.8388 10.098C32.8305 11.6654 31.5633 12.9325 30.0043 12.9325Z" fill="#01BC8C"/>
<path d="M39.1663 8.04752H37.2739C37.1155 7.48061 36.8904 6.93038 36.5986 6.4135L37.9408 5.07128C38.2659 4.74614 38.2659 4.22092 37.9408 3.89579L36.2151 2.17007C35.89 1.84493 35.3647 1.84493 35.0396 2.17007L33.6974 3.51229C33.1805 3.2205 32.6303 2.99541 32.0634 2.83701V0.93622C32.0634 0.477695 31.6882 0.102539 31.2297 0.102539H28.787C28.3285 0.102539 27.9533 0.477695 27.9533 0.93622V2.82868C27.3864 2.98707 26.8362 3.21217 26.3193 3.50396L24.9771 2.16173C24.6519 1.83659 24.1267 1.83659 23.8016 2.16173L22.0759 3.88745C21.7507 4.21258 21.7507 4.7378 22.0759 5.06294L23.4181 6.40517C23.1263 6.92205 22.9012 7.47228 22.7428 8.03918H20.8337C20.3752 8.03918 20 8.41434 20 8.87286V11.3155C20 11.7741 20.3752 12.1492 20.8337 12.1492H22.7261C22.8845 12.7161 23.1096 13.2664 23.4014 13.7832L22.0592 15.1255C21.7341 15.4506 21.7341 15.9758 22.0592 16.301L23.7849 18.0267C24.11 18.3518 24.6353 18.3518 24.9604 18.0267L26.3026 16.6844C26.8195 16.9762 27.3697 17.2013 27.9366 17.3597V19.2689C27.9366 19.7274 28.3118 20.1025 28.7703 20.1025H31.213C31.6715 20.1025 32.0467 19.7274 32.0467 19.2689V17.3764C32.6136 17.218 33.1638 16.9929 33.6807 16.7011L35.0229 18.0433C35.3481 18.3685 35.8733 18.3685 36.1984 18.0433L37.9241 16.3176C38.2493 15.9925 38.2493 15.4673 37.9241 15.1421L36.5819 13.7999C36.8737 13.283 37.0988 12.7328 37.2572 12.1659H39.1497C39.6082 12.1659 39.9833 11.7907 39.9833 11.3322V8.88953C40 8.41434 39.6248 8.04752 39.1663 8.04752ZM38.3326 10.4902H36.6069C36.2068 10.4902 35.8566 10.7737 35.7899 11.1738C35.6399 11.9908 35.3231 12.7495 34.8479 13.4414C34.6228 13.7749 34.6644 14.2168 34.9479 14.5002L36.1651 15.7174L35.6148 16.2676L34.3977 15.0504C34.1142 14.767 33.664 14.7253 33.3389 14.9504C32.6553 15.4256 31.8883 15.7424 31.0713 15.8925C30.6795 15.9675 30.3877 16.3093 30.3877 16.7095V18.4352H29.6123V16.7095C29.6123 16.3093 29.3289 15.9591 28.9287 15.8925C28.1117 15.7424 27.3531 15.4256 26.6611 14.9504C26.3276 14.7253 25.8858 14.7586 25.6023 15.0504L24.3852 16.2676L23.8349 15.7174L25.0521 14.5002C25.3356 14.2168 25.3772 13.7666 25.1521 13.4414C24.6769 12.7578 24.3602 11.9908 24.2101 11.1738C24.1351 10.782 23.7932 10.4902 23.3931 10.4902H21.6674V9.71488H23.3931C23.7932 9.71488 24.1434 9.43143 24.2101 9.03126C24.3602 8.21425 24.6769 7.4556 25.1521 6.76365C25.3772 6.43018 25.3356 5.98833 25.0521 5.70487L23.8349 4.47936L24.3852 3.92913L25.6023 5.14631C25.8858 5.42976 26.336 5.47144 26.6611 5.24635C27.3447 4.77115 28.1117 4.45435 28.9287 4.30429C29.3206 4.22926 29.6123 3.88745 29.6123 3.48728V1.7699H30.3877V3.49562C30.3877 3.89579 30.6711 4.24593 31.0713 4.31263C31.8883 4.46269 32.6469 4.77949 33.3389 5.25469C33.6724 5.47978 34.1142 5.4381 34.3977 5.15464L35.6148 3.92913L36.1651 4.47936L34.9479 5.69654C34.6644 5.97999 34.6228 6.43018 34.8479 6.75531C35.3231 7.43893 35.6399 8.20592 35.7899 9.02292C35.8649 9.41475 36.2068 9.70654 36.6069 9.70654H38.3326V10.4902Z" fill="#01BC8C"/>
<path d="M14.1641 13.4326H11.6631V15.9337H14.1641V13.4326Z" fill="#01BC8C"/>
<path d="M18.3326 13.4326H15.8315V15.9337H18.3326V13.4326Z" fill="#01BC8C"/>
</svg>
