<svg width="37" height="37" viewBox="0 0 37 37" fill="none" xmlns="http://www.w3.org/2000/svg">
<path d="M22.9271 9.93848H6.11377V11.467H22.9271V9.93848Z" fill="#01BC8C"/>
<path d="M22.9271 14.5234H6.11377V16.0519H22.9271V14.5234Z" fill="#01BC8C"/>
<path d="M19.1059 19.1094H6.11377V20.6379H19.1059V19.1094Z" fill="#01BC8C"/>
<path d="M15.2847 23.6943H6.11377V25.2228H15.2847V23.6943Z" fill="#01BC8C"/>
<path d="M15.2847 28.2803H6.11377V29.8088H15.2847V28.2803Z" fill="#01BC8C"/>
<path d="M29.0412 13.4429V5.80047L23.2437 0.00292969H0V36.6865H29.0412V23.2466L37 15.2878L32.0982 10.3859L29.0412 13.4429ZM28.2769 16.3684L31.0175 19.109L21.8466 28.2799H19.106V25.5393L28.2769 16.3684ZM23.6915 2.61205L26.4321 5.35262H23.6915V2.61205ZM27.5127 35.158H1.52848V1.53141H22.163V6.8811H27.5127V14.9714L17.5776 24.9065V29.8084H22.4794L27.5127 24.7751V35.158ZM32.0982 18.0283L29.3576 15.2878L32.0982 12.5472L34.8387 15.2878L32.0982 18.0283Z" fill="#01BC8C"/>
</svg>
