<svg width="42" height="42" viewBox="0 0 42 42" fill="none" xmlns="http://www.w3.org/2000/svg">
<path d="M23.7099 6.77448V5.41964C23.7099 4.70099 23.4244 4.01177 22.9162 3.50361C22.4081 2.99544 21.7189 2.70996 21.0002 2.70996C20.2816 2.70996 19.5923 2.99544 19.0842 3.50361C18.576 4.01177 18.2905 4.70099 18.2905 5.41964V6.77448C18.2905 7.49313 18.576 8.18234 19.0842 8.69051C19.5923 9.19867 20.2816 9.48415 21.0002 9.48415C21.7189 9.48415 22.4081 9.19867 22.9162 8.69051C23.4244 8.18234 23.7099 7.49313 23.7099 6.77448ZM22.355 6.77448C22.355 7.1338 22.2123 7.47841 21.9582 7.73249C21.7041 7.98657 21.3595 8.12932 21.0002 8.12932C20.6409 8.12932 20.2963 7.98657 20.0422 7.73249C19.7881 7.47841 19.6454 7.1338 19.6454 6.77448V5.41964C19.6454 5.06031 19.7881 4.7157 20.0422 4.46162C20.2963 4.20754 20.6409 4.0648 21.0002 4.0648C21.3595 4.0648 21.7041 4.20754 21.9582 4.46162C22.2123 4.7157 22.355 5.06031 22.355 5.41964V6.77448Z" fill="#01BC8C"/>
<path d="M21.0001 16.2581C22.6079 16.2581 24.1796 15.7813 25.5164 14.8881C26.8532 13.9948 27.8951 12.7253 28.5104 11.2399C29.1256 9.7545 29.2866 8.12002 28.973 6.54314C28.6593 4.96626 27.8851 3.51781 26.7482 2.38094C25.6114 1.24408 24.1629 0.469861 22.586 0.156201C21.0091 -0.15746 19.3747 0.0035222 17.8893 0.618789C16.4039 1.23406 15.1343 2.27597 14.2411 3.61279C13.3479 4.9496 12.8711 6.52127 12.8711 8.12904C12.8737 10.2842 13.7309 12.3504 15.2549 13.8743C16.7788 15.3982 18.845 16.2555 21.0001 16.2581ZM25.0646 13.545C24.8479 13.7073 24.6217 13.8566 24.3872 13.9921V13.5484C24.3872 13.3687 24.3159 13.1964 24.1888 13.0694C24.0618 12.9423 23.8895 12.871 23.7098 12.871C23.5301 12.871 23.3578 12.9423 23.2308 13.0694C23.1038 13.1964 23.0324 13.3687 23.0324 13.5484V14.5916C21.7094 15.0071 20.2909 15.0071 18.9679 14.5916V13.5484C18.9679 13.3687 18.8965 13.1964 18.7695 13.0694C18.6424 12.9423 18.4701 12.871 18.2904 12.871C18.1108 12.871 17.9385 12.9423 17.8114 13.0694C17.6844 13.1964 17.613 13.3687 17.613 13.5484V13.9921C17.3786 13.8566 17.1524 13.7073 16.9356 13.545V12.871C16.9363 12.3322 17.1507 11.8157 17.5316 11.4347C17.9126 11.0538 18.4291 10.8394 18.9679 10.8387H23.0324C23.5712 10.8394 24.0877 11.0538 24.4686 11.4347C24.8496 11.8157 25.0639 12.3322 25.0646 12.871V13.545ZM21.0001 1.35484C22.2657 1.35392 23.5061 1.70778 24.5807 2.37626C25.6553 3.04473 26.5209 4.00105 27.0795 5.13668C27.638 6.27231 27.8669 7.54176 27.7404 8.80095C27.6139 10.0601 27.1369 11.2587 26.3636 12.2604C26.2198 11.4815 25.808 10.7775 25.1996 10.2704C24.5911 9.76325 23.8244 9.48501 23.0324 9.48388H18.9679C18.1758 9.48501 17.4091 9.76325 16.8007 10.2704C16.1923 10.7775 15.7804 11.4815 15.6367 12.2604C14.8634 11.2587 14.3864 10.0601 14.2598 8.80095C14.1333 7.54176 14.3623 6.27231 14.9208 5.13668C15.4793 4.00105 16.345 3.04473 17.4196 2.37626C18.4941 1.70778 19.7346 1.35392 21.0001 1.35484Z" fill="#01BC8C"/>
<path d="M36.5805 19.6456V18.2907C36.5805 17.5721 36.295 16.8829 35.7868 16.3747C35.2787 15.8665 34.5895 15.5811 33.8708 15.5811C33.1522 15.5811 32.4629 15.8665 31.9548 16.3747C31.4466 16.8829 31.1611 17.5721 31.1611 18.2907V19.6456C31.1611 20.3642 31.4466 21.0534 31.9548 21.5616C32.4629 22.0698 33.1522 22.3552 33.8708 22.3552C34.5895 22.3552 35.2787 22.0698 35.7868 21.5616C36.295 21.0534 36.5805 20.3642 36.5805 19.6456ZM35.2256 19.6456C35.2256 20.0049 35.0829 20.3495 34.8288 20.6036C34.5747 20.8577 34.2301 21.0004 33.8708 21.0004C33.5115 21.0004 33.1669 20.8577 32.9128 20.6036C32.6587 20.3495 32.516 20.0049 32.516 19.6456V18.2907C32.516 17.9314 32.6587 17.5868 32.9128 17.3327C33.1669 17.0786 33.5115 16.9359 33.8708 16.9359C34.2301 16.9359 34.5747 17.0786 34.8288 17.3327C35.0829 17.5868 35.2256 17.9314 35.2256 18.2907V19.6456Z" fill="#01BC8C"/>
<path d="M33.8707 12.8711C32.263 12.8711 30.6913 13.3479 29.3545 14.2411C28.0177 15.1343 26.9758 16.4039 26.3605 17.8893C25.7452 19.3747 25.5842 21.0091 25.8979 22.586C26.2116 24.1629 26.9858 25.6114 28.1226 26.7482C29.2595 27.8851 30.708 28.6593 32.2848 28.973C33.8617 29.2866 35.4962 29.1256 36.9816 28.5104C38.467 27.8951 39.7366 26.8532 40.6298 25.5164C41.523 24.1796 41.9998 22.6079 41.9998 21.0001C41.9972 18.845 41.1399 16.7788 39.616 15.2549C38.0921 13.7309 36.0259 12.8737 33.8707 12.8711ZM37.9353 26.4161C37.7185 26.5784 37.4923 26.7277 37.2578 26.8632V26.4195C37.2578 26.2398 37.1865 26.0675 37.0594 25.9405C36.9324 25.8134 36.7601 25.7421 36.5804 25.7421C36.4008 25.7421 36.2284 25.8134 36.1014 25.9405C35.9744 26.0675 35.903 26.2398 35.903 26.4195V27.4627C34.58 27.8782 33.1615 27.8782 31.8385 27.4627V26.4195C31.8385 26.2398 31.7671 26.0675 31.6401 25.9405C31.513 25.8134 31.3407 25.7421 31.1611 25.7421C30.9814 25.7421 30.8091 25.8134 30.6821 25.9405C30.555 26.0675 30.4836 26.2398 30.4836 26.4195V26.8632C30.2492 26.7277 30.023 26.5784 29.8062 26.4161V25.7421C29.8069 25.2033 30.0213 24.6868 30.4022 24.3058C30.7832 23.9249 31.2997 23.7105 31.8385 23.7098H35.903C36.4418 23.7105 36.9583 23.9249 37.3392 24.3058C37.7202 24.6868 37.9345 25.2033 37.9353 25.7421V26.4161ZM39.2342 25.1315C39.0904 24.3526 38.6786 23.6486 38.0702 23.1415C37.4618 22.6343 36.6951 22.3561 35.903 22.355H31.8385C31.0464 22.3561 30.2797 22.6343 29.6713 23.1415C29.0629 23.6486 28.6511 24.3526 28.5073 25.1315C27.734 24.1293 27.257 22.9304 27.1305 21.6708C27.0039 20.4113 27.2328 19.1415 27.7912 18.0054C28.3496 16.8693 29.2152 15.9124 30.2897 15.2432C31.3643 14.5741 32.6048 14.2194 33.8707 14.2194C35.1366 14.2194 36.3772 14.5741 37.4518 15.2432C38.5263 15.9124 39.3919 16.8693 39.9503 18.0054C40.5087 19.1415 40.7376 20.4113 40.611 21.6708C40.4844 22.9304 40.0075 24.1293 39.2342 25.1315Z" fill="#01BC8C"/>
<path d="M10.8388 19.6456V18.2907C10.8388 17.5721 10.5533 16.8829 10.0451 16.3747C9.53698 15.8665 8.84776 15.5811 8.12911 15.5811C7.41046 15.5811 6.72124 15.8665 6.21308 16.3747C5.70492 16.8829 5.41943 17.5721 5.41943 18.2907V19.6456C5.41943 20.3642 5.70492 21.0534 6.21308 21.5616C6.72124 22.0698 7.41046 22.3552 8.12911 22.3552C8.84776 22.3552 9.53698 22.0698 10.0451 21.5616C10.5533 21.0534 10.8388 20.3642 10.8388 19.6456ZM9.48395 19.6456C9.48395 20.0049 9.34121 20.3495 9.08713 20.6036C8.83305 20.8577 8.48844 21.0004 8.12911 21.0004C7.76979 21.0004 7.42518 20.8577 7.1711 20.6036C6.91701 20.3495 6.77427 20.0049 6.77427 19.6456V18.2907C6.77427 17.9314 6.91701 17.5868 7.1711 17.3327C7.42518 17.0786 7.76979 16.9359 8.12911 16.9359C8.48844 16.9359 8.83305 17.0786 9.08713 17.3327C9.34121 17.5868 9.48395 17.9314 9.48395 18.2907V19.6456Z" fill="#01BC8C"/>
<path d="M8.12904 12.8711C6.52127 12.8711 4.9496 13.3479 3.61279 14.2411C2.27598 15.1343 1.23406 16.4039 0.618789 17.8893C0.0035222 19.3747 -0.15746 21.0091 0.156201 22.586C0.469861 24.1629 1.24408 25.6114 2.38094 26.7482C3.51781 27.8851 4.96626 28.6593 6.54314 28.973C8.12002 29.2866 9.7545 29.1256 11.2399 28.5104C12.7253 27.8951 13.9949 26.8532 14.8881 25.5164C15.7813 24.1796 16.2581 22.6079 16.2581 21.0001C16.2555 18.845 15.3982 16.7788 13.8743 15.2549C12.3504 13.7309 10.2842 12.8737 8.12904 12.8711ZM12.1936 26.4161C11.9768 26.5784 11.7506 26.7277 11.5161 26.8632V26.4195C11.5161 26.2398 11.4448 26.0675 11.3177 25.9405C11.1907 25.8134 11.0184 25.7421 10.8387 25.7421C10.6591 25.7421 10.4867 25.8134 10.3597 25.9405C10.2327 26.0675 10.1613 26.2398 10.1613 26.4195V27.4627C8.83831 27.8782 7.41976 27.8782 6.09678 27.4627V26.4195C6.09678 26.2398 6.02541 26.0675 5.89837 25.9405C5.77133 25.8134 5.59902 25.7421 5.41936 25.7421C5.2397 25.7421 5.06739 25.8134 4.94035 25.9405C4.81331 26.0675 4.74194 26.2398 4.74194 26.4195V26.8632C4.50747 26.7277 4.28127 26.5784 4.06452 26.4161V25.7421C4.06524 25.2033 4.27958 24.6868 4.66055 24.3058C5.04151 23.9249 5.55801 23.7105 6.09678 23.7098H10.1613C10.7001 23.7105 11.2166 23.9249 11.5975 24.3058C11.9785 24.6868 12.1928 25.2033 12.1936 25.7421V26.4161ZM13.4925 25.1315C13.3487 24.3526 12.9369 23.6486 12.3285 23.1415C11.7201 22.6343 10.9534 22.3561 10.1613 22.355H6.09678C5.30472 22.3561 4.53802 22.6343 3.92959 23.1415C3.32116 23.6486 2.90936 24.3526 2.76557 25.1315C1.9923 24.1293 1.51535 22.9304 1.38878 21.6708C1.26222 20.4113 1.49112 19.1415 2.04951 18.0054C2.60791 16.8693 3.47346 15.9124 4.54802 15.2432C5.62258 14.5741 6.86315 14.2194 8.12904 14.2194C9.39493 14.2194 10.6355 14.5741 11.7101 15.2432C12.7846 15.9124 13.6502 16.8693 14.2086 18.0054C14.767 19.1415 14.9959 20.4113 14.8693 21.6708C14.7427 22.9304 14.2658 24.1293 13.4925 25.1315Z" fill="#01BC8C"/>
<path d="M23.7099 32.5157V31.1608C23.7099 30.4422 23.4244 29.753 22.9162 29.2448C22.4081 28.7367 21.7189 28.4512 21.0002 28.4512C20.2816 28.4512 19.5923 28.7367 19.0842 29.2448C18.576 29.753 18.2905 30.4422 18.2905 31.1608V32.5157C18.2905 33.2343 18.576 33.9236 19.0842 34.4317C19.5923 34.9399 20.2816 35.2254 21.0002 35.2254C21.7189 35.2254 22.4081 34.9399 22.9162 34.4317C23.4244 33.9236 23.7099 33.2343 23.7099 32.5157ZM22.355 32.5157C22.355 32.875 22.2123 33.2196 21.9582 33.4737C21.7041 33.7278 21.3595 33.8705 21.0002 33.8705C20.6409 33.8705 20.2963 33.7278 20.0422 33.4737C19.7881 33.2196 19.6454 32.875 19.6454 32.5157V31.1608C19.6454 30.8015 19.7881 30.4569 20.0422 30.2028C20.2963 29.9488 20.6409 29.806 21.0002 29.806C21.3595 29.806 21.7041 29.9488 21.9582 30.2028C22.2123 30.4569 22.355 30.8015 22.355 31.1608V32.5157Z" fill="#01BC8C"/>
<path d="M21.0001 25.7422C19.3924 25.7422 17.8207 26.2189 16.4839 27.1122C15.1471 28.0054 14.1052 29.275 13.4899 30.7604C12.8746 32.2458 12.7136 33.8802 13.0273 35.4571C13.341 37.034 14.1152 38.4824 15.252 39.6193C16.3889 40.7562 17.8374 41.5304 19.4142 41.8441C20.9911 42.1577 22.6256 41.9967 24.111 41.3815C25.5964 40.7662 26.8659 39.7243 27.7592 38.3875C28.6524 37.0507 29.1292 35.479 29.1292 33.8712C29.1266 31.7161 28.2693 29.6499 26.7454 28.126C25.2214 26.602 23.1553 25.7448 21.0001 25.7422ZM25.0646 39.2872C24.8479 39.4495 24.6217 39.5988 24.3872 39.7343V39.2906C24.3872 39.1109 24.3159 38.9386 24.1888 38.8116C24.0618 38.6845 23.8895 38.6132 23.7098 38.6132C23.5301 38.6132 23.3578 38.6845 23.2308 38.8116C23.1038 38.9386 23.0324 39.1109 23.0324 39.2906V40.3338C21.7094 40.7493 20.2909 40.7493 18.9679 40.3338V39.2906C18.9679 39.1109 18.8965 38.9386 18.7695 38.8116C18.6424 38.6845 18.4701 38.6132 18.2905 38.6132C18.1108 38.6132 17.9385 38.6845 17.8114 38.8116C17.6844 38.9386 17.613 39.1109 17.613 39.2906V39.7343C17.3786 39.5988 17.1524 39.4495 16.9356 39.2872V38.6132C16.9363 38.0744 17.1507 37.5579 17.5316 37.1769C17.9126 36.796 18.4291 36.5816 18.9679 36.5809H23.0324C23.5712 36.5816 24.0877 36.796 24.4686 37.1769C24.8496 37.5579 25.0639 38.0744 25.0646 38.6132V39.2872ZM26.3636 38.0026C26.2198 37.2237 25.808 36.5197 25.1996 36.0126C24.5911 35.5054 23.8245 35.2272 23.0324 35.2261H18.9679C18.1758 35.2272 17.4091 35.5054 16.8007 36.0126C16.1923 36.5197 15.7805 37.2237 15.6367 38.0026C14.8634 37.0004 14.3864 35.8015 14.2599 34.5419C14.1333 33.2824 14.3622 32.0126 14.9206 30.8765C15.479 29.7404 16.3446 28.7835 17.4191 28.1143C18.4937 27.4452 19.7342 27.0905 21.0001 27.0905C22.266 27.0905 23.5066 27.4452 24.5811 28.1143C25.6557 28.7835 26.5213 29.7404 27.0797 30.8765C27.6381 32.0126 27.8669 33.2824 27.7404 34.5419C27.6138 35.8015 27.1369 37.0004 26.3636 38.0026Z" fill="#01BC8C"/>
<path d="M3.38689 12.8713C3.56655 12.8713 3.73886 12.7999 3.8659 12.6728C3.99294 12.5458 4.06431 12.3735 4.06431 12.1938V4.0648H12.1933C12.373 4.0648 12.5453 3.99343 12.6724 3.86639C12.7994 3.73935 12.8708 3.56704 12.8708 3.38738C12.8708 3.20772 12.7994 3.03541 12.6724 2.90837C12.5453 2.78133 12.373 2.70996 12.1933 2.70996H3.38689C3.20723 2.70996 3.03493 2.78133 2.90788 2.90837C2.78084 3.03541 2.70947 3.20772 2.70947 3.38738V12.1938C2.70947 12.3735 2.78084 12.5458 2.90788 12.6728C3.03493 12.7999 3.20723 12.8713 3.38689 12.8713Z" fill="#01BC8C"/>
<path d="M29.8063 4.0648H37.9354V12.1938C37.9354 12.3735 38.0067 12.5458 38.1338 12.6728C38.2608 12.7999 38.4331 12.8713 38.6128 12.8713C38.7924 12.8713 38.9647 12.7999 39.0918 12.6728C39.2188 12.5458 39.2902 12.3735 39.2902 12.1938V3.38738C39.2902 3.20772 39.2188 3.03541 39.0918 2.90837C38.9647 2.78133 38.7924 2.70996 38.6128 2.70996H29.8063C29.6267 2.70996 29.4544 2.78133 29.3273 2.90837C29.2003 3.03541 29.1289 3.20772 29.1289 3.38738C29.1289 3.56704 29.2003 3.73935 29.3273 3.86639C29.4544 3.99343 29.6267 4.0648 29.8063 4.0648Z" fill="#01BC8C"/>
<path d="M38.6128 29.1289C38.4331 29.1289 38.2608 29.2003 38.1338 29.3273C38.0067 29.4544 37.9354 29.6267 37.9354 29.8063V37.9354H29.8063C29.6267 37.9354 29.4544 38.0067 29.3273 38.1338C29.2003 38.2608 29.1289 38.4331 29.1289 38.6128C29.1289 38.7924 29.2003 38.9647 29.3273 39.0918C29.4544 39.2188 29.6267 39.2902 29.8063 39.2902H38.6128C38.7924 39.2902 38.9647 39.2188 39.0918 39.0918C39.2188 38.9647 39.2902 38.7924 39.2902 38.6128V29.8063C39.2902 29.6267 39.2188 29.4544 39.0918 29.3273C38.9647 29.2003 38.7924 29.1289 38.6128 29.1289Z" fill="#01BC8C"/>
<path d="M12.1933 37.9354H4.06431V29.8063C4.06431 29.6267 3.99294 29.4544 3.8659 29.3273C3.73886 29.2003 3.56655 29.1289 3.38689 29.1289C3.20723 29.1289 3.03493 29.2003 2.90788 29.3273C2.78084 29.4544 2.70947 29.6267 2.70947 29.8063V38.6128C2.70947 38.7924 2.78084 38.9647 2.90788 39.0918C3.03493 39.2188 3.20723 39.2902 3.38689 39.2902H12.1933C12.373 39.2902 12.5453 39.2188 12.6724 39.0918C12.7994 38.9647 12.8708 38.7924 12.8708 38.6128C12.8708 38.4331 12.7994 38.2608 12.6724 38.1338C12.5453 38.0067 12.373 37.9354 12.1933 37.9354Z" fill="#01BC8C"/>
</svg>
