<svg width="45" height="45" viewBox="0 0 45 45" fill="none" xmlns="http://www.w3.org/2000/svg">
<path d="M42.9961 31.5693C42.6229 30.9244 42.0095 30.4536 41.29 30.2599C40.5705 30.0662 39.8036 30.1653 39.157 30.5357L32.3016 34.4943C31.9272 33.9334 31.363 33.5264 30.7125 33.3482L20.2219 30.5428C19.4145 30.3249 18.5648 30.3176 17.7539 30.5217L14.0625 31.4428V30.2334C14.0625 30.0469 13.9884 29.8681 13.8566 29.7362C13.7247 29.6044 13.5458 29.5303 13.3594 29.5303H7.73438C7.54791 29.5303 7.36903 29.6044 7.2372 29.7362C7.10536 29.8681 7.03125 30.0469 7.03125 30.2334V30.9365H2.10938C1.92289 30.9365 1.74405 31.0106 1.61219 31.1425C1.48033 31.2743 1.40625 31.4532 1.40625 31.6396V41.4834C1.40625 41.6699 1.48033 41.8487 1.61219 41.9806C1.74405 42.1124 1.92289 42.1865 2.10938 42.1865H7.03125V42.8896C7.03125 43.0761 7.10536 43.255 7.2372 43.3868C7.36903 43.5187 7.54791 43.5928 7.73438 43.5928H13.3594C13.5458 43.5928 13.7247 43.5187 13.8566 43.3868C13.9884 43.255 14.0625 43.0761 14.0625 42.8896V41.9193L14.9695 42.3693C15.6533 42.7097 16.4064 42.8877 17.1703 42.8896H27.6961C28.5605 42.8915 29.4099 42.6634 30.157 42.2287L41.9695 35.4084C42.613 35.0338 43.0821 34.4198 43.2744 33.7005C43.4667 32.9813 43.3667 32.2151 42.9961 31.5693ZM7.03125 40.7803H2.8125V32.3428H7.03125V40.7803ZM12.6562 42.1865H8.4375V30.9365H12.6562V42.1865ZM41.2664 34.192L29.4539 41.0123C28.9197 41.3215 28.3133 41.484 27.6961 41.4834H17.1703C16.6234 41.4845 16.0838 41.3568 15.5953 41.1107L14.0625 40.3443V32.8912L18.0914 31.8857C18.6712 31.7391 19.2789 31.744 19.8563 31.8998L30.3469 34.7123C30.6168 34.7824 30.8596 34.9315 31.0442 35.1404C31.2288 35.3494 31.3469 35.6088 31.3831 35.8853C31.4194 36.1617 31.3722 36.4428 31.2477 36.6922C31.1233 36.9418 30.9271 37.1484 30.6844 37.2857C30.5259 37.3792 30.3503 37.4399 30.1678 37.464C29.9854 37.4882 29.8 37.4754 29.6227 37.4264L21.2344 35.1764C21.0535 35.1279 20.8607 35.1532 20.6986 35.2469C20.5364 35.3405 20.418 35.4947 20.3695 35.6756C20.321 35.8565 20.3464 36.0492 20.4401 36.2114C20.5336 36.3736 20.6878 36.4919 20.8687 36.5404L29.257 38.7834C29.4955 38.8476 29.7413 38.8807 29.9883 38.8818C30.4803 38.8825 30.9634 38.7514 31.3875 38.5021C31.7089 38.3186 31.9906 38.073 32.2163 37.7798C32.442 37.4864 32.6072 37.1512 32.7023 36.7936C32.7803 36.4836 32.8065 36.1629 32.7797 35.8443L39.8602 31.7592C40.1832 31.5798 40.5634 31.5331 40.9203 31.6289C41.2771 31.7247 41.5828 31.9555 41.7727 32.2725C41.9594 32.5943 42.0109 32.977 41.9161 33.3368C41.8212 33.6966 41.5876 34.0041 41.2664 34.192Z" fill="#01BC8C"/>
<path d="M10.5469 41.4834C10.7333 41.4834 10.9122 41.4093 11.0441 41.2775C11.1759 41.1456 11.25 40.9667 11.25 40.7803V40.0771C11.25 39.8907 11.1759 39.7118 11.0441 39.58C10.9122 39.4481 10.7333 39.374 10.5469 39.374C10.3604 39.374 10.1815 39.4481 10.0497 39.58C9.91786 39.7118 9.84375 39.8907 9.84375 40.0771V40.7803C9.84375 40.9667 9.91786 41.1456 10.0497 41.2775C10.1815 41.4093 10.3604 41.4834 10.5469 41.4834Z" fill="#01BC8C"/>
<path d="M32.3438 11.9521H29.707L29.5805 11.6568L31.4508 9.79355C31.5825 9.6608 31.6564 9.48137 31.6564 9.29434C31.6564 9.10731 31.5825 8.92787 31.4508 8.79512L28.4695 5.81387C28.3368 5.68214 28.1573 5.60822 27.9703 5.60822C27.7833 5.60822 27.6038 5.68214 27.4711 5.81387L25.6078 7.68418L25.3125 7.55762V4.9209C25.3125 4.73442 25.2384 4.55558 25.1066 4.42371C24.9747 4.29185 24.7958 4.21777 24.6094 4.21777H20.3906C20.2042 4.21777 20.0253 4.29185 19.8934 4.42371C19.7616 4.55558 19.6875 4.73442 19.6875 4.9209V7.55762L19.3922 7.68418L17.5289 5.81387C17.3962 5.68214 17.2167 5.60822 17.0297 5.60822C16.8427 5.60822 16.6632 5.68214 16.5305 5.81387L13.5492 8.79512C13.4175 8.92787 13.3436 9.10731 13.3436 9.29434C13.3436 9.48137 13.4175 9.6608 13.5492 9.79355L15.4195 11.6568L15.293 11.9521H12.6562C12.4698 11.9521 12.2909 12.0263 12.1591 12.1581C12.0272 12.2899 11.9531 12.4688 11.9531 12.6553V16.874C11.9531 17.0605 12.0272 17.2394 12.1591 17.3712C12.2909 17.503 12.4698 17.5771 12.6562 17.5771H15.293L15.4195 17.8725L13.5492 19.7357C13.4197 19.8698 13.3467 20.0486 13.3453 20.235C13.3481 20.4211 13.4208 20.5994 13.5492 20.7342L16.5305 23.7154C16.6646 23.8449 16.8433 23.9179 17.0297 23.9193C17.2158 23.9166 17.3941 23.8438 17.5289 23.7154L19.3922 21.8451L19.6875 21.9717V24.6084C19.6875 24.7949 19.7616 24.9737 19.8934 25.1056C20.0253 25.2374 20.2042 25.3115 20.3906 25.3115H24.6094C24.7958 25.3115 24.9747 25.2374 25.1066 25.1056C25.2384 24.9737 25.3125 24.7949 25.3125 24.6084V21.9717L25.6078 21.8451L27.4711 23.7154C27.6071 23.8409 27.7853 23.9105 27.9703 23.9105C28.1553 23.9105 28.3335 23.8409 28.4695 23.7154L31.4508 20.7342C31.5792 20.5994 31.6519 20.4211 31.6547 20.235C31.6533 20.0486 31.5803 19.8698 31.4508 19.7357L29.5805 17.8725L29.707 17.5771H32.3438C32.5302 17.5771 32.7091 17.503 32.8409 17.3712C32.9728 17.2394 33.0469 17.0605 33.0469 16.874V12.6553C33.0469 12.4688 32.9728 12.2899 32.8409 12.1581C32.7091 12.0263 32.5302 11.9521 32.3438 11.9521ZM31.6406 16.1709H29.2078C29.0595 16.171 28.9151 16.218 28.7951 16.3051C28.6752 16.3922 28.5858 16.5151 28.5398 16.6561C28.4311 17.0093 28.2874 17.3508 28.1109 17.6756C28.0392 17.8096 28.0122 17.963 28.0337 18.1135C28.0552 18.264 28.1241 18.4037 28.2305 18.5123L29.9602 20.235L27.9703 22.2248L26.2477 20.4951C26.139 20.3887 25.9994 20.3198 25.8488 20.2983C25.6984 20.2769 25.545 20.3039 25.4109 20.3756C25.0862 20.5521 24.7447 20.6958 24.3914 20.8045C24.2504 20.8505 24.1276 20.9398 24.0405 21.0598C23.9534 21.1798 23.9064 21.3242 23.9062 21.4725V23.9053H21.0938V21.4725C21.0936 21.3242 21.0466 21.1798 20.9595 21.0598C20.8724 20.9398 20.7496 20.8505 20.6086 20.8045C20.2553 20.6958 19.9138 20.5521 19.5891 20.3756C19.455 20.3039 19.3016 20.2769 19.1512 20.2983C19.0006 20.3198 18.861 20.3887 18.7523 20.4951L17.0297 22.2248L15.0398 20.235L16.7695 18.5123C16.8759 18.4037 16.9448 18.264 16.9663 18.1135C16.9878 17.963 16.9608 17.8096 16.8891 17.6756C16.7126 17.3508 16.5689 17.0093 16.4602 16.6561C16.4142 16.5151 16.3248 16.3922 16.2049 16.3051C16.0849 16.218 15.9405 16.171 15.7922 16.1709H13.3594V13.3584H15.7922C15.9405 13.3583 16.0849 13.3113 16.2049 13.2242C16.3248 13.1371 16.4142 13.0142 16.4602 12.8732C16.5689 12.52 16.7126 12.1785 16.8891 11.8537C16.9608 11.7197 16.9878 11.5663 16.9663 11.4158C16.9448 11.2653 16.8759 11.1256 16.7695 11.017L15.0398 9.29434L17.0297 7.30449L18.7523 9.03418C18.861 9.14056 19.0006 9.20947 19.1512 9.23098C19.3016 9.25243 19.455 9.22543 19.5891 9.15371C19.9138 8.97723 20.2553 8.83351 20.6086 8.7248C20.7496 8.67882 20.8724 8.58945 20.9595 8.4695C21.0466 8.34955 21.0936 8.20513 21.0938 8.05684V5.62402H23.9062V8.05684C23.9064 8.20513 23.9534 8.34955 24.0405 8.4695C24.1276 8.58945 24.2504 8.67882 24.3914 8.7248C24.7447 8.83351 25.0862 8.97723 25.4109 9.15371C25.545 9.22543 25.6984 9.25243 25.8488 9.23098C25.9994 9.20947 26.139 9.14056 26.2477 9.03418L27.9703 7.30449L29.9602 9.29434L28.2305 11.017C28.1241 11.1256 28.0552 11.2653 28.0337 11.4158C28.0122 11.5663 28.0392 11.7197 28.1109 11.8537C28.2874 12.1785 28.4311 12.52 28.5398 12.8732C28.5858 13.0142 28.6752 13.1371 28.7951 13.2242C28.9151 13.3113 29.0595 13.3583 29.2078 13.3584H31.6406V16.1709Z" fill="#01BC8C"/>
<path d="M26.7187 14.7646C26.7187 13.9302 26.4713 13.1146 26.0077 12.4208C25.5442 11.7271 24.8853 11.1864 24.1144 10.867C23.3435 10.5477 22.4953 10.4642 21.677 10.627C20.8586 10.7897 20.1069 11.1915 19.5169 11.7816C18.9269 12.3716 18.5251 13.1233 18.3623 13.9416C18.1995 14.7599 18.2831 15.6082 18.6024 16.3791C18.9217 17.15 19.4624 17.8088 20.1562 18.2724C20.85 18.736 21.6656 18.9834 22.5 18.9834C23.6185 18.9823 24.6909 18.5375 25.4819 17.7465C26.2728 16.9556 26.7176 15.8832 26.7187 14.7646ZM19.6875 14.7646C19.6875 14.2084 19.8524 13.6646 20.1615 13.2021C20.4706 12.7396 20.9098 12.3791 21.4237 12.1662C21.9376 11.9533 22.5031 11.8976 23.0487 12.0062C23.5943 12.1147 24.0954 12.3826 24.4887 12.7759C24.882 13.1693 25.1499 13.6704 25.2584 14.2159C25.367 14.7615 25.3113 15.327 25.0984 15.8409C24.8856 16.3548 24.5251 16.7941 24.0625 17.1032C23.6 17.4122 23.0562 17.5771 22.5 17.5771C21.754 17.5771 21.0387 17.2808 20.5113 16.7534C19.9838 16.2259 19.6875 15.5106 19.6875 14.7646Z" fill="#01BC8C"/>
<path d="M38.6719 16.1709H37.2656C37.2656 12.2548 35.71 8.4991 32.9408 5.73003C30.1718 2.96093 26.4161 1.40527 22.5 1.40527C18.5839 1.40527 14.8282 2.96093 12.0592 5.73003C9.29004 8.4991 7.73438 12.2548 7.73438 16.1709H6.32812C5.20924 16.1709 4.13619 16.6153 3.34502 17.4066C2.55385 18.1977 2.10938 19.2708 2.10938 20.3896C2.10938 21.5085 2.55385 22.5816 3.34502 23.3727C4.13619 24.164 5.20924 24.6084 6.32812 24.6084H9.84375C10.0302 24.6084 10.2091 24.5343 10.3409 24.4025C10.4728 24.2706 10.5469 24.0917 10.5469 23.9053V16.874C10.5469 16.6876 10.4728 16.5087 10.3409 16.3768C10.2091 16.245 10.0302 16.1709 9.84375 16.1709H9.14062C9.14062 12.6278 10.5481 9.22979 13.0535 6.72439C15.5589 4.21903 18.9569 2.81152 22.5 2.81152C26.0431 2.81152 29.4411 4.21903 31.9465 6.72439C34.4519 9.22979 35.8594 12.6278 35.8594 16.1709H35.1562C34.9698 16.1709 34.7909 16.245 34.6591 16.3768C34.5272 16.5087 34.4531 16.6876 34.4531 16.874V23.9053C34.4531 24.0917 34.5272 24.2706 34.6591 24.4025C34.7909 24.5343 34.9698 24.6084 35.1562 24.6084H35.8594V26.7178C35.8594 26.9042 35.7853 27.0831 35.6534 27.215C35.5216 27.3468 35.3427 27.4209 35.1562 27.4209H30.1078C29.9618 27.0112 29.6932 26.6563 29.3385 26.4047C28.9837 26.1531 28.56 26.0169 28.125 26.0146H26.7188C26.1593 26.0146 25.6228 26.2369 25.2272 26.6325C24.8316 27.0281 24.6094 27.5646 24.6094 28.124C24.6094 28.6834 24.8316 29.22 25.2272 29.6156C25.6228 30.0111 26.1593 30.2334 26.7188 30.2334H28.125C28.56 30.2311 28.9837 30.095 29.3385 29.8433C29.6932 29.5917 29.9618 29.2369 30.1078 28.8271H35.1562C35.7152 28.8255 36.2507 28.6027 36.646 28.2075C37.0412 27.8123 37.2639 27.2767 37.2656 26.7178V24.6084H38.6719C39.7908 24.6084 40.8638 24.164 41.655 23.3727C42.4462 22.5816 42.8906 21.5085 42.8906 20.3896C42.8906 19.2708 42.4462 18.1977 41.655 17.4066C40.8638 16.6153 39.7908 16.1709 38.6719 16.1709ZM6.32812 23.2021C5.5822 23.2021 4.86683 22.9059 4.33939 22.3784C3.81194 21.851 3.51562 21.1356 3.51562 20.3896C3.51562 19.6437 3.81194 18.9283 4.33939 18.4009C4.86683 17.8734 5.5822 17.5771 6.32812 17.5771V23.2021ZM9.14062 23.2021H7.73438V17.5771H9.14062V23.2021ZM28.125 28.8271H26.7188C26.5323 28.8271 26.3534 28.753 26.2216 28.6212C26.0897 28.4894 26.0156 28.3105 26.0156 28.124C26.0156 27.9376 26.0897 27.7587 26.2216 27.6268C26.3534 27.495 26.5323 27.4209 26.7188 27.4209H28.125C28.3115 27.4209 28.4903 27.495 28.6222 27.6268C28.754 27.7587 28.8281 27.9376 28.8281 28.124C28.8281 28.3105 28.754 28.4894 28.6222 28.6212C28.4903 28.753 28.3115 28.8271 28.125 28.8271ZM37.2656 23.2021H35.8594V17.5771H37.2656V23.2021ZM38.6719 23.2021V17.5771C39.4178 17.5771 40.1332 17.8734 40.6606 18.4009C41.1881 18.9283 41.4844 19.6437 41.4844 20.3896C41.4844 21.1356 41.1881 21.851 40.6606 22.3784C40.1332 22.9059 39.4178 23.2021 38.6719 23.2021Z" fill="#01BC8C"/>
</svg>
