<svg width="40" height="40" viewBox="0 0 40 40" fill="none" xmlns="http://www.w3.org/2000/svg">
<path d="M12.0009 16.0039H10.6675V20.0041H12.0009V16.0039Z" fill="#01BC8C"/>
<path d="M14.0009 14.6709H12.6675V20.0045H14.0009V14.6709Z" fill="#01BC8C"/>
<path d="M16.0009 13.3369H14.6675V20.004H16.0009V13.3369Z" fill="#01BC8C"/>
<path d="M18.0009 12.0039H16.6675V20.0044H18.0009V12.0039Z" fill="#01BC8C"/>
<path d="M20.0014 11.3369H18.668V20.0041H20.0014V11.3369Z" fill="#01BC8C"/>
<path d="M27.3682 22.6573C27.0594 22.3469 26.6921 22.1008 26.2876 21.9332C25.883 21.7657 25.4493 21.68 25.0114 21.6813C24.8572 21.6857 24.7035 21.7006 24.5514 21.726L22.7013 19.8805C23.8231 18.0662 24.2391 15.903 23.8704 13.802C23.5017 11.701 22.374 9.80872 20.7014 8.48479C19.0289 7.16086 16.9283 6.49758 14.7988 6.62104C12.6692 6.74449 10.6593 7.64606 9.15097 9.15438C7.64264 10.6627 6.74107 12.6726 6.61762 14.8022C6.49417 16.9317 7.15744 19.0323 8.48137 20.7049C9.8053 22.3774 11.6976 23.5052 13.7986 23.8739C15.8996 24.2426 18.0628 23.8265 19.8771 22.7047L21.7225 24.5548C21.6972 24.7069 21.6823 24.8606 21.6779 25.0148C21.6766 25.4527 21.7623 25.8864 21.9298 26.291C22.0973 26.6955 22.3435 27.0628 22.6539 27.3716L33.9686 38.6863C34.5947 39.3069 35.4411 39.6543 36.3227 39.6523C37.2043 39.6504 38.0492 39.2993 38.6726 38.676C39.2959 38.0526 39.647 37.2077 39.6489 36.3261C39.6508 35.4445 39.3035 34.5981 38.6829 33.972L27.3682 22.6573ZM8.00041 15.3376C8.00041 13.8871 8.43053 12.4692 9.23637 11.2632C10.0422 10.0571 11.1876 9.11715 12.5277 8.56208C13.8677 8.007 15.3423 7.86177 16.7649 8.14474C18.1875 8.42772 19.4943 9.12619 20.5199 10.1518C21.5456 11.1775 22.244 12.4842 22.527 13.9068C22.81 15.3294 22.6648 16.804 22.1097 18.1441C21.5546 19.4842 20.6146 20.6295 19.4086 21.4354C18.2026 22.2412 16.7846 22.6713 15.3342 22.6713C13.3898 22.669 11.5258 21.8957 10.151 20.5208C8.7761 19.146 8.0027 17.2819 8.00041 15.3376ZM20.9678 21.9106C21.3042 21.6216 21.6182 21.3076 21.9072 20.9712L23.174 22.234C22.7996 22.4812 22.4791 22.8017 22.2319 23.176L20.9678 21.9106ZM37.7395 37.7429C37.3585 38.1065 36.8521 38.3094 36.3254 38.3094C35.7987 38.3094 35.2923 38.1065 34.9113 37.7429L23.5973 26.4289C23.4063 26.2444 23.2539 26.0237 23.1491 25.7797C23.0443 25.5356 22.9891 25.2732 22.9868 25.0076C22.9845 24.742 23.0351 24.4787 23.1356 24.2329C23.2362 23.9871 23.3847 23.7637 23.5725 23.5759C23.7603 23.3881 23.9836 23.2396 24.2294 23.1391C24.4753 23.0385 24.7386 22.9879 25.0042 22.9902C25.2698 22.9925 25.5322 23.0477 25.7762 23.1525C26.0203 23.2573 26.241 23.4097 26.4255 23.6007L37.7395 34.9147C38.1144 35.2898 38.3251 35.7984 38.3251 36.3288C38.3251 36.8592 38.1144 37.3678 37.7395 37.7429Z" fill="#01BC8C"/>
<path d="M31.4156 11.4171C31.7428 11.0899 31.9463 10.6593 31.9916 10.1988C32.0369 9.73825 31.9211 9.27628 31.6639 8.89156C31.4068 8.50685 31.0242 8.2232 30.5814 8.08895C30.1385 7.9547 29.6628 7.97816 29.2353 8.15532C28.8079 8.33248 28.455 8.65239 28.237 9.06053C28.0189 9.46868 27.9491 9.9398 28.0395 10.3936C28.1299 10.8475 28.3748 11.2559 28.7326 11.5494C29.0903 11.8429 29.5388 12.0033 30.0015 12.0032C30.5319 12.003 31.0406 11.7922 31.4156 11.4171ZM29.5302 9.53168C29.6234 9.43842 29.7422 9.37491 29.8715 9.34917C30.0009 9.32343 30.1349 9.33662 30.2568 9.38707C30.3786 9.43753 30.4827 9.52298 30.556 9.63262C30.6293 9.74227 30.6684 9.87118 30.6684 10.003C30.6684 10.1349 30.6293 10.2638 30.556 10.3735C30.4827 10.4831 30.3786 10.5686 30.2568 10.619C30.1349 10.6695 30.0009 10.6827 29.8715 10.6569C29.7422 10.6312 29.6234 10.5677 29.5302 10.4744C29.4052 10.3494 29.335 10.1798 29.335 10.003C29.335 9.82626 29.4052 9.65671 29.5302 9.53168Z" fill="#01BC8C"/>
<path d="M20.6879 26.6711H18.6678V26.1584C19.5123 25.8992 20.3233 25.5412 21.0839 25.0917L20.4052 23.943C19.6072 24.414 18.7473 24.7713 17.8504 25.0044C17.7043 25.0397 17.5743 25.1228 17.4808 25.2404C17.3873 25.358 17.3358 25.5035 17.3343 25.6537V29.338H13.3341V25.6551C13.3327 25.5048 13.2811 25.3594 13.1877 25.2417C13.0942 25.1241 12.9641 25.041 12.8181 25.0057C11.9268 24.7742 11.0719 24.4202 10.2779 23.9537C10.1495 23.8752 9.9986 23.8419 9.8491 23.8589C9.69959 23.8759 9.56004 23.9424 9.45255 24.0477L6.8484 26.6518L4.01957 23.823L6.62372 21.2188C6.72901 21.1113 6.79542 20.9718 6.81245 20.8223C6.82948 20.6728 6.79614 20.5219 6.71772 20.3934C6.2512 19.5995 5.89714 18.7446 5.66566 17.8533C5.63033 17.7073 5.54727 17.5772 5.42964 17.4837C5.312 17.3902 5.16654 17.3387 5.01629 17.3373H1.33341V13.337H5.01629C5.16654 13.3356 5.312 13.2841 5.42964 13.1906C5.54727 13.0971 5.63033 12.967 5.66566 12.821C5.89714 11.9297 6.2512 11.0748 6.71772 10.2809C6.79614 10.1524 6.82948 10.0015 6.81245 9.85203C6.79542 9.70252 6.72901 9.56297 6.62372 9.45548L4.01957 6.85133L6.8484 4.0225L9.45255 6.62665C9.56004 6.73194 9.69959 6.79835 9.8491 6.81538C9.9986 6.83241 10.1495 6.79907 10.2779 6.72065C11.0719 6.25413 11.9268 5.90007 12.8181 5.66859C12.9641 5.63326 13.0942 5.5502 13.1877 5.43257C13.2811 5.31493 13.3327 5.16947 13.3341 5.01922V1.33634H17.3343V5.01922C17.3358 5.16947 17.3873 5.31493 17.4808 5.43257C17.5743 5.5502 17.7043 5.63326 17.8504 5.66859C18.7417 5.90007 19.5966 6.25413 20.3905 6.72065C20.5189 6.79907 20.6698 6.83241 20.8193 6.81538C20.9689 6.79835 21.1084 6.73194 21.2159 6.62665L23.82 4.0225L26.6489 6.85133L24.0447 9.45548C23.9394 9.56297 23.873 9.70252 23.856 9.85203C23.839 10.0015 23.8723 10.1524 23.9507 10.2809C24.4172 11.0748 24.7713 11.9297 25.0028 12.821C25.0381 12.967 25.1212 13.0971 25.2388 13.1906C25.3564 13.2841 25.5019 13.3356 25.6522 13.337H29.335V17.3373H25.6522C25.502 17.3389 25.3566 17.3906 25.239 17.484C25.1214 17.5774 25.0383 17.7074 25.0028 17.8533C24.7805 18.7514 24.404 19.6041 23.8901 20.3734L24.9941 21.1222C25.4037 20.5129 25.7364 19.8555 25.9848 19.1647C27.6513 19.8951 29.4855 20.1571 31.2898 19.9223C33.0941 19.6875 34.8002 18.9649 36.2242 17.8324C37.6483 16.6998 38.7364 15.2002 39.3713 13.4951C40.0063 11.79 40.164 9.9439 39.8275 8.15578C39.491 6.36765 38.673 4.7052 37.4617 3.34751C36.2504 1.98982 34.6916 0.988325 32.9532 0.450902C31.2149 -0.0865204 29.3629 -0.139506 27.5967 0.297653C25.8305 0.734812 24.217 1.64555 22.93 2.93177L22.9773 2.9791L20.6299 5.32657C20.0028 4.99518 19.3458 4.72374 18.6678 4.51586V0.669635C18.6678 0.492814 18.5975 0.323235 18.4725 0.198203C18.3474 0.0731716 18.1779 0.00292969 18.001 0.00292969H12.6674C12.4906 0.00292969 12.321 0.0731716 12.196 0.198203C12.0709 0.323235 12.0007 0.492814 12.0007 0.669635V4.51586C11.3226 4.72374 10.6656 4.99518 10.0386 5.32657L7.31976 2.60841C7.19473 2.48343 7.02518 2.41321 6.8484 2.41321C6.67161 2.41321 6.50206 2.48343 6.37704 2.60841L2.60548 6.37997C2.4805 6.50499 2.41028 6.67454 2.41028 6.85133C2.41028 7.02811 2.4805 7.19766 2.60548 7.32269L5.32364 10.0415C4.99225 10.6686 4.72081 11.3255 4.51293 12.0036H0.666705C0.489884 12.0036 0.320305 12.0739 0.195273 12.1989C0.0702419 12.3239 0 12.4935 0 12.6703V18.004C0 18.1808 0.0702419 18.3504 0.195273 18.4754C0.320305 18.6004 0.489884 18.6707 0.666705 18.6707H4.51293C4.72081 19.3488 4.99225 20.0057 5.32364 20.6328L2.60548 23.3516C2.4805 23.4766 2.41028 23.6462 2.41028 23.823C2.41028 23.9998 2.4805 24.1693 2.60548 24.2943L6.13902 27.8279C5.90312 28.4204 5.79149 29.0551 5.81109 29.6925C5.83068 30.3299 5.98106 30.9566 6.25291 31.5335C6.52476 32.1104 6.91227 32.6253 7.39139 33.0462C7.87051 33.4671 8.43102 33.785 9.03814 33.9803C9.64526 34.1755 10.286 34.2439 10.9207 34.1813C11.5553 34.1186 12.1703 33.9261 12.7275 33.6158C13.2847 33.3056 13.7722 32.8841 14.1597 32.3776C14.5472 31.8711 14.8265 31.2903 14.9802 30.6714H17.0277C16.8865 30.6714 16.749 30.7162 16.6349 30.7993C16.5209 30.8825 16.4361 30.9997 16.393 31.1341C16.2835 31.4761 16.1466 31.8088 15.9836 32.1288C15.9208 32.2539 15.8993 32.3957 15.9222 32.5339C15.9451 32.672 16.0112 32.7993 16.1109 32.8975L18.2164 34.9923L16.3276 36.8771L14.2248 34.7796C14.1234 34.681 13.9937 34.6166 13.8538 34.5953C13.714 34.574 13.571 34.597 13.4448 34.6609C13.1336 34.8132 12.8121 34.9435 12.4827 35.051C12.3448 35.0928 12.2238 35.1774 12.1371 35.2926C12.0505 35.4078 12.0027 35.5475 12.0007 35.6917V38.6718H9.33388V35.6983C9.33472 35.5589 9.29146 35.4227 9.21027 35.3093C9.12909 35.1959 9.01414 35.1111 8.88185 35.067C8.53511 34.9566 8.19797 34.8182 7.87379 34.6529C7.7489 34.5906 7.60747 34.5695 7.46984 34.5927C7.3322 34.6158 7.20543 34.6819 7.10775 34.7816L5.01296 36.8871L3.12818 34.9983L5.22564 32.8955C5.32425 32.7941 5.38869 32.6644 5.40997 32.5245C5.43125 32.3846 5.40829 32.2416 5.34431 32.1155C5.19205 31.8042 5.06173 31.4828 4.95429 31.1534C4.91243 31.0155 4.8278 30.8944 4.71263 30.8078C4.59745 30.7211 4.4577 30.6734 4.31358 30.6714H1.33341V28.0046H4.00023V26.6711H0.666705C0.489884 26.6711 0.320305 26.7414 0.195273 26.8664C0.0702419 26.9914 0 27.161 0 27.3378V31.3381C0 31.5149 0.0702419 31.6845 0.195273 31.8095C0.320305 31.9345 0.489884 32.0048 0.666705 32.0048H3.85422L3.9649 32.2715L1.6981 34.5423C1.57739 34.6635 1.50961 34.8276 1.50961 34.9986C1.50961 35.1697 1.57739 35.3338 1.6981 35.455L4.53893 38.3025C4.60085 38.3646 4.67442 38.4139 4.75541 38.4475C4.83641 38.4812 4.92325 38.4985 5.01096 38.4985C5.09894 38.498 5.18595 38.48 5.26696 38.4457C5.34798 38.4113 5.4214 38.3613 5.48299 38.2985L7.73378 36.0464L8.00046 36.1577V39.3579C8.00046 39.5294 8.0686 39.6939 8.18988 39.8152C8.31116 39.9364 8.47565 40.0046 8.64717 40.0046H12.6874C12.8589 40.0046 13.0234 39.9364 13.1447 39.8152C13.266 39.6939 13.3341 39.5294 13.3341 39.3579V36.151L13.6008 36.0404L15.8716 38.3071C15.9928 38.4279 16.1569 38.4956 16.3279 38.4956C16.499 38.4956 16.6631 38.4279 16.7843 38.3071L19.6318 35.4663C19.694 35.4044 19.7433 35.3308 19.777 35.2497C19.8107 35.1686 19.828 35.0817 19.828 34.994C19.828 34.9062 19.8107 34.8193 19.777 34.7382C19.7433 34.6572 19.694 34.5835 19.6318 34.5216L17.3763 32.2775L17.487 32.0048H20.6872C20.8587 32.0048 21.0232 31.9366 21.1445 31.8154C21.2658 31.6941 21.3339 31.5296 21.3339 31.3581V27.3178C21.3339 27.1464 21.2659 26.9821 21.1447 26.8608C21.0236 26.7395 20.8593 26.6713 20.6879 26.6711ZM30.6684 14.6178C31.5257 14.4956 32.3319 14.137 32.9967 13.5822C33.6615 13.0273 34.1584 12.2982 34.4319 11.4766C34.7053 10.655 34.7443 9.77345 34.5446 8.93089C34.3449 8.08834 33.9144 7.31812 33.3013 6.70665C32.5738 5.98133 31.6268 5.51706 30.6079 5.38622C29.589 5.25537 28.5554 5.4653 27.6683 5.98328L26.6915 5.00855C27.9306 4.18686 29.4307 3.85481 30.9007 4.07686C32.3708 4.2989 33.7059 5.0592 34.647 6.21019C35.588 7.36117 36.0679 8.82074 35.9934 10.3056C35.919 11.7905 35.2955 13.1947 34.244 14.2458C33.2834 15.2092 32.0212 15.8136 30.6684 15.9579V14.6178ZM26.1555 12.0036C25.9476 11.3255 25.6762 10.6686 25.3448 10.0415L28.063 7.32269C28.073 7.31269 28.0763 7.29869 28.0863 7.28802C28.7672 6.80688 29.604 6.59901 30.4309 6.70558C31.2578 6.81215 32.0146 7.22539 32.5513 7.86345C33.0879 8.50151 33.3654 9.31786 33.3287 10.1508C33.2921 10.9838 32.9439 11.7726 32.3532 12.361C31.8947 12.8252 31.3081 13.1418 30.6684 13.2704V12.6703C30.6684 12.4935 30.5982 12.3239 30.4732 12.1989C30.3481 12.0739 30.1786 12.0036 30.0017 12.0036H26.1555ZM36.1308 3.87449C37.3406 5.07947 38.1668 6.61557 38.5053 8.28927C38.8437 9.96297 38.6792 11.6994 38.0325 13.2798C37.3858 14.8601 36.2859 16.2138 34.8713 17.1701C33.4566 18.1265 31.7906 18.6428 30.0831 18.654C30.2433 18.6361 30.3914 18.56 30.4992 18.4402C30.6071 18.3204 30.6673 18.1652 30.6684 18.004V17.2986C32.3763 17.1502 33.9766 16.4028 35.1867 15.1885C36.4865 13.887 37.2494 12.1443 37.324 10.3064C37.3986 8.46856 36.7793 6.66984 35.5892 5.26734C34.3991 3.86483 32.7251 2.96111 30.8996 2.73557C29.0741 2.51003 27.2305 2.97916 25.7348 4.04983L24.7794 3.09711C26.4476 1.83711 28.5147 1.22192 30.6004 1.36476C32.686 1.50759 34.6499 2.39883 36.1308 3.87449ZM12.8294 31.8934C12.243 32.4755 11.4614 32.819 10.636 32.8574C9.81073 32.8958 9.00057 32.6263 8.36266 32.1012C7.72475 31.5762 7.30455 30.8329 7.18355 30.0156C7.06255 29.1983 7.24937 28.3652 7.70778 27.6779L10.0413 25.3477C10.6675 25.679 11.3235 25.9504 12.0007 26.1584V30.0047C12.0007 30.1815 12.0709 30.3511 12.196 30.4761C12.321 30.6011 12.4906 30.6714 12.6674 30.6714H13.5901C13.43 31.13 13.1702 31.5473 12.8294 31.8934ZM20.0012 30.6714H18.001C18.1779 30.6714 18.3474 30.6011 18.4725 30.4761C18.5975 30.3511 18.6678 30.1815 18.6678 30.0047V28.0046H20.0012V30.6714Z" fill="#01BC8C"/>
</svg>
