<svg viewBox="0 0 24 24"  xmlns="http://www.w3.org/2000/svg" style="display:none">

	<symbol viewBox="0 0 32 32" id="round-phone">
		<path d="M26.9379 4.33346C20.5148 -1.70418 10.3922 -1.39588 4.35451 5.02714C1.811 7.72481 0.295162 11.2446 0.0382416 14.9443C-0.270063 19.3633 1.29715 23.6796 4.32882 26.8911C7.36049 30.1026 11.574 31.9268 15.9673 31.9268C16.4298 31.9268 16.8152 31.5414 16.8152 31.0789C16.8152 30.6165 16.4298 30.2311 15.9673 30.2311C8.10556 30.2311 1.73392 23.8594 1.73392 15.972C1.73392 8.44419 7.56602 2.22671 15.0938 1.73856C22.9556 1.22471 29.7383 7.21097 30.2521 15.0727C30.2778 15.3811 30.2778 15.6894 30.2778 15.972C30.2778 18.2329 29.764 20.4424 28.7363 22.4464C27.9655 23.8851 26.1671 24.4761 24.677 23.7567L24.2145 23.5254C24.4714 23.2685 24.7026 23.0116 24.8825 22.8318C25.088 22.6005 25.088 22.2408 24.8568 22.0353C24.8311 22.0096 24.8311 22.0096 24.8054 21.9839L20.5405 19.2606C20.2579 19.055 19.8725 19.1064 19.6413 19.389C19.6413 19.389 19.6413 19.4147 19.6156 19.4147C19.2816 19.9286 18.4852 21.0333 18.4852 21.0333C18.4852 21.0333 16.661 22.0096 13.4238 18.7981C13.3724 18.7467 13.3467 18.6953 13.2954 18.6439C13.244 18.5926 13.1926 18.5669 13.1412 18.5155C9.904 15.2783 10.906 13.4541 10.906 13.4541C10.906 13.4541 12.0108 12.6834 12.5246 12.3237C12.8072 12.1182 12.8843 11.7328 12.7044 11.4502C12.7044 11.4502 12.7044 11.4245 12.6787 11.4245L9.95539 7.15959C9.77554 6.90267 9.41585 6.85128 9.18462 7.03113C9.15893 7.05682 9.15893 7.05682 9.13324 7.08251C8.49094 7.67343 7.18064 8.98372 7.0008 9.3948C6.51265 10.4225 6.46126 11.6043 6.82095 12.6834C7.74587 15.5095 9.33878 18.0787 11.4455 20.1855C11.4969 20.2369 11.574 20.2882 11.6254 20.3653C11.6768 20.4167 11.7281 20.4938 11.8052 20.5452C13.912 22.6519 16.4812 24.2448 19.3073 25.1697C20.3864 25.5294 21.5682 25.4523 22.5959 24.9899C22.6987 24.9385 22.8014 24.8614 22.8785 24.7844L23.9576 25.2982C26.2699 26.403 29.0703 25.478 30.2778 23.2171C31.434 20.9819 32.0249 18.4898 31.9992 15.972C31.9735 11.5529 30.1494 7.33943 26.9379 4.33346Z" fill="white"/>
	</symbol>

	<symbol viewBox="0 0 12 20" id="phone">
		<path d="M11.4062 0.593794C11.0106 0.197785 10.5416 0 9.99998 0H2.00013C1.45833 0 0.989639 0.19795 0.593794 0.593794C0.19795 0.989419 0 1.45827 0 1.99991V18.0001C0 18.5417 0.19795 19.0105 0.593794 19.4062C0.989639 19.8021 1.45833 20.0001 2.00013 20.0001H9.99998C10.5416 20.0001 11.0106 19.802 11.4061 19.4062C11.802 19.0105 12 18.5417 12 18.0001V1.99991C12 1.45827 11.8023 0.989638 11.4062 0.593794ZM4.75008 1.99991H7.25031C7.41701 1.99991 7.50014 2.08326 7.50014 2.24996C7.50014 2.4166 7.41695 2.50006 7.25031 2.50006H4.75008C4.58343 2.50006 4.50008 2.4166 4.50008 2.24996C4.50003 2.08326 4.58338 1.99991 4.75008 1.99991ZM6.88314 18.883C6.63818 19.1276 6.34396 19.25 6.00011 19.25C5.65642 19.25 5.36221 19.1276 5.11735 18.883C4.8725 18.638 4.75008 18.3436 4.75008 18.0001C4.75008 17.6563 4.87267 17.362 5.11735 17.1172C5.36204 16.8726 5.65648 16.7498 6.00011 16.7498C6.34402 16.7498 6.63823 16.8726 6.88314 17.1172C7.12793 17.362 7.25025 17.6563 7.25025 18.0001C7.25025 18.344 7.12777 18.638 6.88314 18.883ZM10.5002 15.5002C10.5002 15.6354 10.4508 15.753 10.3517 15.8518C10.2525 15.9507 10.1356 15.9999 10.0004 15.9999H2.00013C1.86473 15.9999 1.74756 15.9505 1.64861 15.8518C1.54967 15.753 1.50019 15.6354 1.50019 15.5002V4.50019C1.50019 4.3648 1.54961 4.24751 1.64861 4.14868C1.74761 4.04989 1.86473 4.00015 2.00013 4.00015H9.99998C10.1356 4.00015 10.2526 4.04967 10.3517 4.14868C10.4508 4.24757 10.5 4.3648 10.5 4.50019V15.5002H10.5002V15.5002Z" fill="currentColor"/>
	</symbol>

	<symbol viewBox="0 0 20 15" id="email">
		<path fill-rule="evenodd" clip-rule="evenodd" d="M18 2.29297L10 9.31995L2 2.28296V2.00195H18V2.29297ZM2 13.002V4.94696L10 11.9819L18 4.95496V13.002H2ZM0 15.002H20V0.00195312H0V15.002Z" fill="currentColor"/>	
	</symbol>

	<symbol viewBox="0 0 22 22" id="whatsapp">
		<path d="M15.7023 13.0492C15.4411 12.9254 14.1898 12.3067 13.9561 12.2104C13.7223 12.1142 13.5573 12.0867 13.3786 12.3479C13.1998 12.6092 12.7186 13.1729 12.5673 13.3517C12.4161 13.5304 12.2786 13.5442 12.0173 13.3517C11.267 13.0505 10.5739 12.6226 9.96857 12.0867C9.42057 11.5707 8.95663 10.9722 8.59357 10.3129C8.44232 10.0654 8.59357 9.92792 8.70357 9.79042C8.81357 9.65292 8.95107 9.50167 9.08857 9.35042C9.18912 9.21961 9.27232 9.07634 9.33607 8.92417C9.37018 8.8534 9.3879 8.77585 9.3879 8.69729C9.3879 8.61873 9.37018 8.54118 9.33607 8.47042C9.33607 8.34667 8.75857 7.09542 8.53857 6.58667C8.31857 6.07792 8.12607 6.14667 7.97482 6.14667H7.42482C7.16282 6.15688 6.91557 6.27062 6.73732 6.46292C6.44961 6.73747 6.22172 7.06849 6.06793 7.43523C5.91413 7.80197 5.83775 8.19653 5.84357 8.59417C5.9139 9.57039 6.27286 10.5037 6.87482 11.2754C7.97946 12.9164 9.49072 14.2429 11.2611 15.1254C11.8661 15.3867 12.3336 15.5379 12.7048 15.6617C13.2261 15.8192 13.7772 15.8522 14.3136 15.7579C14.6698 15.6856 15.0074 15.5409 15.3055 15.3328C15.6035 15.1247 15.8556 14.8575 16.0461 14.5479C16.2046 14.1656 16.2569 13.7475 16.1973 13.3379C16.1286 13.2417 15.9636 13.1729 15.7023 13.0492Z" fill="currentColor"/>
		<path d="M18.2735 3.68535C17.3226 2.72544 16.1891 1.96567 14.9399 1.45086C13.6906 0.936042 12.3509 0.676606 10.9998 0.68785C9.20994 0.697217 7.45388 1.17602 5.90698 2.07644C4.36009 2.97686 3.07651 4.26737 2.18444 5.8191C1.29237 7.37082 0.823039 9.12944 0.823319 10.9193C0.823599 12.7092 1.29348 14.4677 2.18604 16.0191L0.811035 21.3129L6.22854 19.9379C7.72623 20.7528 9.40472 21.1784 11.1098 21.1754H10.9998C13.0319 21.1886 15.022 20.5963 16.7161 19.474C18.4103 18.3517 19.7318 16.7502 20.5122 14.8739C21.2925 12.9975 21.4963 10.9312 21.0976 8.93851C20.6989 6.94582 19.7158 5.11703 18.2735 3.68535ZM10.9998 19.4153C9.47429 19.4166 7.97717 19.0031 6.66854 18.2191L6.36604 18.0403L3.14854 18.8791L4.00104 15.7441L3.80854 15.4279C2.7104 13.6594 2.29963 11.5493 2.65415 9.49805C3.00868 7.44677 4.10384 5.59699 5.73184 4.29968C7.35984 3.00237 9.40742 2.34778 11.4861 2.46011C13.5647 2.57245 15.5298 3.44389 17.0085 4.9091C17.8013 5.69545 18.4296 6.63171 18.8569 7.66332C19.2842 8.69493 19.5019 9.80126 19.4973 10.9179C19.4937 13.1704 18.5972 15.3297 17.0044 16.9225C15.4116 18.5153 13.2523 19.4117 10.9998 19.4153Z" fill="currentColor"/>
	</symbol>

	<symbol viewBox="0 0 22 21" id="telegram">
		<path d="M20.394 0.223836L0.856168 8.35555C0.856168 8.35555 -0.0675532 8.69133 0.00394648 9.31062C0.0773712 9.93102 0.831143 10.2148 0.831143 10.2148L5.7473 11.9699C5.7473 11.9699 7.23119 17.1321 7.52324 18.1144C7.81529 19.094 8.04959 19.1171 8.04959 19.1171C8.32156 19.2425 8.56878 19.0428 8.56878 19.0428L11.745 15.9714L16.6953 19.9979C18.0342 20.6175 18.5215 19.3266 18.5215 19.3266L22 0.715259C22 -0.524435 20.394 0.223836 20.394 0.223836ZM16.9351 17.8298L11.6391 13.5233L9.99575 15.112L10.3571 11.732L17.4163 5.04154L7.79384 10.7544L3.52558 9.23087L19.8102 2.4527L16.9351 17.8298Z" fill="currentColor"/>
	</symbol>

	<symbol viewBox="0 0 14 14" id="check">
		<path d="M6.78544 11.5817L2.17505 8.2051L3.27894 6.64666L6.39583 8.91938L10.6815 3.3999L12.175 4.56873L6.78544 11.5817Z" fill="currentColor"/>
	</symbol>

	<symbol viewBox="0 0 30 33" id="close">
		<line y1="-1.5" x2="40.8711" y2="-1.5" transform="matrix(0.679133 -0.734015 0.679133 0.734015 2.24304 33)" stroke="currentColor" fill="none" stroke-width="3"/>
		<line y1="-1.5" x2="40.8711" y2="-1.5" transform="matrix(0.679133 0.734015 -0.679133 0.734015 0 3)"  stroke="currentColor" fill="none" stroke-width="3"/>	
	</symbol>

	<symbol viewBox="0 0 12 25" id="arrow-prev">
		<path fill-rule="evenodd" clip-rule="evenodd" d="M11.8507 0.329366C11.6185 -0.0533399 11.1987 -0.111515 10.9129 0.199439L0.246291 11.8066C0.0904998 11.9761 0 12.2306 0 12.4995C0 12.7684 0.0904998 13.0229 0.246291 13.1924L10.9129 24.7996C11.1987 25.1106 11.6185 25.0524 11.8507 24.6697C12.0829 24.287 12.0395 23.7246 11.7537 23.4137L1.72387 12.4995L11.7537 1.58535C12.0395 1.2744 12.0829 0.712077 11.8507 0.329366Z" fill="currentColor"/>
	</symbol>

	<symbol viewBox="0 0 12 25" id="arrow-next">
		<path fill-rule="evenodd" clip-rule="evenodd" d="M0.149293 24.6711C0.381459 25.0538 0.801332 25.112 1.08708 24.801L11.7537 13.1939C11.9095 13.0244 12 12.7699 12 12.501C12 12.2321 11.9095 11.9776 11.7537 11.808L1.08708 0.200924C0.801332 -0.110067 0.381459 -0.0518646 0.149293 0.330835C-0.0829144 0.713535 -0.0394564 1.27587 0.246293 1.5868L10.2761 12.501L0.246293 23.4151C-0.0394564 23.7261 -0.0829144 24.2884 0.149293 24.6711Z" fill="currentColor"/>
	</symbol>

</svg>