<svg width="80" height="90" viewBox="0 0 80 90" fill="none" xmlns="http://www.w3.org/2000/svg">
<path fill-rule="evenodd" clip-rule="evenodd" d="M38.5819 78.9789C37.8508 78.9789 37.271 78.3991 37.271 77.6681V60.2362C37.271 59.5178 37.8508 58.9254 38.5819 58.9254C39.3129 58.9254 39.8927 59.5178 39.8927 60.2362V77.6681C39.8171 78.3991 39.2373 78.9789 38.5819 78.9789Z" fill="white" fill-opacity="0.5"/>
<path fill-rule="evenodd" clip-rule="evenodd" d="M26.1036 69.7904H17.0662C16.3352 69.7904 15.7554 69.2106 15.7554 68.4795C15.7554 67.7484 16.3352 67.1686 17.0662 67.1686H24.8683V54.7659C24.8683 54.0475 25.4481 53.4551 26.1792 53.4551C26.9102 53.4551 27.4901 54.0475 27.4901 54.7659V68.4795C27.4144 69.2106 26.8346 69.7904 26.1036 69.7904Z" fill="white" fill-opacity="0.5"/>
<path fill-rule="evenodd" clip-rule="evenodd" d="M63.0092 69.7904H53.9719C53.2408 69.7904 52.6484 69.2106 52.6484 68.4795V54.7659C52.6484 54.0475 53.2408 53.4551 53.9719 53.4551C54.6903 53.4551 55.2828 54.0475 55.2828 54.7659V67.1686H63.0849C63.8159 67.1686 64.3957 67.7484 64.3957 68.4795C64.3957 69.2106 63.7403 69.7904 63.0092 69.7904Z" fill="white" fill-opacity="0.5"/>
<path fill-rule="evenodd" clip-rule="evenodd" d="M11.5962 75.1976C7.87786 75.1976 4.89062 72.1977 4.89062 68.4795C4.89062 64.7612 7.87786 61.7739 11.5962 61.7739C15.3144 61.7739 18.3017 64.7612 18.3017 68.4795C18.3017 72.1977 15.3144 75.1976 11.5962 75.1976ZM11.5962 64.3956C9.33997 64.3956 7.43671 66.2233 7.43671 68.5551C7.43671 70.8113 9.26435 72.7145 11.5962 72.7145C13.928 72.7145 15.7556 70.8869 15.7556 68.5551C15.7556 66.2233 13.928 64.3956 11.5962 64.3956Z" fill="white" fill-opacity="0.5"/>
<path fill-rule="evenodd" clip-rule="evenodd" d="M68.4038 75.1976C64.6855 75.1976 61.6982 72.1977 61.6982 68.4795C61.6982 64.7612 64.6855 61.7739 68.4038 61.7739C72.1221 61.7739 75.1219 64.7612 75.1219 68.4795C75.1219 72.1977 72.1221 75.1976 68.4038 75.1976ZM68.4038 64.3956C66.1476 64.3956 64.2443 66.2233 64.2443 68.5551C64.2443 70.8113 66.072 72.7145 68.4038 72.7145C70.6726 72.7145 72.5632 70.8869 72.5632 68.5551C72.5632 66.2233 70.7356 64.3956 68.4038 64.3956Z" fill="white" fill-opacity="0.5"/>
<path fill-rule="evenodd" clip-rule="evenodd" d="M38.582 89.7053C34.9267 89.7053 31.9395 86.718 31.9395 82.9997C31.9395 79.3445 34.9267 76.3572 38.582 76.3572C42.3003 76.3572 45.2875 79.3445 45.2875 82.9997C45.2119 86.718 42.2246 89.7053 38.582 89.7053ZM38.582 78.979C36.3132 78.979 34.4981 80.8066 34.4981 83.0628C34.4981 85.3316 36.3132 87.2222 38.582 87.2222C40.8381 87.2222 42.7414 85.4072 42.7414 83.0628C42.6658 80.8066 40.8381 78.979 38.582 78.979Z" fill="white" fill-opacity="0.5"/>
<path fill-rule="evenodd" clip-rule="evenodd" d="M78.6891 47.9217C77.9581 47.9217 77.3783 47.3293 77.3783 46.5983V34.5737L69.7905 34.1325C69.2107 34.1325 68.7695 33.6914 68.6309 33.1872C67.8998 30.0487 66.652 27.1371 64.9756 24.5028C64.6857 23.9986 64.7613 23.4062 65.1268 22.9777L70.2316 17.2805L62.6438 9.70525L56.9592 14.81C56.518 15.1756 55.9382 15.2386 55.4215 14.9487C52.7241 13.2723 49.8125 12.0371 46.7496 11.306C46.1572 11.1548 45.8043 10.7262 45.8043 10.1338L45.4388 2.55857H34.6368L34.2083 10.1338C34.2083 10.7262 33.7671 11.1548 33.2504 11.306C30.2631 12.0371 27.3515 13.2723 24.5785 14.9487C24.0618 15.2386 23.482 15.1756 23.0408 14.81L17.3562 9.70525L9.7684 17.3561L14.8732 23.0533C15.2387 23.4818 15.3143 24.0742 15.0244 24.5784C13.4237 27.1371 12.1758 30.0487 11.3818 33.2628C11.2305 33.8426 10.7894 34.2082 10.2095 34.2082L2.62171 34.6493V46.6739C2.62171 47.405 2.04191 47.9848 1.31086 47.9848C0.579801 47.9848 0 47.405 0 46.6739V33.4015C0 32.7461 0.504175 32.1663 1.23523 32.1663L9.03734 31.7251C9.7684 28.9521 10.865 26.4061 12.2515 24.0742L6.99543 18.2384C6.56688 17.7216 6.56688 16.9906 7.07106 16.4864L16.4865 7.07094C16.9907 6.56676 17.7218 6.56676 18.2259 7.00791L24.0618 12.2513C26.4692 10.8649 29.1035 9.76827 31.7252 9.04982L32.1664 1.23511C32.2294 0.579679 32.7462 -0.00012207 33.4016 -0.00012207H46.5984C47.2538 -0.00012207 47.8462 0.516658 47.8462 1.23511L48.3504 9.04982C50.9721 9.76827 53.6064 10.8649 56.0139 12.2513L61.8371 7.00791C62.3539 6.56676 63.0849 6.56676 63.5891 7.07094L72.9289 16.4108C73.4331 16.915 73.4331 17.646 73.0046 18.1628L67.7486 23.9986C69.135 26.3304 70.2316 28.9521 70.9627 31.6495L78.7648 32.0906C79.4202 32.1663 80 32.6704 80 33.3259V46.5353C80 47.3293 79.4202 47.9217 78.6891 47.9217Z" fill="white" fill-opacity="0.5"/>
<path fill-rule="evenodd" clip-rule="evenodd" d="M40.0313 61.5597C28.1454 61.5597 18.4526 51.9299 18.4526 39.9684C18.4526 28.0068 28.1454 18.3771 40.0313 18.3771C51.9299 18.3771 61.6226 28.0824 61.6226 39.9684C61.6226 51.8543 51.9299 61.5597 40.0313 61.5597ZM40.0313 20.9358C29.5319 20.9358 20.9987 29.4689 20.9987 39.9684C20.9987 50.4678 29.5319 59.001 40.0313 59.001C50.5434 59.001 59.0766 50.4678 59.0766 39.9684C59.0766 29.4689 50.5434 20.9358 40.0313 20.9358Z" fill="white" fill-opacity="0.5"/>
</svg>
