<svg width="80" height="90" fill="none" xmlns="http://www.w3.org/2000/svg"><path fill-rule="evenodd" clip-rule="evenodd" d="M38.582 78.979c-.731 0-1.311-.58-1.311-1.31V60.235a1.31 1.31 0 112.622 0v17.432c-.076.731-.656 1.31-1.311 1.31zM26.104 69.79h-9.038c-.73 0-1.31-.58-1.31-1.31 0-.732.58-1.311 1.31-1.311h7.802V54.766a1.31 1.31 0 112.622 0V68.48c-.076.73-.655 1.31-1.386 1.31zm36.906 0h-9.038c-.731 0-1.324-.58-1.324-1.31V54.766a1.318 1.318 0 012.634 0v12.403h7.803c.73 0 1.31.58 1.31 1.31 0 .732-.655 1.311-1.386 1.311z" fill="#fff" fill-opacity=".5"/><path fill-rule="evenodd" clip-rule="evenodd" d="M11.596 75.198c-3.718 0-6.705-3-6.705-6.718a6.687 6.687 0 016.705-6.706 6.687 6.687 0 016.706 6.706 6.697 6.697 0 01-6.706 6.718zm0-10.802c-2.256 0-4.16 1.827-4.16 4.16 0 2.255 1.828 4.159 4.16 4.159s4.16-1.828 4.16-4.16-1.828-4.16-4.16-4.16zm56.808 10.802c-3.718 0-6.706-3-6.706-6.718a6.687 6.687 0 016.706-6.706 6.697 6.697 0 016.718 6.706c0 3.718-3 6.718-6.718 6.718zm0-10.802c-2.256 0-4.16 1.827-4.16 4.16 0 2.255 1.828 4.159 4.16 4.159a4.155 4.155 0 004.16-4.16c0-2.332-1.828-4.16-4.16-4.16zM38.582 89.705c-3.655 0-6.643-2.987-6.643-6.705 0-3.656 2.988-6.643 6.643-6.643 3.718 0 6.706 2.987 6.706 6.643-.076 3.718-3.063 6.705-6.706 6.705zm0-10.726a4.075 4.075 0 00-4.084 4.084c0 2.269 1.815 4.16 4.084 4.16a4.155 4.155 0 004.16-4.16c-.076-2.256-1.904-4.084-4.16-4.084zM78.69 47.922a1.313 1.313 0 01-1.312-1.324V34.574l-7.588-.441c-.58 0-1.02-.442-1.16-.946a27.937 27.937 0 00-3.654-8.684 1.31 1.31 0 01.15-1.525l5.106-5.698-7.588-7.575-5.685 5.105a1.328 1.328 0 01-1.538.139 29.3 29.3 0 00-8.671-3.643c-.593-.151-.946-.58-.946-1.172l-.365-7.575H34.637l-.429 7.575c0 .592-.44 1.02-.958 1.172-2.987.731-5.898 1.966-8.672 3.643a1.328 1.328 0 01-1.537-.139l-5.685-5.105-7.588 7.651 5.105 5.697a1.31 1.31 0 01.151 1.525c-1.6 2.56-2.848 5.47-3.642 8.685-.152.58-.593.945-1.172.945l-7.588.441v12.025c0 .731-.58 1.31-1.311 1.31S0 47.406 0 46.675V33.4a1.22 1.22 0 011.235-1.235l7.802-.44a29.755 29.755 0 013.214-7.652l-5.256-5.836c-.428-.516-.428-1.247.076-1.752l9.416-9.415a1.246 1.246 0 011.739-.063l5.836 5.243a33.026 33.026 0 017.663-3.201l.441-7.815C32.23.58 32.746 0 33.402 0h13.196a1.24 1.24 0 011.248 1.235l.504 7.815a33.029 33.029 0 017.664 3.201l5.823-5.243c.517-.441 1.248-.441 1.752.063l9.34 9.34c.504.504.504 1.235.076 1.752l-5.256 5.836c1.386 2.331 2.483 4.953 3.214 7.65l7.802.442c.655.075 1.235.58 1.235 1.235v13.21c0 .793-.58 1.386-1.31 1.386z" fill="#fff" fill-opacity=".5"/><path fill-rule="evenodd" clip-rule="evenodd" d="M40.031 61.56c-11.886 0-21.578-9.63-21.578-21.592 0-11.961 9.692-21.59 21.578-21.59 11.899 0 21.592 9.704 21.592 21.59S51.93 61.56 40.03 61.56zm0-40.624C29.531 20.936 21 29.469 21 39.968c0 10.5 8.533 19.033 19.032 19.033 10.512 0 19.046-8.533 19.046-19.033 0-10.5-8.534-19.032-19.046-19.032z" fill="#fff" fill-opacity=".5"/></svg>