<svg width="40" height="38" fill="none" xmlns="http://www.w3.org/2000/svg"><path d="M39.166 29.273h-2.5v-6.67a.836.836 0 00-.834-.833.836.836 0 00-.834.834v6.669h-9.996a.836.836 0 00-.834.834v1.667h-9.17v-1.667a.836.836 0 00-.834-.834h-9.17V4.271h12.505a.836.836 0 00.834-.834.836.836 0 00-.834-.833H4.169a.836.836 0 00-.834.833v25.836H.834a.836.836 0 00-.834.834v6.67c0 .458.375.833.834.833h38.332a.836.836 0 00.834-.834v-6.67a.83.83 0 00-.834-.833zm-.833 6.661H1.667v-5.002h11.664v1.667c0 .459.375.834.833.834h10.838a.836.836 0 00.834-.834v-1.667h12.497v5.002z" fill="#01BC8C"/><path d="M17.499 6.764H8.437a.836.836 0 00-.834.833v18.291a.83.83 0 00.825.834c.85 0 20.192.092 22.877.017.35-.009.6-.017.842-.259a.825.825 0 00.241-.592v-3.284a.836.836 0 00-.833-.834.836.836 0 00-.834.834v2.484c-2.91.042-13.672.008-21.459-.025V8.431h8.237a.836.836 0 00.834-.834.836.836 0 00-.834-.833zm12.505-1.16a4.504 4.504 0 00-4.502 4.502 4.504 4.504 0 004.502 4.502 4.504 4.504 0 004.502-4.502c-.008-2.484-2.026-4.502-4.502-4.502zm0 7.328a2.843 2.843 0 01-2.834-2.834 2.837 2.837 0 012.834-2.834 2.837 2.837 0 012.835 2.834 2.843 2.843 0 01-2.835 2.834z" fill="#01BC8C"/><path d="M39.166 8.048h-1.892a7.344 7.344 0 00-.675-1.635l1.342-1.342a.83.83 0 000-1.175L36.215 2.17a.83.83 0 00-1.175 0l-1.343 1.342a7.345 7.345 0 00-1.634-.675v-1.9a.836.836 0 00-.833-.834h-2.443a.836.836 0 00-.834.833V2.83a7.345 7.345 0 00-1.634.675l-1.342-1.342a.83.83 0 00-1.175 0l-1.726 1.725a.83.83 0 000 1.176l1.342 1.342a7.345 7.345 0 00-.675 1.634h-1.91a.836.836 0 00-.833.834v2.443c0 .458.375.833.834.833h1.892a7.41 7.41 0 00.675 1.634l-1.342 1.343a.83.83 0 000 1.175l1.726 1.726a.83.83 0 001.175 0l1.343-1.343a7.345 7.345 0 001.634.676v1.909c0 .458.375.834.833.834h2.443a.836.836 0 00.834-.834v-1.893a7.345 7.345 0 001.634-.675l1.342 1.342a.83.83 0 001.175 0l1.726-1.725a.83.83 0 000-1.176L36.582 13.8a7.345 7.345 0 00.675-1.634h1.893a.836.836 0 00.833-.834V8.89a.809.809 0 00-.817-.842zm-.833 2.442h-1.726c-.4 0-.75.284-.817.684a5.835 5.835 0 01-.942 2.267.834.834 0 00.1 1.06l1.217 1.216-.55.55-1.217-1.217a.835.835 0 00-1.06-.1 5.785 5.785 0 01-2.267.943.838.838 0 00-.683.816v1.726h-.776V16.71c0-.4-.283-.75-.683-.816a5.838 5.838 0 01-2.268-.943.823.823 0 00-1.059.1l-1.217 1.218-.55-.55 1.217-1.218a.835.835 0 00.1-1.059 5.785 5.785 0 01-.942-2.267.838.838 0 00-.817-.684h-1.726v-.775h1.726c.4 0 .75-.284.817-.684.15-.817.467-1.575.942-2.267a.834.834 0 00-.1-1.06L23.835 4.48l.55-.55 1.217 1.217a.835.835 0 001.06.1 5.785 5.785 0 012.267-.942.838.838 0 00.683-.817V1.77h.776v1.726c0 .4.283.75.683.817.817.15 1.576.466 2.268.942a.834.834 0 001.059-.1l1.217-1.226.55.55-1.217 1.218a.834.834 0 00-.1 1.058c.475.684.792 1.45.942 2.268a.838.838 0 00.817.684h1.726v.783zm-24.169 2.943h-2.5v2.5h2.5v-2.5zm4.169 0h-2.501v2.5h2.5v-2.5z" fill="#01BC8C"/></svg>