<svg width="42" height="42" fill="none" xmlns="http://www.w3.org/2000/svg"><path d="M23.71 6.774V5.42a2.71 2.71 0 00-5.42 0v1.354a2.71 2.71 0 005.42 0zm-1.355 0a1.355 1.355 0 11-2.71 0V5.42a1.355 1.355 0 112.71 0v1.354z" fill="#01BC8C"/><path d="M21 16.258a8.13 8.13 0 10-8.129-8.129 8.139 8.139 0 008.13 8.13zm4.065-2.713a6.831 6.831 0 01-.678.447v-.444a.677.677 0 10-1.355 0v1.044a6.782 6.782 0 01-4.064 0v-1.044a.677.677 0 10-1.355 0v.444a6.855 6.855 0 01-.677-.447v-.674a2.035 2.035 0 012.032-2.032h4.064a2.035 2.035 0 012.033 2.032v.674zM21 1.355a6.77 6.77 0 015.364 10.905 3.392 3.392 0 00-3.332-2.776h-4.064a3.392 3.392 0 00-3.331 2.776A6.77 6.77 0 0121 1.355zm15.58 18.291V18.29a2.71 2.71 0 00-5.419 0v1.355a2.71 2.71 0 005.42 0zm-1.354 0a1.355 1.355 0 11-2.71 0V18.29a1.355 1.355 0 112.71 0v1.355z" fill="#01BC8C"/><path d="M33.87 12.871a8.13 8.13 0 108.13 8.13 8.139 8.139 0 00-8.13-8.13zm4.065 13.545a6.845 6.845 0 01-.677.447v-.444a.677.677 0 10-1.355 0v1.044a6.782 6.782 0 01-4.064 0v-1.044a.677.677 0 10-1.355 0v.444a6.855 6.855 0 01-.678-.447v-.674a2.035 2.035 0 012.032-2.032h4.065a2.035 2.035 0 012.032 2.032v.674zm1.3-1.285a3.392 3.392 0 00-3.332-2.776h-4.064a3.392 3.392 0 00-3.332 2.776 6.773 6.773 0 018.945-9.888 6.775 6.775 0 011.782 9.888zm-28.396-5.485V18.29a2.71 2.71 0 00-5.42 0v1.355a2.71 2.71 0 005.42 0zm-1.355 0a1.355 1.355 0 01-2.71 0V18.29a1.355 1.355 0 012.71 0v1.355z" fill="#01BC8C"/><path d="M8.129 12.871a8.13 8.13 0 108.13 8.13 8.139 8.139 0 00-8.13-8.13zm4.065 13.545a6.845 6.845 0 01-.678.447v-.444a.677.677 0 10-1.355 0v1.044a6.782 6.782 0 01-4.064 0v-1.044a.677.677 0 10-1.355 0v.444a6.841 6.841 0 01-.677-.447v-.674a2.035 2.035 0 012.032-2.032h4.064a2.035 2.035 0 012.033 2.032v.674zm1.298-1.285a3.392 3.392 0 00-3.33-2.776H6.096a3.392 3.392 0 00-3.331 2.776 6.774 6.774 0 1110.726 0zm10.218 7.385V31.16a2.71 2.71 0 00-5.42 0v1.355a2.71 2.71 0 005.42 0zm-1.355 0a1.355 1.355 0 11-2.71 0V31.16a1.355 1.355 0 112.71 0v1.355z" fill="#01BC8C"/><path d="M21 25.742a8.128 8.128 0 108.13 8.13 8.139 8.139 0 00-8.13-8.13zm4.065 13.545a6.831 6.831 0 01-.678.447v-.443a.677.677 0 10-1.355 0v1.043a6.782 6.782 0 01-4.064 0V39.29a.677.677 0 10-1.355 0v.443a6.855 6.855 0 01-.677-.447v-.674a2.035 2.035 0 012.032-2.032h4.064a2.035 2.035 0 012.033 2.032v.674zm1.299-1.284a3.392 3.392 0 00-3.332-2.777h-4.064a3.392 3.392 0 00-3.331 2.777 6.773 6.773 0 018.944-9.889 6.774 6.774 0 011.783 9.889zM3.387 12.871a.677.677 0 00.677-.677v-8.13h8.13a.678.678 0 000-1.354H3.386a.677.677 0 00-.678.677v8.807a.677.677 0 00.678.677zm26.419-8.806h8.13v8.129a.677.677 0 101.354 0V3.387a.678.678 0 00-.677-.677h-8.807a.678.678 0 000 1.355zm8.807 25.064a.677.677 0 00-.678.677v8.13h-8.129a.677.677 0 100 1.354h8.807a.678.678 0 00.677-.677v-8.807a.678.678 0 00-.677-.677zm-26.42 8.806H4.064v-8.129a.678.678 0 00-1.355 0v8.807a.678.678 0 00.678.677h8.806a.678.678 0 000-1.355z" fill="#01BC8C"/></svg>