<svg width="40" height="39" fill="none" xmlns="http://www.w3.org/2000/svg"><path fill-rule="evenodd" clip-rule="evenodd" d="M11.742 32.105c-3.047 0-5.438-1.383-5.438-3.164v-7.617c0-1.781 2.39-3.14 5.438-3.14 3.046 0 5.437 1.382 5.413 3.163v7.594c0 1.78-2.39 3.164-5.414 3.164zm20.764.89h-1.313v1.828a.62.62 0 01-.609.61h-2.53v2.53c0 .329-.259.587-.61.587H.609A.6.6 0 010 37.964V3.817c0-.351.281-.61.61-.61h2.507V.678a.62.62 0 01.61-.61h15.702a.64.64 0 01.445.188l11.132 11.132a.64.64 0 01.188.445v1.828c2.226 0 1.828-.304 2.156 2.695a7.61 7.61 0 011.898 1.079l1.969-.868c.28-.117.609 0 .773.258l1.922 3.328a.592.592 0 01-.164.797l-1.735 1.289a8.476 8.476 0 010 2.18l1.735 1.288a.563.563 0 01.164.774L37.99 29.83c-.164.258-.492.375-.773.235l-1.969-.867A7.713 7.713 0 0133.35 30.3l-.235 2.156a.628.628 0 01-.61.54zm-2.531 0c-2.227 0-1.828.305-2.156-2.695a7.714 7.714 0 01-1.899-1.102l-1.968.868a.595.595 0 01-.774-.235l-1.921-3.351a.563.563 0 01.164-.774l1.734-1.288a8.484 8.484 0 010-2.18l-1.734-1.289a.591.591 0 01-.164-.797l1.921-3.328c.141-.258.492-.375.774-.258l1.968.868a7.629 7.629 0 011.899-1.079c.328-3-.07-2.695 2.156-2.695v-1.242H19.429a.58.58 0 01-.586-.586V1.286H4.336v32.928h25.639v-1.219zm-.774-1.218h2.766l.21-1.993c.095-.703 1.102-.445 2.555-1.734.188-.164.446-.21.657-.094l1.828.797 1.382-2.39c-2.507-1.852-1.734-.914-1.734-3.047s-.773-1.172 1.734-3.023l-1.382-2.39-1.828.796c-.68.305-.938-.703-2.79-1.336a.604.604 0 01-.421-.515l-.211-1.969H29.2l-.21 1.969c-.094.726-1.079.468-2.555 1.757a.615.615 0 01-.656.094l-1.828-.797-1.383 2.39c2.508 1.852 1.734.891 1.734 3.024s.774 1.195-1.734 3.047l1.383 2.39 1.828-.82c.68-.281.937.727 2.789 1.36.234.07.398.257.422.491l.21 1.992zm1.383-3.352a5.106 5.106 0 01-5.109-5.109 5.121 5.121 0 015.11-5.109 5.121 5.121 0 015.108 5.109 5.106 5.106 0 01-5.109 5.11zm0-9a3.896 3.896 0 00-3.89 3.891c0 2.156 1.734 3.914 3.89 3.914s3.89-1.758 3.89-3.914a3.896 3.896 0 00-3.89-3.89zm-3.726 16.007H3.726a.62.62 0 01-.609-.609V4.403H1.219v32.951h25.639v-1.922zm-6.82-24.209h9.093L20.038 2.13v9.093zm3.234 4.195H6.257c-.773 0-.773-1.219 0-1.219h17.015c.774 0 .774 1.22 0 1.22zM16.405 4.755H6.773c-.797 0-.797-1.22 0-1.22h9.632c.797 0 .797 1.22 0 1.22zm0 3.538H6.773c-.797 0-.797-1.195 0-1.195h9.632c.797 0 .797 1.195 0 1.195zm0 3.563H6.773c-.797 0-.797-1.219 0-1.219h9.632c.797 0 .797 1.219 0 1.219zM7.523 28.917c0 .938 1.687 1.969 4.219 1.969 2.46 0 4.218-1.008 4.218-1.945v-.54c-2.133 1.5-6.328 1.5-8.437 0v.516zm0-2.53c0 .937 1.687 1.944 4.219 1.944 2.46 0 4.195-1.007 4.218-1.921v-.54c-2.133 1.5-6.328 1.5-8.437 0v.516zm0-2.532c0 .914 1.687 1.945 4.219 1.945 2.46 0 4.195-1.008 4.218-1.922v-.538c-2.133 1.5-6.328 1.5-8.437 0v.515zm8.437-2.508c0-.937-1.734-1.968-4.219-1.968-2.484 0-4.218 1.031-4.218 1.945 0 .914 1.734 1.945 4.219 1.945 2.46 0 4.195-1.031 4.218-1.922z" fill="#01BC8C"/></svg>