<svg width="38" height="42" fill="none" xmlns="http://www.w3.org/2000/svg"><path fill-rule="evenodd" clip-rule="evenodd" d="M28.704 29.52H9.296a.557.557 0 01-.57-.571v-16.39c0-.327.244-.572.57-.572h19.408c.326 0 .57.245.57.571v16.39a.557.557 0 01-.57.572zM9.867 28.378h18.266v-15.25H9.867v15.25z" fill="#01BC8C"/><path fill-rule="evenodd" clip-rule="evenodd" d="M29.764 19.326h-1.142a.557.557 0 01-.57-.57c0-.327.244-.572.57-.572h1.142c1.55 0 2.772-.978 2.772-2.12V7.747c0-.327.245-.571.571-.571.327 0 .571.244.571.57v8.318c0 1.794-1.794 3.262-3.914 3.262zm-20.468 0H8.073c-2.12 0-3.833-1.468-3.833-3.262V7.747c0-.327.245-.571.571-.571.326 0 .57.244.57.57v8.318c0 1.142 1.224 2.12 2.692 2.12h1.223c.326 0 .57.245.57.571a.557.557 0 01-.57.571z" fill="#01BC8C"/><path fill-rule="evenodd" clip-rule="evenodd" d="M2.12 10.438a.448.448 0 01-.407-.245c-.245-.244-.163-.57.081-.734l2.691-2.12c.245-.245.571-.163.816.082.163.244.081.57-.163.815l-2.691 2.12c-.082.082-.164.082-.327.082z" fill="#01BC8C"/><path fill-rule="evenodd" clip-rule="evenodd" d="M7.502 10.438c-.081 0-.244 0-.326-.082l-2.69-2.12c-.246-.245-.327-.57-.082-.815.163-.245.489-.327.733-.082l2.691 2.12c.245.163.327.49.082.734a.448.448 0 01-.408.245zm22.914 0c-.163 0-.326-.082-.489-.245a.531.531 0 01.163-.734l2.691-2.12c.245-.245.571-.163.734.082.245.244.163.57-.081.815l-2.691 2.12c-.082.082-.163.082-.327.082z" fill="#01BC8C"/><path fill-rule="evenodd" clip-rule="evenodd" d="M35.798 10.438c-.081 0-.244 0-.326-.082l-2.69-2.12c-.245-.245-.327-.57-.164-.815.245-.245.57-.327.816-.082l2.69 2.12c.245.163.327.49.082.734a.449.449 0 01-.408.245zM4.811 7.991C2.201 7.991 0 6.197 0 3.996 0 1.794 2.202 0 4.811 0c2.61 0 4.73 1.794 4.73 3.996 0 2.201-2.12 3.995-4.73 3.995zm0-6.85c-2.038 0-3.67 1.305-3.67 2.855S2.774 6.85 4.812 6.85C6.768 6.85 8.4 5.545 8.4 3.996c0-1.55-1.63-2.854-3.588-2.854z" fill="#01BC8C"/><path fill-rule="evenodd" clip-rule="evenodd" d="M33.189 7.991c-2.61 0-4.812-1.794-4.812-3.995C28.377 1.794 30.58 0 33.19 0 35.88 0 38 1.794 38 3.996c0 2.201-2.2 3.995-4.81 3.995zm0-6.85c-1.957 0-3.67 1.305-3.67 2.855s1.713 2.854 3.67 2.854c2.038 0 3.67-1.305 3.67-2.854 0-1.55-1.632-2.854-3.67-2.854zm-8.644 5.546h-11.09a.557.557 0 01-.571-.571v-4.24c0-.327.244-.571.57-.571h11.09c.327 0 .572.244.572.57v4.24a.558.558 0 01-.571.572zm-10.52-1.142h10.03V2.446h-10.03v3.099z" fill="#01BC8C"/><path fill-rule="evenodd" clip-rule="evenodd" d="M28.948 4.566h-4.403a.557.557 0 01-.57-.57c0-.327.244-.571.57-.571h4.403c.326 0 .571.244.571.57a.556.556 0 01-.57.571zm-15.493 0H8.97a.557.557 0 01-.571-.57c0-.327.245-.571.57-.571h4.486c.326 0 .57.244.57.57a.556.556 0 01-.57.571zM19 13.129a.557.557 0 01-.57-.571V6.116c0-.326.244-.571.57-.571.326 0 .57.245.57.57v6.443c0 .326-.244.57-.57.57zm13.617 21.284a.557.557 0 01-.57-.57v-8.4c0-1.06-1.223-2.039-2.61-2.039h-.815a.557.557 0 01-.571-.57c0-.327.245-.571.57-.571h.816c2.039 0 3.751 1.467 3.751 3.18v8.4c0 .325-.244.57-.57.57zm-27.317 0a.557.557 0 01-.571-.57v-8.4c0-1.713 1.712-3.18 3.751-3.18h.816c.326 0 .57.244.57.57a.556.556 0 01-.57.571H8.48c-1.386 0-2.61.897-2.61 2.039v8.4c0 .325-.244.57-.57.57z" fill="#01BC8C"/><path fill-rule="evenodd" clip-rule="evenodd" d="M32.618 34.413a.448.448 0 01-.408-.245c-.244-.245-.163-.571.082-.734l2.61-2.12c.244-.245.57-.163.733.081.245.245.163.571-.081.734l-2.61 2.12c-.081.163-.163.163-.326.163z" fill="#01BC8C"/><path fill-rule="evenodd" clip-rule="evenodd" d="M32.618 34.413c-.163 0-.245 0-.326-.164l-2.61-2.12c-.244-.163-.326-.49-.081-.734.163-.244.49-.326.734-.081l2.61 2.12c.244.163.325.49.08.734a.448.448 0 01-.407.245zm-27.318 0a.448.448 0 01-.407-.245c-.245-.245-.163-.571.081-.734l2.61-2.12c.244-.245.57-.163.734.081.244.245.163.571-.082.734l-2.61 2.12c-.08.163-.162.163-.325.163z" fill="#01BC8C"/><path fill-rule="evenodd" clip-rule="evenodd" d="M5.3 34.413c-.163 0-.244 0-.326-.164l-2.61-2.12c-.244-.163-.326-.49-.081-.734.163-.244.49-.326.734-.081l2.61 2.12c.244.163.326.49.08.734a.448.448 0 01-.407.245z" fill="#01BC8C"/><path fill-rule="evenodd" clip-rule="evenodd" d="M5.219 41.751a5.122 5.122 0 01-3.262-1.141C1.06 39.876.571 38.816.571 37.755c0-1.06.49-2.12 1.386-2.854A5.122 5.122 0 015.22 33.76c2.528 0 4.648 1.794 4.648 3.995 0 2.202-2.12 3.996-4.648 3.996zm0-6.85c-1.876 0-3.507 1.305-3.507 2.854 0 1.55 1.631 2.855 3.507 2.855 1.957 0 3.506-1.305 3.506-2.855 0-1.549-1.549-2.854-3.506-2.854zm27.481 6.85a5.123 5.123 0 01-3.263-1.141c-.896-.734-1.386-1.794-1.386-2.855 0-1.06.49-2.12 1.387-2.854a5.123 5.123 0 013.261-1.141c2.528 0 4.648 1.794 4.648 3.995 0 2.202-2.12 3.996-4.648 3.996zm0-6.85c-1.876 0-3.507 1.305-3.507 2.854 0 1.55 1.63 2.855 3.506 2.855 1.957 0 3.507-1.305 3.507-2.855 0-1.549-1.55-2.854-3.507-2.854zm-8.318 5.545H13.618a.557.557 0 01-.57-.57v-4.24c0-.327.244-.572.57-.572h10.764c.326 0 .571.245.571.571v4.24a.557.557 0 01-.57.571zM14.19 39.305h9.622v-3.099H14.19v3.099z" fill="#01BC8C"/><path fill-rule="evenodd" clip-rule="evenodd" d="M28.622 38.326h-4.24a.557.557 0 01-.571-.57c0-.327.245-.571.57-.571h4.241c.326 0 .571.244.571.57a.557.557 0 01-.57.571zm-15.004 0H9.296a.557.557 0 01-.57-.57c0-.327.244-.571.57-.571h4.322c.326 0 .57.244.57.57a.556.556 0 01-.57.571zm6.605-10.6h-2.527a.557.557 0 01-.571-.57v-.653c-.408-.082-.816-.163-1.142-.408l-.49.49a.74.74 0 01-.815 0l-1.875-1.713a.622.622 0 01-.163-.408c0-.163.081-.326.163-.407l.489-.49c-.163-.326-.326-.652-.408-.978h-.734a.557.557 0 01-.57-.571V19.57c0-.326.244-.57.57-.57h.734c.082-.327.245-.653.408-.979l-.49-.49a.622.622 0 01-.162-.407c0-.163.081-.326.163-.408l1.875-1.712c.245-.245.571-.245.816 0l.489.408a4.721 4.721 0 011.142-.408v-.57c0-.327.244-.572.57-.572h2.528c.327 0 .571.245.571.571v.57c.408.082.816.246 1.142.409l.49-.408c.244-.245.57-.245.815 0l1.794 1.712a.623.623 0 01.163.408.623.623 0 01-.163.408l-.408.408c.163.326.326.733.408 1.06h.733c.327 0 .571.244.571.57v2.447c0 .326-.244.57-.57.57h-.734c-.082.327-.245.653-.408.98l.408.488c.244.245.244.571 0 .816l-1.794 1.712a.74.74 0 01-.816 0l-.49-.489c-.325.245-.733.326-1.14.408v.652a.558.558 0 01-.572.571zm-1.957-1.142h1.387v-.489c0-.244.163-.49.407-.57.653-.164 1.224-.327 1.631-.572.245-.163.49-.081.734.082l.408.326.978-.897-.326-.407c-.163-.245-.244-.49-.081-.734.326-.408.489-.898.652-1.468a.613.613 0 01.57-.408h.572v-1.305h-.571a.613.613 0 01-.571-.407c-.163-.49-.326-1.06-.652-1.55-.163-.244-.082-.57.081-.734l.326-.326-.978-.897-.408.326c-.245.163-.49.245-.734.082-.407-.326-.978-.49-1.55-.571-.244 0-.488-.245-.488-.57v-.49h-1.387v.49c0 .325-.244.57-.489.57-.57.082-1.142.245-1.55.57-.244.164-.489.082-.733-.08l-.408-.327-1.06.897.408.326c.163.163.244.49.081.734-.326.49-.489 1.06-.652 1.55a.613.613 0 01-.571.407h-.57v1.305h.57a.61.61 0 01.57.408c.164.57.409 1.06.653 1.468.163.244.082.57-.081.733l-.408.408 1.06.979.408-.408c.244-.163.489-.245.734-.082.407.327.978.408 1.63.571a.613.613 0 01.408.571v.49z" fill="#01BC8C"/><path fill-rule="evenodd" clip-rule="evenodd" d="M18.92 25.198c-1.224 0-2.366-.49-3.263-1.305-.897-.816-1.386-1.876-1.386-3.099 0-1.142.49-2.283 1.386-3.099.897-.815 2.039-1.304 3.262-1.304 1.223 0 2.446.489 3.262 1.304a4.212 4.212 0 011.386 3.1c0 1.222-.49 2.282-1.386 3.098-.816.815-2.039 1.305-3.262 1.305zm0-7.666c-1.877 0-3.507 1.468-3.507 3.262s1.63 3.262 3.506 3.262c1.957 0 3.506-1.468 3.506-3.262s-1.549-3.262-3.506-3.262z" fill="#01BC8C"/></svg>