<svg width="50" height="40" fill="none" xmlns="http://www.w3.org/2000/svg"><path fill-rule="evenodd" clip-rule="evenodd" d="M39.632 33.536a4.425 4.425 0 01-4.423-4.452c0-2.46 1.992-4.452 4.423-4.452 2.43 0 4.48 1.991 4.48 4.452 0 2.49-1.99 4.452-4.48 4.452zm0-7.44a2.988 2.988 0 00-2.988 3.017c0 1.728 1.347 3.046 2.988 3.046a3.025 3.025 0 003.046-3.046c0-1.699-1.377-3.017-3.046-3.017z" fill="#01BC8C"/><path fill-rule="evenodd" clip-rule="evenodd" d="M41.39 39.394h-3.486a.725.725 0 01-.733-.732v-1.7c-.498-.175-.937-.38-1.376-.585l-1.172 1.2a.763.763 0 01-1.025 0l-2.49-2.43c-.117-.146-.204-.352-.204-.498 0-.176.087-.38.205-.498l1.2-1.171c-.263-.44-.41-.938-.585-1.377h-1.7a.725.725 0 01-.731-.732v-3.486c0-.41.322-.732.732-.732h1.757c.117-.44.323-.937.557-1.376l-1.23-1.23a.754.754 0 01-.205-.47c0-.175.087-.38.205-.497l2.49-2.431a.708.708 0 011.024 0l1.201 1.142a5.13 5.13 0 011.377-.586v-1.67a.72.72 0 01.732-.702h3.485a.72.72 0 01.733.703v1.728c.497.146.937.352 1.376.556l1.201-1.171c.264-.293.703-.293.996 0l2.43 2.43a.764.764 0 01.206.499.754.754 0 01-.205.468l-1.172 1.172c.235.469.44.937.615 1.406h1.67c.41 0 .732.322.732.732v3.485c0 .41-.322.733-.732.733h-1.67c-.175.468-.38.966-.556 1.376l1.171 1.172a.765.765 0 01.205.498.755.755 0 01-.205.468l-2.43 2.431a.708.708 0 01-1.026 0l-1.171-1.171c-.41.234-.908.41-1.377.556v1.728c-.088.44-.41.762-.82.762zm-2.754-1.406h2.05v-1.523c0-.322.205-.615.527-.674a7.317 7.317 0 002.05-.85.67.67 0 01.88.06l1.112 1.054 1.435-1.435-1.083-1.084c-.235-.234-.293-.586-.088-.879.41-.615.703-1.288.85-1.991a.748.748 0 01.702-.557h1.494v-2.08H47.07a.748.748 0 01-.703-.556c-.146-.703-.44-1.347-.85-1.991a.853.853 0 01.089-.908l1.083-1.084-1.435-1.464-1.113 1.054c-.234.234-.615.293-.85.117a8.907 8.907 0 00-2.02-.85.687.687 0 01-.527-.673v-1.523h-2.08v1.523a.687.687 0 01-.527.674 6.45 6.45 0 00-2.02.85.664.664 0 01-.85-.118l-1.113-1.084-1.465 1.435 1.055 1.084c.263.234.293.557.146.85-.41.673-.703 1.376-.82 2.02a.748.748 0 01-.703.557h-1.523v2.08h1.523c.322 0 .615.234.703.556.146.703.44 1.377.82 1.991.147.293.117.645-.146.85l-1.055 1.054 1.465 1.465 1.113-1.084c.234-.234.585-.293.85-.117a6.45 6.45 0 002.02.85.687.687 0 01.527.673v1.728h-.03zm-19.214-6.209a.744.744 0 01-.732-.732c0-5.477 1.347-7.264 2.519-8.846.908-1.2 1.582-2.138 1.582-4.569 0-4.364-3.574-7.937-7.938-7.937-4.393 0-7.966 3.573-7.966 7.937 0 2.431.703 3.368 1.581 4.57 1.172 1.58 2.519 3.367 2.519 8.845 0 .38-.322.732-.732.732a.744.744 0 01-.732-.732c0-5.009-1.143-6.532-2.226-7.996-.88-1.23-1.875-2.49-1.875-5.419 0-5.155 4.188-9.372 9.373-9.372a9.344 9.344 0 019.372 9.372c0 2.93-.908 4.188-1.845 5.419-1.113 1.464-2.226 2.987-2.226 7.996.058.38-.264.732-.674.732z" fill="#01BC8C"/><path fill-rule="evenodd" clip-rule="evenodd" d="M9.376 19.682a.725.725 0 01-.732-.732c0-4.1 3.31-7.44 7.41-7.44.41 0 .732.323.732.733s-.322.732-.732.732a5.994 5.994 0 00-6.004 6.004c0 .381-.322.703-.674.703zM21.795 8.728c-.117 0-.264-.058-.38-.088a.742.742 0 01-.264-.966l1.2-2.138a.742.742 0 01.967-.264c.322.205.468.615.293.967l-1.23 2.108a.673.673 0 01-.586.381zm5.096 5.097a.644.644 0 01-.586-.352c-.205-.322-.088-.79.264-.996l2.109-1.2c.322-.205.79-.088.995.293.176.322.059.761-.292.966l-2.11 1.2a.903.903 0 01-.38.089zM7.912 8.728a.717.717 0 01-.615-.38l-1.201-2.11c-.205-.322-.088-.761.263-.966a.69.69 0 01.967.263l1.23 2.138c.205.323.088.762-.293.967-.117.088-.234.088-.351.088zm-5.067 5.096a.902.902 0 01-.381-.088l-2.109-1.2a.785.785 0 01-.293-.967c.205-.352.615-.469.996-.293l2.109 1.2c.322.206.44.616.264.997a.703.703 0 01-.586.351zm18.013 20.503a.725.725 0 01-.733-.732c0-.41.323-.732.733-.732.292 0 .527-.235.527-.557 0-.351-.235-.527-.527-.527H8.849a.507.507 0 00-.527.527c0 .322.234.557.527.557.41 0 .732.322.732.732s-.322.732-.732.732c-1.113 0-1.962-.908-1.962-1.992 0-1.083.908-1.962 1.962-1.962h12.009c1.083 0 1.933.908 1.933 1.962.058 1.084-.85 1.992-1.933 1.992z" fill="#01BC8C"/><path fill-rule="evenodd" clip-rule="evenodd" d="M20.858 36.875H8.849c-1.113 0-1.962-.879-1.962-1.992 0-1.083.908-1.933 1.962-1.933h12.009c1.083 0 1.933.879 1.933 1.933.058 1.055-.85 1.992-1.933 1.992zM8.849 34.327a.507.507 0 00-.527.527c0 .322.234.556.527.556h12.009c.292 0 .527-.234.527-.556a.507.507 0 00-.527-.527H8.849z" fill="#01BC8C"/><path fill-rule="evenodd" clip-rule="evenodd" d="M15.79 39.394h-1.845a3.263 3.263 0 01-3.25-3.252c0-.41.35-.732.732-.732.41 0 .732.322.732.732 0 1.025.82 1.846 1.845 1.846h1.816c1.025 0 1.816-.82 1.816-1.846 0-.41.322-.732.732-.732s.732.322.732.732c-.088 1.787-1.523 3.252-3.31 3.252zm-.937-7.615a.744.744 0 01-.732-.732v-7.235c0-.234.117-.498.352-.615l2.84-1.61c.323-.206.791-.088.996.234.176.322.059.761-.263.966l-2.46 1.435v6.854c0 .351-.323.703-.733.703z" fill="#01BC8C"/><path fill-rule="evenodd" clip-rule="evenodd" d="M14.853 24.515c-.117 0-.263-.058-.38-.088l-2.783-1.64c-.322-.205-.469-.644-.264-.966.205-.323.674-.44.996-.235l2.783 1.611c.322.205.439.645.263.967-.146.205-.38.351-.615.351zm24.779-9.402a.72.72 0 01-.732-.703V3.573c0-1.2-.967-2.167-2.139-2.167H17.724c-1.201 0-2.197.966-2.197 2.167V9.05a.744.744 0 01-.732.733c-.381 0-.732-.352-.732-.733V3.573c0-1.991 1.64-3.573 3.631-3.573h19.038a3.569 3.569 0 013.573 3.573V14.44c.059.35-.263.673-.673.673z" fill="#01BC8C"/><path fill-rule="evenodd" clip-rule="evenodd" d="M39.632 15.113c-.147 0-.352-.059-.469-.176l-3.485-3.514a.674.674 0 010-.996.674.674 0 01.995 0l2.959 2.958 2.958-2.958a.708.708 0 011.025 0 .674.674 0 010 .995l-3.485 3.515c-.118.117-.293.176-.498.176z" fill="#01BC8C"/></svg>