<svg width="45" height="44" fill="none" xmlns="http://www.w3.org/2000/svg"><path fill-rule="evenodd" clip-rule="evenodd" d="M40.806 5.025h-.911v.911a.763.763 0 01-1.525 0v-.911h-.918a.767.767 0 01-.76-.766c0-.424.342-.766.76-.766h.918v-.911a.763.763 0 111.525 0v.911h.911c.424 0 .766.342.766.766a.764.764 0 01-.766.766zM16.6 40.192a18.713 18.713 0 01-9.221-6.822.769.769 0 01.177-1.07.767.767 0 011.063.178 17.28 17.28 0 006.803 5.613.757.757 0 01.228-.721l1.779-1.64-.481-.449H13.79a.764.764 0 01-.766-.765v-23.89c0-.418.342-.76.766-.76h17.422c.424 0 .766.342.766.76v23.89a.764.764 0 01-.766.765h-3.151l-.481.45 1.772 1.639a.757.757 0 01.227.721 16.952 16.952 0 009.955-14.752h-3.133c-.626 0-.987-.727-.613-1.227l3.879-5.139a.77.77 0 011.215-.006l3.962 5.138c.38.5.025 1.235-.608 1.235h-3.17a18.359 18.359 0 01-3.646 10.309 18.5 18.5 0 01-9.011 6.543l-.171.304a.773.773 0 01-.893.348l-2.303-.721-.532 2.36a.77.77 0 01-.747.595h-2.518a.76.76 0 01-.747-.595l-.532-2.36-2.31.721a.765.765 0 01-.886-.348l-.17-.304zm1.19-.993l2.107-.658c.443-.133.702.158 1.063.335a.751.751 0 01.405.519l.487 2.151h1.298l.487-2.157c.101-.444.55-.576.816-.754.26-.17.43-.158.652-.094l2.114.658.645-1.12-1.62-1.5c-.335-.31-.221-.659-.247-1.083a.772.772 0 01.247-.613l1.62-1.5-.645-1.127-2.114.658c-.436.14-.702-.151-1.057-.329a.76.76 0 01-.411-.519l-.487-2.158h-1.298l-.487 2.158c-.101.45-.481.532-.81.753a.782.782 0 01-.658.095l-2.108-.658-.651 1.127 1.626 1.5c.335.31.215.658.247 1.082a.78.78 0 01-.247.614l-1.626 1.5.651 1.12zm22.529-17.391h2.367l-2.405-3.114-2.348 3.114h2.386zm-36.383 0C4.335 11.86 12.53 3.993 22.504 3.993a18.584 18.584 0 0115.119 7.784.755.755 0 01-.177 1.064.756.756 0 01-1.063-.178 17.11 17.11 0 00-13.879-7.145c-9.15 0-16.637 7.24-17.036 16.29H8.6c.633 0 .994.734.608 1.234l-3.962 5.139a.77.77 0 01-1.215-.007L.158 23.036a.767.767 0 01.608-1.228h3.17zM2.297 23.34l2.354 3.113L7.05 23.34H2.297zM13.258 1.53H.766A.764.764 0 010 .766C0 .342.342 0 .766 0h12.492c.424 0 .766.342.766.766a.764.764 0 01-.766.765zM8.816 5.27H.766A.764.764 0 010 4.507c0-.424.342-.766.766-.766h8.05c.417 0 .759.342.759.766a.763.763 0 01-.76.766zm20.75 28.485h.88V11.391h-15.89v22.365h.886a.733.733 0 01.07-.607l1.258-2.184a.757.757 0 01.887-.348l2.31.715.531-2.354a.76.76 0 01.747-.595h2.518a.77.77 0 01.747.595l.532 2.354 2.303-.715a.765.765 0 01.893.348l1.26 2.184a.784.784 0 01.069.607zM28.302 14.81h-11.6a.767.767 0 01-.766-.76c0-.424.348-.765.766-.765h11.6a.763.763 0 110 1.525zm0 3.41h-11.6a.767.767 0 01-.766-.759c0-.424.348-.765.766-.765h11.6a.763.763 0 110 1.525zm0 3.412h-11.6a.768.768 0 01-.766-.766c0-.418.348-.76.766-.76h11.6a.763.763 0 110 1.526zm0 3.41h-11.6a.768.768 0 01-.766-.765c0-.418.348-.76.766-.76h11.6a.763.763 0 110 1.526zm-5.797 13.31a2.621 2.621 0 010-5.24 2.62 2.62 0 012.62 2.62 2.625 2.625 0 01-2.62 2.62zm0-3.715a1.1 1.1 0 00-1.095 1.095c0 .6.494 1.088 1.095 1.088s1.089-.487 1.089-1.088c0-.602-.488-1.095-1.089-1.095zm17.239 7.088a.764.764 0 01-.766-.766v-.911h-.911a.768.768 0 01-.766-.766c0-.424.342-.766.766-.766h.911v-.911a.765.765 0 111.532 0v.911h.911c.424 0 .766.342.766.766a.764.764 0 01-.766.766h-.911v.911a.764.764 0 01-.766.766zM4.639 40.313a.764.764 0 01-.766-.766v-.912h-.911a.763.763 0 110-1.525h.911v-.91a.763.763 0 111.525 0v.911h.912a.763.763 0 110 1.525h-.912v.912a.763.763 0 01-.76.766z" fill="#01BC8C"/></svg>