<svg width="40" height="40" fill="none" xmlns="http://www.w3.org/2000/svg"><path d="M16.418 2.678a13.746 13.746 0 1013.746 13.746A13.762 13.762 0 0016.418 2.678zm0 26.183a12.438 12.438 0 1112.437-12.437A12.45 12.45 0 0116.418 28.86z" fill="#01BC8C"/><path d="M29.57 26.145a16.393 16.393 0 10-2.698 2.856l9.757 9.754a1.96 1.96 0 102.774-2.769l-9.832-9.84zM1.363 16.424a15.055 15.055 0 1115.055 15.055A15.072 15.072 0 011.363 16.424zm37.114 21.41a.649.649 0 01-.916 0l-9.718-9.712c.313-.305.613-.623.9-.953l9.734 9.743a.635.635 0 01.146.71.643.643 0 01-.146.212z" fill="#01BC8C"/><path d="M9.872 21.005h2.619a.654.654 0 00.654-.654v-6.546a.655.655 0 00-.654-.655H9.872a.655.655 0 00-.654.655v6.546a.654.654 0 00.654.654zm.655-6.545h1.31v5.236h-1.31V14.46zm4.582 6.546h2.618a.655.655 0 00.655-.655v-7.855a.655.655 0 00-.655-.654H15.11a.655.655 0 00-.655.654v7.855a.655.655 0 00.655.655zm.655-7.855h1.309v6.546h-1.31V13.15zm7.2-2.619h-2.618a.655.655 0 00-.655.655v9.164a.655.655 0 00.655.655h2.618a.655.655 0 00.654-.655v-9.164a.655.655 0 00-.654-.655zm-.655 9.164H21v-7.855h1.31v7.855zM31.09 2.677h1.693V1.368h-1.964a.655.655 0 00-.463.192l-1.964 1.964.926.925 1.772-1.772zm8.893-1.309h-5.891v1.31h5.891v-1.31zm-4.582 2.618h-1.31v1.31h1.31v-1.31zm4.582 0H36.71v1.31h3.273v-1.31zm0 2.619h-5.891v1.31h5.891v-1.31zM9.601 36.716H7.91v1.31h1.963c.174 0 .34-.07.463-.192L12.3 35.87l-.926-.926-1.772 1.772zm-3.001 0H.707v1.309H6.6v-1.31zm0-2.618H5.29v1.309H6.6v-1.31zm-2.619 0H.708v1.309h3.273v-1.31zM6.6 31.479H.707v1.309H6.6v-1.31zm17.019-9.165H9.218v1.31h14.4v-1.31z" fill="#01BC8C"/></svg>