<svg width="40" height="40" fill="none" xmlns="http://www.w3.org/2000/svg"><path d="M12 16.004h-1.332v4H12v-4zm2-1.334h-1.332v5.335H14V14.67zm2-1.333h-1.332v6.667H16v-6.667zm2-1.333h-1.332v8H18v-8zm2.001-.667h-1.333v8.667h1.333v-8.667z" fill="#01BC8C"/><path d="M27.368 22.657a3.313 3.313 0 00-2.357-.976c-.154.005-.308.02-.46.045l-1.85-1.845a8.699 8.699 0 10-2.824 2.824l1.846 1.85a3.38 3.38 0 00-.045.46 3.31 3.31 0 00.976 2.357l11.315 11.314a3.333 3.333 0 004.714-4.714L27.368 22.657zM8 15.337a7.334 7.334 0 117.334 7.334A7.342 7.342 0 018 15.338zm12.968 6.574c.336-.29.65-.603.94-.94l1.266 1.263a3.324 3.324 0 00-.942.942l-1.264-1.265zm16.771 15.832a2.048 2.048 0 01-2.828 0L23.597 26.429a2 2 0 112.828-2.828L37.74 34.915a2 2 0 010 2.828zm-6.323-26.326a2 2 0 10-2.829-2.828 2 2 0 002.829 2.828zM29.53 9.532a.667.667 0 11.943.942.667.667 0 01-.943-.942z" fill="#01BC8C"/><path d="M20.688 26.671h-2.02v-.513a11.25 11.25 0 002.416-1.066l-.679-1.149a9.95 9.95 0 01-2.555 1.061.675.675 0 00-.516.65v3.684h-4v-3.683a.675.675 0 00-.516-.65 9.955 9.955 0 01-2.54-1.051.676.676 0 00-.825.094l-2.605 2.604-2.828-2.829 2.604-2.604a.676.676 0 00.094-.826 9.951 9.951 0 01-1.052-2.54.675.675 0 00-.65-.516H1.333v-4h3.683a.674.674 0 00.65-.516 9.951 9.951 0 011.052-2.54.676.676 0 00-.094-.826L4.02 6.851l2.828-2.829 2.605 2.605a.676.676 0 00.825.094 9.953 9.953 0 012.54-1.052.675.675 0 00.516-.65V1.336h4V5.02a.675.675 0 00.516.65 9.951 9.951 0 012.54 1.052.676.676 0 00.826-.094l2.604-2.604 2.829 2.828-2.604 2.604a.676.676 0 00-.094.826c.466.794.82 1.649 1.052 2.54a.675.675 0 00.65.516h3.682v4h-3.683a.676.676 0 00-.65.516 7.995 7.995 0 01-1.112 2.52l1.104.75c.41-.61.742-1.268.99-1.958A10 10 0 1022.93 2.932l.047.047-2.347 2.348a11.271 11.271 0 00-1.962-.811V.67A.667.667 0 0018 .003h-5.334A.667.667 0 0012 .67v3.846c-.678.208-1.335.48-1.962.81l-2.72-2.718a.667.667 0 00-.942 0L2.605 6.38a.667.667 0 000 .943l2.719 2.718a11.268 11.268 0 00-.811 1.963H.667A.667.667 0 000 12.67v5.334a.667.667 0 00.667.667h3.846c.208.678.48 1.335.81 1.962l-2.718 2.719a.667.667 0 000 .942l3.534 3.534a4.654 4.654 0 108.841 2.843h2.048a.667.667 0 00-.635.463c-.11.342-.246.675-.41.995a.662.662 0 00.128.769l2.105 2.094-1.888 1.885-2.103-2.097a.679.679 0 00-.78-.12 7.439 7.439 0 01-.962.391.68.68 0 00-.482.64v2.98H9.334v-2.973a.661.661 0 00-.452-.631 6.681 6.681 0 01-1.008-.414.66.66 0 00-.766.129l-2.095 2.105-1.885-1.889 2.098-2.102a.678.678 0 00.118-.78 7.441 7.441 0 01-.39-.963.68.68 0 00-.64-.482h-2.98v-2.666H4V26.67H.667a.667.667 0 00-.667.667v4a.667.667 0 00.667.667h3.187l.11.267-2.266 2.27a.647.647 0 000 .913l2.84 2.848a.666.666 0 00.729.143.668.668 0 00.216-.148l2.25-2.252.267.112v3.2a.647.647 0 00.647.647h4.04a.647.647 0 00.647-.647V36.15l.267-.11 2.27 2.266a.646.646 0 00.913 0l2.848-2.84a.666.666 0 000-.945l-2.256-2.244.111-.273h3.2a.647.647 0 00.647-.647v-4.04a.646.646 0 00-.646-.647zm9.98-12.053a4.66 4.66 0 002.633-7.911 4.654 4.654 0 00-5.633-.724l-.976-.974a5.996 5.996 0 017.552 9.237 5.939 5.939 0 01-3.576 1.712v-1.34zm-4.512-2.614a11.269 11.269 0 00-.811-1.963l2.718-2.718c.01-.01.013-.024.023-.035a3.326 3.326 0 014.267 5.073 3.275 3.275 0 01-1.685.91v-.6a.667.667 0 00-.666-.667h-3.846zm9.975-8.13a8.652 8.652 0 01-6.048 14.78.658.658 0 00.585-.65v-.705a7.267 7.267 0 004.519-2.11 7.33 7.33 0 00-9.452-11.14l-.956-.952a8.675 8.675 0 0111.352.777zm-23.302 28.02a3.333 3.333 0 01-5.121-4.216l2.333-2.33c.627.331 1.282.602 1.96.81v3.847a.666.666 0 00.666.666h.923c-.16.459-.42.876-.76 1.222zm7.172-1.223h-2a.667.667 0 00.667-.666v-2H20v2.666z" fill="#01BC8C"/></svg>