<svg width="45" height="41" fill="none" xmlns="http://www.w3.org/2000/svg"><path fill-rule="evenodd" clip-rule="evenodd" d="M22.503 22.56a3.985 3.985 0 01-3.987-3.98 3.986 3.986 0 013.987-3.987 3.983 3.983 0 010 7.967zm0 14.599a18.483 18.483 0 01-13.144-5.442 18.462 18.462 0 01-5.423-12.378H.766a.754.754 0 01-.684-.418.756.756 0 01.076-.804l3.873-5.138a.764.764 0 011.215-.006l3.961 5.138a.77.77 0 01.083.804.776.776 0 01-.69.424H5.467c.4 9.049 7.885 16.288 17.036 16.288 5.486 0 10.675-2.67 13.877-7.144a.763.763 0 111.24.892 18.728 18.728 0 01-6.486 5.657 18.568 18.568 0 01-8.631 2.127zM4.676 17.814H7.05L4.652 14.7l-2.354 3.114h2.38zm34.856 0c-.399-9.05-7.885-16.289-17.03-16.289A17.111 17.111 0 008.62 8.67a.761.761 0 01-1.063.177.756.756 0 01-.177-1.063 18.68 18.68 0 016.486-5.664A18.646 18.646 0 0122.503 0c4.961 0 9.625 1.93 13.137 5.442 3.328 3.329 5.24 7.695 5.423 12.372h3.17c.292 0 .557.164.69.424a.768.768 0 01-.082.803l-3.961 5.145a.777.777 0 01-.608.297.783.783 0 01-.607-.303l-3.88-5.145a.757.757 0 01-.07-.797.76.76 0 01.684-.424h3.133zm-1.601 1.525l2.347 3.12 2.405-3.12h-4.752zM11.473 41.006H.766A.764.764 0 010 40.24c0-.424.342-.765.766-.765h10.707a.764.764 0 110 1.531zm0-2.772H.766A.764.764 0 010 37.47c0-.424.342-.766.766-.766h10.707c.424 0 .766.342.766.766a.764.764 0 01-.766.765zm-3.81-2.771H.766A.768.768 0 010 34.697c0-.424.342-.766.766-.766h6.897c.424 0 .766.342.766.766a.768.768 0 01-.766.766zm17.099-2.082h-4.525a.766.766 0 01-.753-.62l-.76-3.943a10.782 10.782 0 01-3.207-1.854l-3.791 1.316a.764.764 0 01-.911-.341l-2.266-3.924a.757.757 0 01.165-.955l3.031-2.633a11.257 11.257 0 01-.158-1.848c0-.62.057-1.246.158-1.854L8.714 14.1a.766.766 0 01-.165-.962l2.266-3.923a.761.761 0 01.911-.336l3.79 1.31a10.918 10.918 0 013.209-1.854l.76-3.936a.765.765 0 01.752-.62h4.525c.367 0 .683.26.753.62l.76 3.936c1.17.43 2.246 1.057 3.208 1.854l3.79-1.31a.761.761 0 01.911.336l2.266 3.923a.772.772 0 01-.158.962l-3.038 2.626c.108.614.158 1.234.158 1.854 0 .62-.05 1.24-.158 1.848l3.038 2.633c.272.24.341.639.158.955l-2.266 3.924a.764.764 0 01-.91.341l-3.791-1.316a10.782 10.782 0 01-3.209 1.854l-.76 3.943a.766.766 0 01-.752.62zm-3.898-1.532h3.271l.722-3.752c.05-.272.247-.5.512-.582a9.333 9.333 0 003.43-1.981.77.77 0 01.766-.158l3.613 1.253 1.633-2.829-2.892-2.506a.761.761 0 01-.247-.734 9.487 9.487 0 000-3.961.777.777 0 01.247-.74l2.892-2.5-1.633-2.835-3.613 1.253a.768.768 0 01-.766-.152 9.245 9.245 0 00-3.43-1.981.761.761 0 01-.512-.588l-.722-3.753h-3.271l-.722 3.753a.762.762 0 01-.512.588 9.245 9.245 0 00-3.43 1.98.768.768 0 01-.766.153l-3.613-1.253-1.633 2.835 2.892 2.5a.777.777 0 01.247.74 9.487 9.487 0 000 3.961.762.762 0 01-.247.734L10.188 23.8l1.633 2.829 3.613-1.253a.77.77 0 01.766.158c1 .905 2.152 1.57 3.43 1.98.266.083.462.31.512.583l.722 3.752zm1.639-5.53c-4.272 0-7.74-3.474-7.74-7.74a7.743 7.743 0 017.74-7.739c4.265 0 7.733 3.468 7.733 7.74 0 4.265-3.468 7.739-7.733 7.739zm0-13.954a6.221 6.221 0 00-6.215 6.214 6.216 6.216 0 006.215 6.208 6.214 6.214 0 006.208-6.208c0-3.423-2.785-6.214-6.208-6.214zm0 3.759a2.463 2.463 0 00-2.462 2.455 2.459 2.459 0 004.917 0 2.458 2.458 0 00-2.455-2.455z" fill="#01BC8C"/></svg>