<svg width="45" height="38" fill="none" xmlns="http://www.w3.org/2000/svg"><path fill-rule="evenodd" clip-rule="evenodd" d="M19.465 21.44a.764.764 0 01-.607-.304l-1.608-2.088a.769.769 0 010-.93l1.608-2.089a.765.765 0 011.069-.145c.335.26.399.74.14 1.075l-1.247 1.627 1.246 1.62a.767.767 0 01-.601 1.234zm3.038 15.725a18.483 18.483 0 01-13.144-5.442 18.462 18.462 0 01-5.423-12.378H.766a.76.76 0 01-.684-.424.744.744 0 01.076-.797l3.873-5.139a.764.764 0 011.215-.006l3.961 5.139a.77.77 0 01.082.803.776.776 0 01-.69.424H5.468c.399 9.05 7.885 16.289 17.036 16.289 5.486 0 10.675-2.67 13.877-7.145a.761.761 0 011.063-.177.762.762 0 01.178 1.07 18.726 18.726 0 01-6.487 5.657 18.568 18.568 0 01-8.631 2.126zM39.532 17.82c-.399-9.05-7.885-16.289-17.03-16.289A17.111 17.111 0 008.62 8.676a.761.761 0 01-1.064.177.762.762 0 01-.177-1.07 18.727 18.727 0 016.487-5.657A18.651 18.651 0 0122.503 0 18.48 18.48 0 0135.64 5.442a18.432 18.432 0 015.423 12.378h3.17c.292 0 .557.165.69.424a.768.768 0 01-.082.804l-3.962 5.138a.764.764 0 01-1.215-.006l-3.879-5.139a.757.757 0 01-.07-.797.76.76 0 01.684-.424h3.133zm-37.235 0h4.752l-2.398-3.113-2.354 3.113zm35.634 1.525l2.347 3.12 2.405-3.12h-4.752zM24.76 33.387h-4.524a.772.772 0 01-.753-.62l-.76-3.942a10.78 10.78 0 01-3.208-1.854l-3.79 1.316a.764.764 0 01-.912-.342L8.55 24.022a.766.766 0 01.164-.962l3.032-2.626a11.27 11.27 0 01-.159-1.848c0-.627.057-1.247.159-1.854l-3.032-2.627a.766.766 0 01-.164-.961l2.265-3.924a.764.764 0 01.912-.342l3.796 1.317a10.672 10.672 0 013.203-1.854l.759-3.937c.07-.36.386-.62.753-.62h4.525c.367 0 .683.26.753.62l.76 3.937c1.17.43 2.246 1.05 3.208 1.854l3.79-1.317a.764.764 0 01.911.342l2.266 3.924a.772.772 0 01-.158.961l-3.038 2.627c.108.607.158 1.234.158 1.854 0 .62-.05 1.24-.158 1.848l3.038 2.626c.272.24.341.645.158.962l-2.266 3.923a.764.764 0 01-.91.342l-3.791-1.316a10.78 10.78 0 01-3.209 1.854l-.76 3.942a.772.772 0 01-.752.62zm-3.898-1.531h3.272l.722-3.753c.05-.278.246-.5.512-.582a9.348 9.348 0 003.43-1.987.768.768 0 01.766-.152l3.613 1.253 1.633-2.828-2.892-2.506a.766.766 0 01-.247-.734 9.481 9.481 0 000-3.962.773.773 0 01.247-.74l2.892-2.506-1.633-2.829-3.613 1.253a.768.768 0 01-.766-.152 9.349 9.349 0 00-3.43-1.987.743.743 0 01-.512-.582l-.722-3.753h-3.272l-.72 3.753a.743.743 0 01-.514.582 9.349 9.349 0 00-3.43 1.987.768.768 0 01-.765.152L11.82 10.53l-1.633 2.829 2.892 2.506a.773.773 0 01.247.74 9.481 9.481 0 000 3.962.766.766 0 01-.247.734l-2.892 2.506 1.633 2.828 3.613-1.253a.768.768 0 01.766.152 9.26 9.26 0 003.43 1.987.744.744 0 01.512.582l.721 3.753zm1.64-5.341c-4.373 0-7.93-3.563-7.93-7.93 0-4.372 3.557-7.928 7.93-7.928 4.366 0 7.929 3.556 7.929 7.929 0 4.366-3.563 7.929-7.93 7.929zm0-14.333a6.412 6.412 0 00-6.405 6.404c0 3.525 2.873 6.398 6.405 6.398 3.524 0 6.397-2.873 6.397-6.398 0-3.531-2.873-6.404-6.397-6.404zm-.823 9.903a.756.756 0 01-.728-.98l1.633-5.48a.764.764 0 01.949-.513c.405.12.64.544.519.949l-1.64 5.48a.77.77 0 01-.733.544zm3.854-.645a.766.766 0 01-.601-1.234l1.246-1.62-1.246-1.627a.767.767 0 01.139-1.075.765.765 0 011.07.145l1.607 2.089a.769.769 0 010 .93l-1.608 2.094a.767.767 0 01-.607.298z" fill="#01BC8C"/></svg>