<svg width="45" height="45" fill="none" xmlns="http://www.w3.org/2000/svg"><path d="M42.996 31.57a2.817 2.817 0 00-3.839-1.034l-6.855 3.958a2.8 2.8 0 00-1.59-1.146l-10.49-2.805a4.89 4.89 0 00-2.468-.021l-3.692.92v-1.209a.703.703 0 00-.703-.703H7.734a.703.703 0 00-.703.703v.703H2.11a.703.703 0 00-.703.704v9.843a.703.703 0 00.703.704h4.922v.703a.703.703 0 00.703.703h5.625a.703.703 0 00.704-.703v-.97l.906.45c.684.34 1.437.518 2.201.52h10.526a4.872 4.872 0 002.461-.661l11.812-6.82a2.818 2.818 0 001.027-3.84zM7.031 40.78H2.813v-8.437H7.03v8.437zm5.625 1.407H8.437v-11.25h4.22v11.25zm28.61-7.995l-11.812 6.82c-.534.31-1.14.472-1.758.471H17.17a3.485 3.485 0 01-1.575-.372l-1.533-.767v-7.453l4.03-1.005a3.49 3.49 0 011.764.014l10.49 2.812a1.4 1.4 0 01.338 2.574 1.37 1.37 0 01-1.061.14l-8.389-2.25a.706.706 0 10-.365 1.364l8.388 2.243a2.753 2.753 0 002.13-.281 2.795 2.795 0 001.315-1.708c.078-.31.105-.631.078-.95l7.08-4.085a1.423 1.423 0 011.913.514 1.407 1.407 0 01-.507 1.919z" fill="#01BC8C"/><path d="M10.547 41.483a.704.704 0 00.703-.703v-.703a.703.703 0 00-1.406 0v.703a.703.703 0 00.703.703zm21.797-29.531h-2.637l-.127-.295 1.87-1.863a.709.709 0 000-.999l-2.98-2.981a.709.709 0 00-.999 0l-1.863 1.87-.296-.126V4.92a.703.703 0 00-.703-.703h-4.218a.703.703 0 00-.703.703v2.637l-.296.126-1.863-1.87a.709.709 0 00-.998 0l-2.982 2.981a.709.709 0 000 .999l1.87 1.863-.126.295h-2.637a.703.703 0 00-.703.703v4.219a.703.703 0 00.703.703h2.637l.127.295-1.87 1.864a.727.727 0 00-.205.499.74.74 0 00.204.5l2.982 2.98a.72.72 0 00.499.204.74.74 0 00.499-.204l1.863-1.87.296.127v2.636a.703.703 0 00.703.703h4.218a.704.704 0 00.703-.703v-2.636l.296-.127 1.863 1.87a.736.736 0 00.998 0l2.982-2.98a.74.74 0 00.204-.5.727.727 0 00-.204-.5l-1.87-1.863.126-.295h2.637a.703.703 0 00.703-.703v-4.219a.703.703 0 00-.703-.703zm-.703 4.219h-2.433a.703.703 0 00-.668.485 5.561 5.561 0 01-.43 1.02.714.714 0 00.12.836l1.73 1.723-1.99 1.99-1.722-1.73a.714.714 0 00-.837-.12c-.325.177-.666.32-1.02.43a.703.703 0 00-.485.668v2.432h-2.812v-2.433a.704.704 0 00-.485-.668 5.555 5.555 0 01-1.02-.428.715.715 0 00-.837.12l-1.722 1.729-1.99-1.99 1.73-1.723a.714.714 0 00.12-.836 5.561 5.561 0 01-.43-1.02.704.704 0 00-.668-.485H13.36v-2.813h2.433a.703.703 0 00.668-.485c.109-.353.253-.694.43-1.02a.714.714 0 00-.12-.836l-1.73-1.723 1.99-1.99 1.722 1.73a.715.715 0 00.837.12c.325-.177.666-.32 1.02-.43a.703.703 0 00.485-.667V5.624h2.812v2.433a.704.704 0 00.485.668c.354.109.695.252 1.02.429a.715.715 0 00.837-.12l1.722-1.73 1.99 1.99-1.73 1.723a.714.714 0 00-.12.837c.177.325.321.666.43 1.02a.704.704 0 00.668.484h2.433v2.813z" fill="#01BC8C"/><path d="M26.719 14.765a4.218 4.218 0 10-8.437 0 4.218 4.218 0 008.437 0zm-7.032 0a2.812 2.812 0 115.625 0 2.812 2.812 0 01-5.625 0z" fill="#01BC8C"/><path d="M38.672 16.17h-1.406a14.765 14.765 0 10-29.532 0H6.328a4.218 4.218 0 100 8.438h3.516a.703.703 0 00.703-.703v-7.031a.703.703 0 00-.703-.703H9.14a13.36 13.36 0 0126.718 0h-.703a.703.703 0 00-.703.703v7.031a.703.703 0 00.703.703h.703v2.11a.703.703 0 01-.703.703h-5.048a2.117 2.117 0 00-1.983-1.406h-1.406a2.11 2.11 0 000 4.218h1.406a2.116 2.116 0 001.983-1.406h5.048a2.116 2.116 0 002.11-2.11v-2.109h1.406a4.218 4.218 0 100-8.437zM6.328 23.203a2.812 2.812 0 110-5.625v5.625zm2.813 0H7.734v-5.625h1.407v5.625zm18.984 5.625h-1.406a.703.703 0 110-1.406h1.406a.703.703 0 010 1.406zm9.14-5.625H35.86v-5.625h1.407v5.625zm1.407 0v-5.625a2.812 2.812 0 110 5.625z" fill="#01BC8C"/></svg>