<svg width="37" height="37" fill="none" xmlns="http://www.w3.org/2000/svg"><path d="M22.927 9.938H6.114v1.529h16.813V9.938zm0 4.585H6.114v1.529h16.813v-1.529zm-3.821 4.587H6.114v1.528h12.992v-1.529zm-3.821 4.584H6.114v1.529h9.17v-1.529zm0 4.586H6.114v1.529h9.17V28.28z" fill="#01BC8C"/><path d="M29.041 13.443V5.8L23.244.003H0v36.684h29.041v-13.44L37 15.287l-4.902-4.901-3.057 3.057zm-.764 2.925l2.74 2.741-9.17 9.17h-2.741v-2.74l9.17-9.17zM23.692 2.612l2.74 2.74h-2.74v-2.74zm3.82 32.546H1.529V1.531h20.635v5.35h5.35v8.09l-9.935 9.936v4.901h4.901l5.034-5.033v10.383zm4.586-17.13l-2.74-2.74 2.74-2.74 2.74 2.74-2.74 2.74z" fill="#01BC8C"/></svg>