<svg width="40" height="38" fill="none" xmlns="http://www.w3.org/2000/svg"><path fill-rule="evenodd" clip-rule="evenodd" d="M38.149 12.726c-.82 0-1.5-.516-1.758-1.242h-6.35v.61h2.976c.328 0 .61.257.61.609v5.46c.632.28 1.054.937 1.054 1.663a1.84 1.84 0 01-1.851 1.851 1.855 1.855 0 01-1.852-1.85c0-.868.61-1.618 1.43-1.805v-4.71h-2.93l-1.991.21a7.359 7.359 0 01-1.031 1.758l.82 1.875a.611.611 0 01-.258.773l-3.163 1.828a.65.65 0 01-.797-.164l-1.195-1.64a6.602 6.602 0 01-1.922 0c-1.195 1.57-2.39 3.913-2.39 10.193 0 .726-.89.61-1.406.61 0 .843.094 3.49-.07 4.358a4.792 4.792 0 01-4.733 3.983c-2.672 0-4.78-2.25-4.78-4.803v-3.539c-.516 0-1.407.117-1.407-.61C5.155 15.28 0 18.843 0 11.438 0 2.252 10.31-3.02 17.739 2.041c.28-.164.656-.188.867.117l1.218 1.64a7.424 7.424 0 012.039 0l1.195-1.64a.596.596 0 01.797-.164l3.163 1.828c.281.14.375.468.258.75l-.82 1.874a7.07 7.07 0 011.03 1.78l1.97.212h3.116V3.634A1.824 1.824 0 0131.33 1.9 1.84 1.84 0 0133.18.049c1.008 0 1.851.82 1.851 1.851 0 .797-.539 1.5-1.242 1.734v5.413a.62.62 0 01-.609.61h-3.14v.609h6.35a1.854 1.854 0 011.758-1.242c1.007 0 1.851.82 1.851 1.85a1.87 1.87 0 01-1.851 1.852zm-21.23 6.491c-.375-.21-2.203-1.195-2.414-1.406a.601.601 0 01-.094-.656l.82-1.875a7.359 7.359 0 01-1.03-1.757l-2.016-.235a.587.587 0 01-.539-.585V9.047c0-.305.234-.562.54-.61l2.014-.21.563-1.125c.047-.187.351-.515.468-.656l-.82-1.875a.566.566 0 01.235-.75l1.898-1.1C9.912-1.24 1.219 3.492 1.219 11.436c0 6.515 4.99 3.68 5.155 16.099h9.959c.047-3.867.562-6.257 1.242-7.92l-.656-.399zm1.03-15.911l-2.226 1.289c.164.375.844 1.687.797 2.015-.023.398-.843 1.008-1.312 2.367a.614.614 0 01-.492.398l-1.875.211v2.578l1.875.187c.703.094.445 1.055 1.664 2.437a.615.615 0 01.093.656l-.75 1.71 2.227 1.266 1.101-1.5c.422-.562 1.101.118 2.953-.234a.61.61 0 01.609.235l1.101 1.5 2.226-1.266-.75-1.71c-.28-.657.68-.938 1.266-2.672.093-.234.281-.399.515-.422l1.852-.187V9.586l-1.852-.21c-.703-.071-.468-1.055-1.687-2.438a.616.616 0 01-.094-.633l.75-1.71-2.226-1.289-1.101 1.5c-.422.586-1.148-.117-2.953.234a.61.61 0 01-.609-.234l-1.101-1.5zm-13.848 8.74a.62.62 0 01-.61-.609c0-4.241 3.328-7.71 7.57-7.85.773-.023.82 1.172.046 1.195a6.645 6.645 0 00-6.397 6.655.62.62 0 01-.61.61zm3.655 16.708v1.383h7.194v-1.383H7.756zm.024 3.82l.117.703h6.913c.187-.633.14-1.266.14-1.922H7.756v.937l.024.282zm.726 1.921a3.587 3.587 0 002.835 1.383 3.6 3.6 0 002.86-1.383H8.505zm12.326-19.004c-2.53 0-4.616-2.085-4.616-4.616a4.625 4.625 0 014.616-4.616 4.61 4.61 0 014.616 4.616 4.625 4.625 0 01-4.616 4.616zm0-8.014a3.4 3.4 0 00-3.398 3.398 3.4 3.4 0 003.398 3.398 3.4 3.4 0 003.398-3.398 3.4 3.4 0 00-3.398-3.398zM33.18 1.244a.67.67 0 00-.656.656.63.63 0 00.633.633h.023a.63.63 0 00.633-.633c0-.351-.282-.656-.633-.656zm-.351 17.95a.63.63 0 00-.633.632c0 .352.281.656.633.656a.67.67 0 00.656-.656c0-.351-.305-.633-.656-.633zm4.663-8.343v.024a.666.666 0 00.656.633.63.63 0 00.633-.633c0-.352-.282-.656-.633-.656a.666.666 0 00-.656.632z" fill="#01BC8C"/></svg>