<svg width="40" height="40" fill="none" xmlns="http://www.w3.org/2000/svg"><path d="M17.317 20.183l-.884.884 2.812 2.813a.627.627 0 00.884 0l7.188-7.188-.884-.884-6.746 6.746-2.37-2.371zM35 35.625a4.324 4.324 0 01-.962 2.734l.974.782a5.632 5.632 0 001.238-3.516v-23.75H35v23.75z" fill="#01BC8C"/><path d="M35.625 1.25H9.375A3.125 3.125 0 006.25 4.375v28.75H1.875a.625.625 0 00-.625.625v1.875a3.125 3.125 0 003.125 3.125h26.25a3.125 3.125 0 003.125-3.125V7.5h4.375a.625.625 0 00.625-.625v-2.5a3.125 3.125 0 00-3.125-3.125zM2.5 35.625v-1.25h25v1.25a3.11 3.11 0 00.625 1.875H4.375A1.875 1.875 0 012.5 35.625zm30-31.25v31.25a1.875 1.875 0 11-3.75 0V33.75a.624.624 0 00-.625-.625H7.5V4.375A1.875 1.875 0 019.375 2.5h23.75a3.11 3.11 0 00-.625 1.875zm5 1.875h-3.75V4.375a1.875 1.875 0 113.75 0V6.25z" fill="#01BC8C"/><path d="M30 6.25H15V7.5h15V6.25zM30 10H9.375v1.25H30V10zm0 3.75H9.375V15H30v-1.25zm0 3.75h-2.5v1.25H30V17.5zm-16.875 0h-3.75v1.25h3.75V17.5zM30 21.25h-3.125v1.25H30v-1.25zm-16.875 0h-3.75v1.25h3.75v-1.25zM30 25h-3.125v1.25H30V25zm-16.875 0h-3.75v1.25h3.75V25zM30 28.75H9.375V30H30v-1.25zM14.375 16.875v10A.624.624 0 0015 27.5h10a.624.624 0 00.625-.625v-6.25h-1.25v5.625h-8.75V17.5h7.5v-1.25H15a.624.624 0 00-.625.625zM36.25 8.75H35v1.875h1.25V8.75z" fill="#01BC8C"/></svg>